<svg viewBox="0 0 1281.7578125 400" xmlns="http://www.w3.org/2000/svg"><g><g><g><g><g><line x1="40" y1="378" x2="35" y2="378" style="visibility: inherit;" fill="rgb(0, 0, 0)" stroke="rgb(204, 204, 204)" stroke-width="1px"></line><line x1="40" y1="324" x2="35" y2="324" style="visibility: inherit;" fill="rgb(0, 0, 0)" stroke="rgb(204, 204, 204)" stroke-width="1px"></line><line x1="40" y1="270" x2="35" y2="270" style="visibility: inherit;" fill="rgb(0, 0, 0)" stroke="rgb(204, 204, 204)" stroke-width="1px"></line><line x1="40" y1="216" x2="35" y2="216" style="visibility: inherit;" fill="rgb(0, 0, 0)" stroke="rgb(204, 204, 204)" stroke-width="1px"></line><line x1="40" y1="162" x2="35" y2="162" style="visibility: inherit;" fill="rgb(0, 0, 0)" stroke="rgb(204, 204, 204)" stroke-width="1px"></line><line x1="40" y1="108" x2="35" y2="108" style="visibility: inherit;" fill="rgb(0, 0, 0)" stroke="rgb(204, 204, 204)" stroke-width="1px"></line><line x1="40" y1="54" x2="35" y2="54" style="visibility: inherit;" fill="rgb(0, 0, 0)" stroke="rgb(204, 204, 204)" stroke-width="1px"></line><line x1="40" y1="0" x2="35" y2="0" style="visibility: inherit;" fill="rgb(0, 0, 0)" stroke="rgb(204, 204, 204)" stroke-width="1px"></line></g><g transform="translate(30, 0)"><text x="0" y="378" dx="0em" dy="0.3em" style="text-anchor: end; visibility: hidden; font-family: &quot;Helvetica Neue&quot;, sans-serif; font-size: 12px; font-weight: 200;" fill="rgb(50, 49, 63)" stroke="none" stroke-width="1px">-50</text><text x="0" y="324" dx="0em" dy="0.3em" style="text-anchor: end; visibility: inherit; font-family: &quot;Helvetica Neue&quot;, sans-serif; font-size: 12px; font-weight: 200;" fill="rgb(50, 49, 63)" stroke="none" stroke-width="1px">0</text><text x="0" y="270" dx="0em" dy="0.3em" style="text-anchor: end; visibility: inherit; font-family: &quot;Helvetica Neue&quot;, sans-serif; font-size: 12px; font-weight: 200;" fill="rgb(50, 49, 63)" stroke="none" stroke-width="1px">50</text><text x="0" y="216" dx="0em" dy="0.3em" style="text-anchor: end; visibility: inherit; font-family: &quot;Helvetica Neue&quot;, sans-serif; font-size: 12px; font-weight: 200;" fill="rgb(50, 49, 63)" stroke="none" stroke-width="1px">100</text><text x="0" y="162" dx="0em" dy="0.3em" style="text-anchor: end; visibility: inherit; font-family: &quot;Helvetica Neue&quot;, sans-serif; font-size: 12px; font-weight: 200;" fill="rgb(50, 49, 63)" stroke="none" stroke-width="1px">150</text><text x="0" y="108" dx="0em" dy="0.3em" style="text-anchor: end; visibility: inherit; font-family: &quot;Helvetica Neue&quot;, sans-serif; font-size: 12px; font-weight: 200;" fill="rgb(50, 49, 63)" stroke="none" stroke-width="1px">200</text><text x="0" y="54" dx="0em" dy="0.3em" style="text-anchor: end; visibility: inherit; font-family: &quot;Helvetica Neue&quot;, sans-serif; font-size: 12px; font-weight: 200;" fill="rgb(50, 49, 63)" stroke="none" stroke-width="1px">250</text><text x="0" y="0" dx="0em" dy="0.3em" style="text-anchor: end; visibility: hidden; font-family: &quot;Helvetica Neue&quot;, sans-serif; font-size: 12px; font-weight: 200;" fill="rgb(50, 49, 63)" stroke="none" stroke-width="1px">300</text></g><line x1="40" y1="0" x2="40" y2="378" fill="rgb(0, 0, 0)" stroke="rgb(204, 204, 204)" stroke-width="1px"></line></g></g><g transform="translate(40, 0)" clip-path="url(#clip_0)"><clipPath id="clip_0"><rect width="1241" height="377"></rect></clipPath><g><g><g><line x1="0" y1="0" x2="0" y2="378" fill="rgb(0, 0, 0)" stroke="rgb(60, 60, 60)" stroke-width="1px" opacity="0.25"></line><line x1="137.97333333333333" y1="0" x2="137.97333333333333" y2="378" fill="rgb(0, 0, 0)" stroke="rgb(60, 60, 60)" stroke-width="1px" opacity="0.25"></line><line x1="275.94666666666666" y1="0" x2="275.94666666666666" y2="378" fill="rgb(0, 0, 0)" stroke="rgb(60, 60, 60)" stroke-width="1px" opacity="0.25"></line><line x1="413.91999999999996" y1="0" x2="413.91999999999996" y2="378" fill="rgb(0, 0, 0)" stroke="rgb(60, 60, 60)" stroke-width="1px" opacity="0.25"></line><line x1="551.8933333333333" y1="0" x2="551.8933333333333" y2="378" fill="rgb(0, 0, 0)" stroke="rgb(60, 60, 60)" stroke-width="1px" opacity="0.25"></line><line x1="689.8666666666667" y1="0" x2="689.8666666666667" y2="378" fill="rgb(0, 0, 0)" stroke="rgb(60, 60, 60)" stroke-width="1px" opacity="0.25"></line><line x1="827.8399999999999" y1="0" x2="827.8399999999999" y2="378" fill="rgb(0, 0, 0)" stroke="rgb(60, 60, 60)" stroke-width="1px" opacity="0.25"></line><line x1="965.8133333333334" y1="0" x2="965.8133333333334" y2="378" fill="rgb(0, 0, 0)" stroke="rgb(60, 60, 60)" stroke-width="1px" opacity="0.25"></line><line x1="1103.7866666666666" y1="0" x2="1103.7866666666666" y2="378" fill="rgb(0, 0, 0)" stroke="rgb(60, 60, 60)" stroke-width="1px" opacity="0.25"></line><line x1="1241.76" y1="0" x2="1241.76" y2="378" fill="rgb(0, 0, 0)" stroke="rgb(60, 60, 60)" stroke-width="1px" opacity="0.25"></line></g><g><line x1="0" y1="378" x2="1241.76" y2="378" fill="rgb(0, 0, 0)" stroke="rgb(60, 60, 60)" stroke-width="1px" opacity="0.25"></line><line x1="0" y1="324" x2="1241.76" y2="324" fill="rgb(0, 0, 0)" stroke="rgb(60, 60, 60)" stroke-width="1px" opacity="0.25"></line><line x1="0" y1="270" x2="1241.76" y2="270" fill="rgb(0, 0, 0)" stroke="rgb(60, 60, 60)" stroke-width="1px" opacity="0.25"></line><line x1="0" y1="216" x2="1241.76" y2="216" fill="rgb(0, 0, 0)" stroke="rgb(60, 60, 60)" stroke-width="1px" opacity="0.25"></line><line x1="0" y1="162" x2="1241.76" y2="162" fill="rgb(0, 0, 0)" stroke="rgb(60, 60, 60)" stroke-width="1px" opacity="0.25"></line><line x1="0" y1="108" x2="1241.76" y2="108" fill="rgb(0, 0, 0)" stroke="rgb(60, 60, 60)" stroke-width="1px" opacity="0.25"></line><line x1="0" y1="54" x2="1241.76" y2="54" fill="rgb(0, 0, 0)" stroke="rgb(60, 60, 60)" stroke-width="1px" opacity="0.25"></line><line x1="0" y1="0" x2="1241.76" y2="0" fill="rgb(0, 0, 0)" stroke="rgb(60, 60, 60)" stroke-width="1px" opacity="0.25"></line></g></g></g><g><g><line x1="0" y1="324" x2="1241.76" y2="324" fill="rgb(0, 0, 0)" stroke="rgb(153, 153, 153)" stroke-width="1.5px"></line></g></g><g><g><line x1="137.97333333333333" y1="0" x2="137.97333333333333" y2="378" fill="rgb(0, 0, 0)" stroke="rgb(153, 153, 153)" stroke-width="1.5px"></line></g></g><g><g><g><g><g><path stroke="rgb(255, 112, 67)" stroke-width="2px" d="M139.28408,149.82579162597654L140.93976,147.64744995117186L141.14672,128.1234808847856L141.90557333333334,154.2524834329942L142.94037333333333,158.91248429520112L143.14733333333334,164.65685312051906L144.52706666666666,175.44488983942773L148.73525333333333,174.1724417895727L148.94221333333334,142.34827249869323L149.56309333333334,146.3501778479562L153.84026666666668,164.49547736026926L154.18519999999998,172.54078856529276L155.63392,169.78009355411317L155.97885333333335,173.46942991608424L156.46176,54.85932431757294L156.87568,96.12916158162852L159.29021333333333,136.20930864479578L159.42818666666665,157.33405214811538L159.98008,170.02528447545674L161.98069333333333,159.5338376384644L163.36042666666668,175.6343474295578L167.08570666666668,197.03566626858657L167.1546933333333,200.18396539570608L168.53442666666666,181.13052625965074L169.77618666666666,193.01495232675913L169.98314666666667,193.35132731652945L170.05213333333333,188.95708608190722L170.74200000000002,179.07218674099414L175.01917333333336,197.0492061195186L176.88181333333335,80.62400867532386L177.9856,114.366951429052L178.46850666666666,149.78693295373122L178.53749333333334,163.39664748267623L180.81405333333333,131.35453737624897L181.7798666666667,116.08921483910899L182.33176,133.8027605314829L182.67669333333333,171.7441334824067L182.81466666666668,197.14880037420616L183.64250666666666,201.41624544399218L184.33237333333332,207.48404939852986L187.29880000000003,212.71958735816085L187.85069333333334,212.58525510037873L188.40258666666668,200.24241062502276L190.19624000000002,218.96688998177314L190.81712000000002,222.2279291554185L191.09306666666666,216.50123991476895L191.23104,198.64627055952135L192.1968533333333,201.2758076238578L192.33482666666666,174.58638545286138L192.67976000000002,181.83248727763473L192.8177333333333,200.61664165866418L193.36962666666668,214.18139930187857L193.78354666666667,207.8149125791629L193.85253333333333,214.19742142445756L195.71517333333335,203.1145485577926L200.75119999999998,212.5481500331166L203.02776,209.03525208041603L203.23471999999998,206.57579809883518L204.40749333333335,193.80777451359697L205.02837333333332,182.32779849722016L205.09735999999998,213.57113802167285L205.51128,217.25832514698814L205.5802666666667,223.3822789016695L205.9252,207.94373941131408L207.16696,207.64577587335097L207.37392,177.44327460604174L207.9948,201.37552299116413L211.37514666666667,198.64493659743286L211.58210666666668,196.6004213090457L211.99602666666667,41.98751303933352L212.40994666666666,102.73999488414705L212.75488,153.48840257013666L213.44474666666667,173.75995999911322L213.85866666666666,183.0369958969289L214.2036,201.555162259837L217.79090666666667,212.16632806879284L218.13584,220.29208810104132L218.20482666666666,220.96148003347636L219.44658666666666,209.70187056403114L220.34341333333333,215.23275942337963L221.24024,210.22217176730902L223.86173333333335,215.40580049690885L225.0345066666667,214.19462312041094L226.41423999999998,220.76233979021532L227.31106666666668,238.15303198692214L228.82877333333334,226.3755752956689L229.03573333333333,223.8099999625576L230.00154666666668,222.56836008495642L230.27749333333333,226.6263867785129L233.58885333333333,235.76493497238118L234.00277333333332,238.0173945771787L234.07176,246.02823313302596L235.58946666666665,224.41379595891718L236.41730666666666,217.07644310269404L237.10717333333332,201.01435560771017L239.17677333333336,212.83662203161828L239.93562666666665,211.65081355100222L240.48752,208.05038778880444L240.90144,207.53907031976703L243.10901333333334,223.7385083539696L243.38496,195.4524148268349L245.10962666666666,213.1902013375072L246.21341333333334,205.9268766618793L246.2824,215.91935219341667L247.31719999999999,224.04674986585468L247.59314666666668,229.24911656990344L248.76592,231.9370962847155L251.18045333333333,225.32261958723555L251.73234666666667,207.63117038515384L253.11208,209.38023103968607L254.07789333333332,215.36089838943664L254.69877333333332,206.1241867387401L255.11269333333334,201.7660200998847L255.45762666666667,196.77006420836832L255.94053333333332,212.75136152306789L256.56141333333335,214.68967409157509L257.5272266666667,199.58286109557005L257.66519999999997,208.24568723839675L257.87216,209.45646971608488L258.49304,199.1470122007447L260.4936533333333,205.39460038685306L260.90757333333335,228.9106535426587L262.5632533333333,222.71798611973585L264.01197333333334,206.06213468941965L265.25373333333334,217.13501787419867L265.87461333333334,229.5543088202223L266.77144,220.18120516518027L266.9784,231.50100972020195L267.5302933333333,228.5425339327071L270.28976,226.34844089185083L271.46253333333334,222.00981429096984L272.1524,219.28064602087096L272.35936,209.63478751486633L273.7390933333333,220.96802119056042L274.84288,230.75224911570345L276.08464,238.06631687664864L276.91248,234.27376742091104L278.08525333333336,229.59838203457787L278.4991733333333,224.20335905473112L280.15485333333334,233.67625908518244L281.05168,229.50790278997664L281.25864,238.06505014566568L281.3276266666667,232.48348614208692L281.87952,231.02198682685372L282.15546666666665,231.17384590470598L282.63837333333333,240.26684440805798L286.01872,240.37301802178789L286.29466666666667,241.37497878182273L286.77757333333335,246.1351011606952L287.39845333333335,245.70256008606557L288.91616,235.55558732117058L289.1921066666667,242.5510492921164L289.744,230.46324285651983L290.2958933333333,229.58640201274002L290.57184,237.7027628385034L291.95157333333333,243.36480784958638L292.2965066666667,243.71512836209558L292.36549333333335,244.87603575749174L292.71042666666665,245.89465539004192L293.5382666666667,235.39357045570483L293.74522666666667,234.5672848515479L294.09016,233.06448468046L295.4009066666667,220.5528342408932L296.50469333333336,244.34451786631325L297.19456,227.95159353228794L298.0224,235.48375702269308L299.81605333333334,244.34380114965103L300.43693333333334,247.30179851205622L302.8514666666666,237.46134326739L302.92045333333334,245.58695665623478L303.05842666666666,245.52289848104556L306.09384,249.99951978931094L306.64573333333334,237.2051107993678L307.26661333333334,240.4022309083316L307.40458666666666,245.0585310498818L307.74951999999996,246.58551938676501L309.4741866666667,231.18981004514492L309.5431733333333,244.9659491374385L310.23303999999996,222.49623598636936L310.37101333333334,239.18021742189973L310.7159466666667,244.6194093838039L311.68176,247.6263981937589L312.09568,245.5152651857866L312.71656,243.39643743178445L313.75136,230.7486057452035L314.0273066666667,223.0319731395049L314.16528,230.84014079288264L315.8899466666667,224.4418083526827L317.40765333333337,233.45659856141432L317.8215733333333,247.01120492542282L318.9943466666667,236.25732866814428L319.4082666666667,237.57668199092566L321.20192,239.30871268576632L322.78861333333333,245.78853657142074L323.27152,230.81944896921962L323.61645333333337,231.4700025114146L324.51327999999995,238.0790951347784L324.9961866666667,240.03675859453892L327.06578666666667,237.73712376023897L328.03159999999997,242.73005477372152L330.44613333333336,248.4694560209712L330.51511999999997,247.1404957561374L330.5841066666667,233.18009225348712L336.1720266666666,250.1428590630298L336.7929066666666,255.13150938313038L337.4137866666666,256.7948622338821L337.82770666666664,260.2143408632785L339.48338666666666,256.648345484764L342.72576000000004,254.22492196370996L343.2776533333333,247.5714562299838L345.7611733333333,254.49918599384964L346.86496,257.484773009884L347.07192000000003,255.14689676491477L347.6238133333333,258.4214183934215L347.8307733333333,240.26732295988103L349.4864533333333,253.73771353911224L349.7624,245.38256244963918L351.832,250.88416729156086L353.4186933333333,255.93977753558107L354.4534933333333,260.58855249546974L355.6952533333333,254.62195510568029L356.10917333333333,264.0420747968066L357.21296,255.93237976577927L358.45472,249.99899487606913L358.52370666666667,231.1644950701727L360.8692533333333,234.0340161339005L361.55912,244.00227924821138L361.76608,249.24322057627057L361.83506666666665,255.914456027403L361.97303999999997,258.99085702708635L362.0420266666667,258.16291485101743L363.76669333333336,268.07553449410653L366.0432533333334,264.52507185613194L367.6299466666667,263.4166101302807L368.80271999999997,259.8346300185981L370.94130666666666,187.40462981779947L372.80394666666666,211.10603814458594L373.14887999999996,229.77710408792345L374.66658666666666,252.06256140294937L375.9773333333333,242.11592783298056L376.11530666666664,226.21555010799145L377.01213333333334,249.58489244272457L378.11591999999996,246.4404172771582L380.11653333333334,256.1106451416855L380.3234933333333,260.28833734135895L382.04816,265.8767923828427L383.84181333333333,262.7165356347838L385.0145866666666,243.45575609766712L386.39432,256.24109519912764L387.63608,259.4998503567813L387.7740533333333,259.15880486738905L387.91202666666663,259.00009273488655L388.32594666666665,259.5636413953265L390.2575733333333,264.31475283035996L391.2233866666666,265.7473115981183L395.08664,268.3638458211757L395.3625866666667,274.16563732668976L395.91448,273.6436408799006L396.12144,274.56555952794037L398.2600266666667,266.5984605946939L398.81192,260.59029449646476L399.7087466666667,268.7670254527617L400.05368,264.83250201482105L401.15746666666666,252.80371483193952L401.50239999999997,265.0363961354918L401.6403733333333,257.02032181215446L402.33024,259.06435299940205L402.6061866666667,267.9959576858717L404.60679999999996,263.7894338644527L405.43464,258.7727129309763L409.0219466666667,260.93175654276547L409.50485333333336,265.65765432849133L409.7808,273.97709503850103L410.5396533333334,277.4974193155811L410.95357333333334,273.04190013671194L412.8852,266.2361268984334L414.67885333333334,266.87862535781005L415.5066933333334,262.32327604476416L416.26554666666664,261.3358346454132L416.4725066666667,266.63282720326356L420.40474666666665,255.72238516473158L420.74967999999996,266.19046558370223L420.8186666666667,271.8696179122331L421.50853333333333,275.05660876003515L426.54456000000005,277.56348387174376L427.3034133333333,270.23627544267515L427.3724,257.4048580390426L427.51037333333335,259.4924463175662L427.85530666666665,271.72942210572523L427.9242933333333,274.4936021770094L429.64896,275.94012627202596L429.99389333333335,267.8464961733718L430.2008533333333,272.5549066151559L430.75274666666667,271.11313384946465L432.13248,271.69940423546L432.33944,266.35209993873696L432.4084266666666,264.2151381370703L433.44322666666665,270.5144915126133L434.5470133333333,278.12696810092734L434.96093333333334,280.90306898311496L435.85776,281.30858559152915L435.9957333333333,274.04610814202687L436.89256,272.99009676998173L439.4450666666666,278.4525342582781L441.1007466666667,282.1390375227403L441.5836533333333,276.16286318747234L441.9975733333333,275.9675059373857L443.65325333333334,271.9303872904588L443.8602133333333,270.69602546509554L447.9304266666667,266.3610547932175L449.1032,268.62904876948517L449.1721866666667,273.0741979994841L450.55192,275.6068873909991L450.75888,283.22339897512677L451.37976,269.7535238821464L453.86328,267.9296876325105L454.07023999999996,271.26147920548283L455.1740266666667,271.68267573129754L455.31199999999995,273.96436190850505L457.31261333333333,279.0092874942241L459.24424,278.96776634419075L459.79613333333333,272.95878254821366L460.07207999999997,279.1400056739477L460.62397333333337,275.63377232526705L461.38282666666663,280.4595747354923L463.17647999999997,283.8598938891469L463.5214133333333,287.50910591966976L464.62519999999995,280.31453709916514L465.72898666666663,268.66576815793655L466.28088,277.56317232054323L466.90176,276.73596277953294L467.52264,274.2936001896924L468.28149333333334,275.5717231020967L468.35047999999995,276.75843498430487L469.17832000000004,279.4951111004462L469.31629333333336,274.04958710704506L469.52325333333334,280.4509423887388L471.9377866666666,285.71565042469837L472.76562666666666,278.6133900717135L474.0763733333333,277.70861637945393L475.6630666666666,277.64627438089497L477.0428,282.9166565352753L479.8022666666667,286.3973198794171L480.35416,285.62609505265027L480.97504,282.3733343387191L481.182,284.4574528127041L481.31997333333334,285.8300600054936L484.8382933333333,283.12516234606954L485.04525333333333,280.6863372758058L486.4249866666667,272.2087424899952L486.56296,274.7620155745635L486.6319466666667,273.0296144961053L487.1148533333333,268.45203017227254L488.3566133333333,272.4447563724065L490.28824,270.9043906276431L491.6679733333333,278.9100372086171L491.80594666666667,279.85341063083433L492.2198666666667,278.4830201944186L494.3584533333334,284.10987864497145L495.53122666666667,280.81508539010787L496.77298666666667,269.3424261119944L497.32488,268.95284964913026L499.46346666666665,280.5614110529059L501.32610666666665,282.37446949551304L502.9128,274.5092980303156L504.9134133333333,281.65630129133393L505.67226666666664,278.8438921639605L506.7760533333333,284.4523488176634L507.7418666666667,283.17972374372306L509.19058666666666,283.3712506280698L511.95005333333336,288.0457546798204L513.46776,286.8305626711735L513.8126933333334,272.8687810841494L516.3652,273.89918350644666L517.1240533333333,274.3019935023055L517.5379733333334,282.2134625808755L518.5037866666667,283.75313162567375L518.64176,281.38861847735734L520.8493333333333,285.72900778685386L522.5050133333333,287.069324471917L523.3328533333333,280.19193208549393L523.4708266666667,279.73312958821043L523.8847466666666,277.9100777040981L524.7125866666667,283.8121321327128L526.4372533333334,289.4038083018445L528.36888,287.5976323321809L528.5068533333333,284.81450548573434L528.7828,283.1965826249367L529.8176000000001,290.5252843222765L532.6460533333334,286.3821856690495L532.8530133333334,292.56722634893947L535.3365333333334,289.314375787391L536.5093066666667,288.5466609338604L536.7162666666667,285.36227848170296L537.4061333333333,288.7539610526448L538.6478933333333,283.29992881664543L538.7168800000001,241.87025880365917L539.8896533333333,263.7024984828791L540.0966133333334,273.090622746954L542.4421600000001,279.4380250153599L542.5801333333334,284.5995266181027L543.06304,287.2268568094846L544.92568,287.91298084594473L545.54656,290.88694356738125L546.99528,289.5371220120108L548.65096,294.8289818864057L548.9958933333334,288.798132723152L549.4098133333333,291.30216079233844L551.2724533333333,294.15488415240503L552.6521866666667,296.7089852399782L552.99712,298.12522674579355L554.03192,300.8911427308257L554.3768533333333,290.29675369269467L556.10152,294.01677603153473L557.3432799999999,288.65830896608884L557.6192266666667,288.4898105749658L557.96416,288.0744492722256L559.0679466666667,278.6306843948783L559.20592,282.81611803438796L560.3097066666667,289.84215675202927L560.44768,292.73977244477226L560.8616,285.4211734033868L560.9995733333333,283.3691658340243L561.9653866666666,290.19233617033643L562.2413333333334,290.4961603386765L563.8280266666667,292.6350097408035L564.4489066666666,291.28254820288055L565.7596533333334,291.1531500459959L566.5185066666667,294.20688905103503L566.65648,292.6621870500058L567.0704,293.7678780259019L567.9672266666666,292.1048101895646L569.2089866666666,282.64387189254734L571.8994666666666,289.1181254731749L573.4861599999999,289.27520517892447L573.7621066666667,293.6156059259582L573.8310933333333,296.3377109982019L574.3140000000001,296.03984617289575L575.4867733333333,296.35868764148154L576.2456266666667,296.36111447087524L577.0044800000001,296.0054888119197L577.4873866666667,298.62996272074554L577.9013066666666,291.2320711383067L579.5569866666666,252.44415174060123L583.3512533333334,271.14429261906776L583.6272,283.6283385414114L586.11072,288.5505179869074L586.1797066666667,293.4103339855038L586.4556533333333,291.81508619452495L587.8353866666667,294.17952913370715L587.9043733333333,296.8744228024899L587.97336,296.54882403061504L588.5252533333334,293.26937889102527L591.5606666666666,294.4448906707968L592.0435733333334,296.7701631317261L592.2505333333334,295.42438990174077L593.56128,296.6570318902632L597.28656,296.08266762048606L597.90744,297.8674367539322L598.0454133333333,298.75386387731055L598.32136,294.0743617223824L598.73528,292.02362118382007L598.94224,294.9237558096573L599.4251466666667,294.48437430488616L599.97704,295.9227902018282L600.184,295.8848498718293L601.01184,295.94788862182804L602.87448,297.7264019047863L603.1504266666667,296.79949955961985L603.90928,299.2599539166801L604.6681333333333,300.2719333180256L609.3592266666667,301.94662455990715L610.32504,302.4816781966377L610.8769333333333,299.713237356215L611.8427466666667,302.5866765140708L611.9117333333334,293.4053083376417L613.7053866666666,295.2113566334444L614.6712,299.7097028350471L616.3958666666666,297.5990768279814L618.39648,296.36546492613456L618.60344,295.4504923956221L620.3970933333334,295.45083132604515L621.6388533333334,296.20760652267785L621.9148,291.33092505862624L623.6394666666666,294.4393807492871L625.43312,289.14965438951367L627.2267733333333,297.1929581915695L628.2615733333333,293.4122397586917L628.8134666666666,286.08162345726583L628.8824533333334,291.674988142963L630.40016,286.9236365015005L630.6761066666666,286.2731013955292L631.64192,290.43349569449526L634.4013866666666,297.0985452926737L635.0222666666667,298.3145999844421L635.6431466666666,292.3517421073645L635.8501066666668,290.7356192390281L637.1608533333333,296.9682639079188L637.3678133333334,300.966861359888L637.9886933333333,301.3138344367824L640.5412,299.75918393233314L641.6449866666667,303.46577154409226L642.40384,303.5457541251858L643.6456,304.1208352876115L644.3354666666667,299.9391314521079L644.4044533333333,301.97635527507333L645.30128,299.80380294165536L645.6462133333333,299.01511147690724L645.7152,301.3723696815545L647.3018933333333,302.5096845652804L647.5778399999999,298.79629090274244L648.6126399999999,301.68046179750485L650.68224,293.17901407801463L651.3031199999999,294.3594002986154L651.5100799999999,300.14931951571714L651.9929866666668,297.66900268965486L652.6828533333334,298.2596420312734L652.8898133333333,298.9376820388324L653.2347466666668,299.0261947640709L653.9246133333334,302.4133026586135L655.5802933333333,295.52776888764856L656.2011733333334,297.3218766341028L657.5119199999999,301.8307204018484L658.6846933333334,301.7015161034137L662.06504,304.826445413391L662.9618666666667,305.17488168284905L663.1688266666666,283.16392644623284L665.3764000000001,293.2231044944487L666.5491733333333,299.56978162672294L667.23904,302.0851064638267L667.5839733333333,305.3276539051515L668.3428266666667,305.04089837336437L668.7567466666667,306.0742506939405L669.2396533333333,299.0495459607979L670.4814133333333,301.65149802325607L670.8263466666667,302.3337701518443L671.17128,303.17207401127257L672.41304,299.49491118532796L673.1718933333333,297.9351319834136L673.3788533333333,276.73042098692315L674.7585866666667,288.0895212689117L675.31048,296.71684639782166L676.0003466666667,293.26019829279454L676.8281866666666,299.06426445297166L678.41488,301.96926274282794L678.7598133333333,304.0007224558774L682.9680000000001,305.14994770997663L683.0369866666666,306.37436474415006L685.24456,308.17379120977125L688.2109866666666,304.5652886418784L688.76288,306.55747230316905L689.3147733333333,306.9251255480391L689.38376,307.7493452262844L691.7293066666666,305.6514370307902L692.48816,305.480126836394L693.316,303.085110922393L694.4887733333333,304.2123639167171L698.6279733333332,303.313230941583L700.2836533333334,305.1698178221519L702.3532533333332,305.459425788506L702.6292,303.99269502388483L703.5950133333333,303.9009431862059L704.7677866666667,304.7514442991747L705.1817066666666,304.31591522452436L708.0791466666666,305.3727664046121L709.1829333333334,306.6167460396666L709.9417866666666,308.6057756969201L710.5626666666666,306.863008173279L711.11456,308.2163386106325L712.4942933333334,308.2489475297828L712.6322666666666,303.95942024516455L712.8392266666666,307.1573765733683L712.9772,308.4510708719995L713.39112,307.89437586060205L714.7708533333333,308.7749250311317L714.9778133333334,310.5019336563744L715.3227466666666,309.13428148593886L715.8056533333333,309.15317487911216L715.9436266666667,306.9091943561782L719.4619466666666,304.5210285765976L720.2207999999999,304.37342238277495L720.7726933333333,306.7363409205097L722.1524266666668,307.154869570006L722.2214133333333,308.33542682318034L722.3593866666668,300.2762235011348L723.3252,302.99751849399144L723.6011466666668,306.41873320332843L724.2220266666666,301.9611002125244L724.2910133333334,303.26542541682124L724.6359466666668,306.04637608444335L724.98088,306.03242699954296L726.01568,308.22242798622483L728.1542666666666,307.8959874161245L728.9821066666667,307.33090952731146L729.4650133333333,309.6660526133595L729.8099466666667,308.2687649603497L730.77576,304.81803277992077L731.3966399999999,306.27823650755204L732.43144,308.3188433327539L733.1902933333333,308.98238970936916L733.6732,303.29187498773086L733.7421866666667,303.7213236620721L734.3630666666667,305.09446497361046L736.98456,303.87209615945926L737.5364533333334,302.72821356725757L737.6054399999999,302.1213135163311L737.8813866666667,301.97773583318735L740.0889599999999,307.3708053182718L743.3313333333333,307.14740178532344L743.60728,305.7114884344753L744.84904,307.39364603614905L745.1939733333334,308.74096588096677L746.4357333333334,308.79094436622654L746.6426933333333,308.17133459458944L748.0914133333333,307.26515939933176L748.8502666666667,308.75486459101506L750.5059466666667,308.7925999222116L750.9888533333333,310.3207910476873L752.1616266666667,311.8686778756827L752.2995999999999,312.6895974267036L752.5065599999999,311.37593666341957L753.9552799999999,312.2067230087939L754.0932533333333,310.7631562875762L754.4381866666666,310.3325729412469L755.1970399999999,309.3515098597188L756.02488,309.86123881683227L757.1976533333333,311.79713527313163L758.4394133333333,311.44183806390333L758.8533333333334,308.75993416768773L759.1982666666667,289.18875755871807L759.5432000000001,296.2539044528334L760.7849600000001,302.68419032795003L760.8539466666666,306.8451515106128L762.7165866666667,310.0093688909868L763.2684800000001,305.5345372891819L763.9583466666667,305.0697654032943L764.7172,308.49836407901273L766.16592,310.48242932082076L767.40768,311.6757923398069L769.6152533333333,308.5239456187279L769.68424,311.3886754538173L770.09816,313.52356718024936L773.6854666666667,314.3461399724563L773.82344,312.48144030061246L774.5133066666666,308.4369750507288L774.9962133333332,309.1053023247488L776.8588533333333,310.62491302326725L778.3075733333333,311.0401774739945L778.99744,309.05098563478737L780.1012266666667,307.9590080984017L780.2392,311.05043762729053L780.7221066666666,311.7115652191966L782.92968,312.3515936114984L783.2746133333333,311.83590164724575L784.0334666666666,312.49729458942164L784.3784,311.28311003002017L787.3448266666667,309.0316223046332L787.5517866666667,311.5811663301676L788.93152,307.56054333447753L789.34544,309.9662481808623L789.4144266666666,306.7412072825408L791.20808,305.2753431744561L791.6909866666666,307.8177372920028L795.96816,309.6570454666323L796.0371466666667,309.6445135043446L796.6580266666666,311.3321350435248L797.1409333333334,308.97526485179844L797.3478933333333,310.2413549865185L797.8308,312.10615388851755L798.03776,313.07088199985856L799.5554666666666,313.0378410895636L800.31432,314.43583130168736L801.0731733333333,313.98339335803877L801.76304,312.6307955668252L801.9010133333334,310.72175132691154L801.97,310.7674163356977L802.17696,309.4241587094997L803.83264,305.70055247667636L804.2465599999999,308.0176293833447L805.8332533333333,309.3294339685078L806.52312,310.7508988912365L807.0750133333333,312.0875168585456L807.9028533333334,311.5199071183012L811.2832,311.65710605992115L811.3521866666667,313.45083840401907L811.90408,314.01144768352475L812.52496,315.1191354710768L814.9394933333333,313.5833523763961L816.87112,313.32433379827415L817.07808,313.5938871441989L819.8375466666668,313.2445814472859L821.4932266666667,313.14078318538816L822.1830933333333,314.2255331207666L825.97736,315.15054126985984L826.8741866666667,316.3916865020282L827.6330399999999,314.7267002709679L828.8747999999999,313.7488385372145L831.3583199999999,313.38760956458947L831.7032533333334,314.34502611167846L831.7722399999999,313.43656234364283L831.9102133333333,313.55017638934L832.8760266666667,314.67455543382374L833.7038666666667,311.7536254569495L835.2905599999999,314.0965265620115L835.7044800000001,314.61755888917224L836.7392799999999,302.2083986147533L837.1532,307.66581584121525L837.8430666666667,308.5769883450612L839.4987466666666,310.51306506209045L840.6715200000001,309.82329123146815L842.1892266666666,312.4729424894302L844.3278133333333,313.410252264288L844.8107200000001,313.3853110875767L845.01768,300.620606574421L845.5695733333333,306.24647682917407L846.6733599999999,309.89519991738973L846.9493066666666,311.89760514940843L847.2942400000001,312.2921517889859L847.4322133333333,313.6124731260038L847.5701866666667,313.51023242601735L847.7771466666667,313.38675949650394L850.19168,314.31093086574907L850.6745866666666,312.93479155167597L851.7783733333333,314.4124410244504L853.1581066666666,315.99012911204574L855.0897333333332,313.8840031721835L855.2277066666667,303.1232337514546L855.2966933333333,306.10937404298704L855.4346666666667,311.0017992991443L855.8485866666666,310.8479962817571L856.4694666666667,312.29528218983063L856.8833866666666,314.7170374474433L857.22832,315.64348204335613L859.2289333333333,315.5217798540654L860.1947466666667,314.78389796004666L860.9536,302.18631149331316L861.6434666666667,305.7586200258707L861.9194133333333,309.30418127760737L861.9884000000001,310.9320728229609L863.9200266666667,310.3234810137228L864.5409066666666,311.90412960859993L865.0928,309.85084888942754L866.1276,312.7941140928728L866.1965866666667,313.82833823721785L867.0244266666666,315.20611404157387L869.1630133333334,315.0471089614433L869.7838933333333,314.90925474149003L870.6807200000001,314.4252793463589L870.88768,313.8999303336454L870.9566666666666,313.70533721324875L871.3016,312.07671729682136L871.9224800000001,312.9686831338301L872.4743733333332,313.0928336138186L872.95728,314.10375456587417L873.0262666666666,314.10364553127255L874.19904,314.59895364566785L876.26864,315.72395119741043L876.9585066666666,316.23897485205225L879.5110133333334,316.61457463901456L880.1318933333332,315.0871901416851L880.20088,314.5925924205824L880.6148,314.5473421497371L881.7185866666666,315.4689750606552L882.2014933333334,314.28410151283356L884.13312,313.4648354346777L884.2021066666666,314.8171906818882L884.8229866666667,315.76092035090534L885.16792,317.4655552928186L885.9267733333334,315.4507892914138L886.5476533333334,315.5392962524606L887.5134666666667,315.5639452899285L888.27232,315.8946642930977L890.13496,311.96951393840743L890.34192,313.2147111554029L890.9628,315.66047312421097L892.6874666666666,315.32298899842795L892.9634133333334,315.35902928467686L893.5842933333333,315.45784916565475L894.5501066666666,314.27798339465653L894.9640266666668,313.1781898475849L895.102,314.89985618455194L897.4475466666668,315.1302177878796L897.8614666666666,315.309613910948L898.2753866666666,315.54866482331437L898.41336,315.3107028612738L898.4823466666666,316.2488701649454L899.1722133333334,316.64951223110836L899.5171466666666,316.7763690131645L900.4829599999999,316.7622166639412L901.10384,314.14641560017134L902.2076266666666,315.17700249730984L903.9322933333333,313.4818061431613L905.24304,313.86749109556473L905.86392,312.0707342966211L907.10568,314.0292357363589L908.96832,315.20131075944226L910.5550133333334,315.47085302976205L910.6929866666667,316.9165763777937L910.7619733333333,315.98934301295554L914.2802933333334,314.15765962552234L914.8321866666666,314.65346851701264L915.0391466666667,315.7851436865015L915.6600266666667,316.4365672681143L916.8327999999999,314.1489442518598L918.28152,315.5629792372731L919.3163199999999,316.95749846460507L920.4201066666667,317.9781431751376L921.7998399999999,317.36110138207226L922.2827466666666,317.56563649910424L922.7656533333333,315.5782815729244L923.1105866666667,317.1110486632981L925.2491733333333,317.61595903196326L925.8010666666667,317.2670636775398L925.9390400000001,318.01737055363077L928.2845866666667,318.41725453127515L928.4915466666666,318.2329201855009L929.4573600000001,317.32194772134693L929.6643200000001,316.97771304351375L930.4231733333334,317.44452140368395L930.8370933333333,317.3758198215805L932.7687199999999,317.59791396631255L932.9756799999999,317.33214509304435L933.0446666666667,317.8188693769936L933.4585866666666,317.2810084624389L933.5965600000001,317.4836334054052L934.7693333333333,317.56259137441987L935.3212266666667,317.8391398618834L935.9421066666666,317.62965293873646L936.9769066666667,316.65421760552704L938.0806933333333,316.5586189727401L940.7711733333333,316.9961729324111L941.5990133333333,316.6609267666488L941.7369866666667,316.88282287517484L942.4268533333333,317.07334110211906L943.1857066666666,316.2352929150556L943.6686133333333,317.32927797529067L944.15152,317.0686299718199L944.2894933333333,316.5229415939318L945.4622666666667,315.6378357723991L946.7730133333333,315.9755861451411L949.2565333333333,316.4804395624509L949.9464,318.2670960815257L951.1191733333333,317.95603995940127L951.5330933333332,318.50801238811636L952.1539733333333,318.7861100451745L954.2235733333334,318.40436922839865L955.8102666666666,314.999294007132L955.8792533333333,316.360607089704L957.1210133333333,317.0370456960831L959.05264,316.7086823889633L959.3975733333334,317.75288265878083L960.2944,318.21835327538327L960.3633866666667,317.5713147377519L961.2602133333332,317.7883203291624L961.8121066666666,318.71035102699574L962.15704,318.2627858496569L962.2950133333333,318.4676675348796L962.364,315.4714433401416L963.7437333333332,316.55109469518607L964.0886666666667,317.79821106210676L965.05448,318.82985841903286L965.7443466666666,316.337015362699L966.08928,317.9413293233628L966.5721866666667,319.06271542543857L967.8829333333334,317.7597185954731L968.7107733333333,317.0188120914269L971.1253066666666,315.5907961965065L971.7461866666666,316.70394700959093L975.0575466666667,317.4286962773488L975.40248,318.4319123998932L976.43728,318.92568304632016L977.1961333333334,317.1533487316007L977.47208,317.23636338019577L978.5758666666666,317.1945948072923L979.4726933333334,316.9805499370487L980.8524266666666,317.31576281592794L981.4733066666666,318.1687774374816L982.0252,318.5824442426403L983.4049333333334,319.26657540560007L984.5087199999999,319.4509494967475L985.8884533333334,318.837584850026L986.0954133333333,318.59669648649265L987.1992,318.6664706125377L988.3029866666666,315.99929217282045L989.06184,316.9658192764706L993.2010399999999,317.5299496271006L993.82192,315.3788316079254L993.8909066666668,317.3189603989288L995.9605066666666,318.10977295261415L997.2712533333333,316.67047110189077L997.4782133333333,318.10545800750896L998.99592,319.0946679128733L1002.0313333333334,318.45043516239684L1003.4800533333333,319.0292305874894L1003.8939733333333,312.9198018107456L1004.0319466666667,315.7268875943209L1005.4806666666667,316.90796660963207L1006.9983733333333,317.1464124959916L1008.9989866666667,318.46504233707253L1012.1723733333333,319.14295854585924L1013.2761599999999,318.91892604456876L1014.1039999999999,313.61187100760066L1018.1742133333333,315.67715488452865L1019.2779999999999,317.670716194267L1021.4165866666667,318.8086700730055L1021.9684799999999,318.14158618381794L1023.4172000000001,318.7163095746707L1025.1418666666666,319.1375219355983L1025.4868,318.84620713871493L1026.3836266666667,319.7579553661452L1027.2804533333333,320.06565811501184L1027.6943733333333,319.6730472356453L1030.5918133333334,319.547019686602L1030.6607999999999,319.37098145765214L1031.0057333333334,319.52939613701193L1032.0405333333333,319.7307612555104L1034.1101333333334,319.4885212522076L1036.04176,318.39083110459603L1037.2145333333333,319.1115170381544L1039.0771733333333,319.25372216594684L1039.14616,319.71329183228295L1039.6980533333333,319.75377950839686L1040.5258933333334,320.0578051081448L1040.7328533333334,320.2049412741154L1041.3537333333334,320.6563137711221L1042.3885333333333,321.13602600795826L1042.66448,319.8863570522237L1042.8024533333332,320.0639545511584L1043.8372533333334,319.9215938229192L1045.0790133333333,314.52327624004056L1046.3207733333334,316.81368307495694L1047.3555733333333,318.6102369255101L1048.0454399999999,319.624393189089L1048.2523999999999,319.4060448032239L1049.08024,319.06578494773026L1049.1492266666667,319.0291883911235L1049.4251733333333,319.0960038336243L1051.3568,319.7852460455969L1053.1504533333334,319.9903749260947L1055.4270133333332,319.38065342245375L1055.7719466666667,320.05531495462577L1056.4618133333333,318.93858188659385L1058.9453333333333,319.61656790560744L1059.2902666666666,319.99755778209123L1062.6016266666668,320.04283826575136L1062.8775733333332,318.85632800522717L1064.2573066666666,319.3146005140738L1067.5686666666668,319.97493642920233L1067.6376533333332,319.37318597098573L1069.4313066666666,320.04315102350944L1069.6382666666666,320.8897097268834L1072.5357066666666,321.0363092688998L1073.6394933333333,320.4928305747676L1076.0540266666667,320.19850139967014L1077.0888266666666,319.16222255153303L1077.64072,317.82422108127383L1077.9856533333332,319.18308503981655L1078.05464,319.7775092117561L1080.3312,320.5391166453703L1081.5039733333333,320.064351113626L1081.7109333333333,320.31598990248955L1081.9178933333333,320.81466100387166L1082.81472,320.37076195724245L1084.6773600000001,320.2958002109971L1085.91912,316.4605071041373L1086.4020266666666,317.99305222161934L1086.8849333333335,317.8751082265873L1087.98872,318.25953527286646L1088.40264,319.45090819832683L1089.85136,319.49272844408154L1090.7481866666667,319.9002685094726L1091.50704,319.57163076358154L1093.16272,320.2186456372566L1094.7494133333335,319.24252595199505L1094.9563733333332,319.98471435507156L1095.8532,319.3634723966123L1096.1291466666667,315.6548120451451L1096.5430666666666,317.40550426199917L1097.9917866666667,319.0650854627781L1098.8196266666666,319.93183034947475L1099.5094933333335,320.9441611693559L1099.57848,321.43147288073646L1100.8892266666667,320.9356878704402L1101.0961866666667,320.93395669809416L1101.64808,321.0946979934659L1101.7170666666666,319.9213954257182L1101.7860533333335,320.67428112597537L1102.1999733333334,320.82706590611497L1103.5797066666667,321.2084499547408L1103.71768,320.7835703428701L1104.95944,320.0863695693085L1107.02904,320.8803517212909L1107.236,320.77470728674183L1108.4087733333333,321.0458510215202L1109.3745866666666,320.2735184788179L1109.7885066666665,320.8603015780134L1112.1340533333334,320.9467307781984L1114.9625066666665,320.0856197962648L1116.8941333333335,319.94321174439705L1118.1358933333333,320.44882573590826" style="fill: none;" fill="none"></path></g></g></g></g><g opacity="0.2"><g><g><g><path stroke="rgb(255, 112, 67)" stroke-width="2px" d="M139.28408,149.82579162597654L140.93976,146.34044494628907L141.14672,109.38047058105468L141.90557333333334,184.98019042968753L142.94037333333333,164.99658142089842L143.14733333333334,172.6033831787109L144.52706666666666,190.87195495605468L148.73525333333333,172.31720031738283L148.94221333333334,95.41380432128904L149.56309333333334,152.29254089355467L153.84026666666668,191.54885009765624L154.18519999999998,184.56497314453122L155.63392,165.6480651855469L155.97885333333335,178.99620666503907L156.46176,-122.91641235351562L156.87568,158.00481079101564L159.29021333333333,196.31256866455078L159.42818666666665,189.01580383300782L159.98008,189.06019958496094L161.98069333333333,143.79762634277344L163.36042666666668,199.78422912597657L167.08570666666668,229.13694030761718L167.1546933333333,204.90635192871093L168.53442666666666,152.55059326171875L169.77618666666666,210.8415069580078L169.98314666666667,193.85588836669922L170.05213333333333,182.3657354736328L170.74200000000002,164.24485290527343L175.01917333333336,224.01471862792968L176.88181333333335,-94.01372314453124L177.9856,164.98135437011717L178.46850666666666,202.91689819335937L178.53749333333334,183.81121765136717L180.81405333333333,83.29137451171874L181.7798666666667,93.19123168945316L182.33176,160.37307861328125L182.67669333333333,228.65619232177733L182.81466666666668,235.25580047607423L183.64250666666666,207.81741302490235L184.33237333333332,216.5857553100586L187.29880000000003,220.57289428710936L187.85069333333334,212.38375671386717L188.40258666666668,181.72814392089845L190.19624000000002,247.05360900878907L190.81712000000002,227.11948791503906L191.09306666666666,207.9112060546875L191.23104,171.8638165283203L192.1968533333333,205.22011322021484L192.33482666666666,134.55225219726563L192.67976000000002,192.70164001464843L192.8177333333333,228.79287322998047L193.36962666666668,234.52853576660158L193.78354666666667,198.2651824951172L193.85253333333333,223.77118469238283L195.71517333333335,186.49023925781253L200.75119999999998,226.69855224609375L203.02776,203.76590515136718L203.23471999999998,202.88661712646484L204.40749333333335,174.65573913574218L205.02837333333332,165.10783447265626L205.09735999999998,260.43614730834963L205.51128,222.78910583496094L205.5802666666667,232.5682095336914L205.9252,184.78593017578126L207.16696,207.19883056640626L207.37392,132.13952270507812L207.9948,237.27389556884765L211.37514666666667,194.54905700683594L211.58210666666668,193.53364837646484L211.99602666666667,-189.93184936523437L212.40994666666666,193.86871765136718L212.75488,229.6110140991211L213.44474666666667,204.16729614257812L213.85866666666666,196.95254974365236L214.2036,229.3324118041992L217.79090666666667,228.08307678222656L218.13584,232.48072814941406L218.20482666666666,221.96556793212892L219.44658666666666,192.8124563598633L220.34341333333333,223.52909271240236L221.24024,202.70629028320315L223.86173333333335,223.1812435913086L225.0345066666667,212.37785705566407L226.41423999999998,230.61391479492187L227.31106666666668,264.23907028198244L228.82877333333334,208.70939025878909L229.03573333333333,219.96163696289062L230.00154666666668,220.7059002685547L230.27749333333333,232.71342681884767L233.58885333333333,249.4727572631836L234.00277333333332,241.396083984375L234.07176,258.04449096679684L235.58946666666665,191.9921401977539L236.41730666666666,206.07041381835938L237.10717333333332,176.92122436523437L239.17677333333336,230.57002166748046L239.93562666666665,209.87210083007812L240.48752,202.64974914550783L240.90144,206.77209411621095L243.10901333333334,248.03766540527343L243.38496,153.02327453613282L245.10962666666666,239.79688110351563L246.21341333333334,195.0318896484375L246.2824,230.90806549072266L247.31719999999999,236.23784637451172L247.59314666666668,237.05266662597654L248.76592,235.96906585693358L251.18045333333333,215.40090454101562L251.73234666666667,181.09399658203125L253.11208,212.00382202148438L254.07789333333332,224.33189941406252L254.69877333333332,192.2691192626953L255.11269333333334,195.22877014160156L255.45762666666667,189.27613037109376L255.94053333333332,236.72330749511718L256.56141333333335,217.59714294433593L257.5272266666667,176.9226416015625L257.66519999999997,221.23992645263672L257.87216,211.2726434326172L258.49304,183.68282592773434L260.4936533333333,214.76598266601562L260.90757333333335,264.1847332763672L262.5632533333333,213.42898498535155L264.01197333333334,181.07835754394532L265.25373333333334,233.7443426513672L265.87461333333334,248.18324523925781L266.77144,206.12154968261717L266.9784,248.48071655273438L267.5302933333333,224.10482025146484L270.28976,223.05730133056642L271.46253333333334,215.50187438964844L272.1524,215.18689361572265L272.35936,195.1659997558594L273.7390933333333,237.96787170410158L274.84288,245.42859100341798L276.08464,249.0374185180664L276.91248,228.58494323730469L278.08525333333336,222.58530395507813L278.4991733333333,216.11082458496094L280.15485333333334,247.8856091308594L281.05168,223.25536834716797L281.25864,250.90077117919924L281.3276266666667,224.11114013671875L281.87952,228.8297378540039L282.15546666666665,231.40163452148437L282.63837333333333,253.90634216308592L286.01872,240.53227844238282L286.29466666666667,242.877919921875L286.77757333333335,253.2752847290039L287.39845333333335,245.05374847412108L288.91616,220.33512817382814L289.1921066666667,253.04424224853517L289.744,212.331533203125L290.2958933333333,228.27114074707032L290.57184,249.87730407714844L291.95157333333333,251.85787536621095L292.2965066666667,244.24060913085935L292.36549333333335,246.61739685058592L292.71042666666665,247.42258483886718L293.5382666666667,219.64194305419923L293.74522666666667,233.32785644531248L294.09016,230.81028442382814L295.4009066666667,201.78535858154297L296.50469333333336,280.0320433044434L297.19456,203.36220703125L298.0224,246.7820022583008L299.81605333333334,257.63386734008793L300.43693333333334,251.73879455566407L302.8514666666666,222.70066040039063L302.92045333333334,257.77537673950195L303.05842666666666,245.42681121826172L306.09384,256.71445175170896L306.64573333333334,218.01349731445313L307.26661333333334,245.19791107177733L307.40458666666666,252.04298126220704L307.74951999999996,248.87600189208985L309.4741866666667,208.09624603271484L309.5431733333333,265.6301577758789L310.23303999999996,188.7916662597656L310.37101333333334,264.2061895751953L310.7159466666667,252.77819732666018L311.68176,252.1368814086914L312.09568,242.34856567382812L312.71656,240.21819580078125L313.75136,211.77685821533203L314.0273066666667,211.45702423095702L314.16528,242.55239227294922L315.8899466666667,214.8443096923828L317.40765333333337,246.97878387451172L317.8215733333333,267.34311447143557L318.9943466666667,220.12651428222657L319.4082666666667,239.55571197509767L321.20192,241.90675872802734L322.78861333333333,255.50827239990235L323.27152,208.36581756591798L323.61645333333337,232.44583282470703L324.51327999999995,247.99273406982422L324.9961866666667,242.9732537841797L327.06578666666667,234.28767150878906L328.03159999999997,250.21945129394533L330.44613333333336,257.0785578918457L330.51511999999997,245.14705535888672L330.5841066666667,212.2394869995117L336.1720266666666,275.5870092773438L336.7929066666666,262.61448486328123L337.4137866666666,259.28989151000974L337.82770666666664,265.34355880737303L339.48338666666666,251.29935241699218L342.72576000000004,250.5897866821289L343.2776533333333,237.59125762939453L345.7611733333333,264.8907806396484L346.86496,261.96315353393555L347.07192000000003,251.64008239746093L347.6238133333333,263.3332008361816L347.8307733333333,213.0361798095703L349.4864533333333,273.943299407959L349.7624,232.84983581542969L351.832,259.13657455444337L353.4186933333333,263.5231929016113L354.4534933333333,267.56171493530275L355.6952533333333,245.6720590209961L356.10917333333333,278.1722543334961L357.21296,243.7678372192383L358.45472,241.0989175415039L358.52370666666667,202.91274536132812L360.8692533333333,238.33829772949218L361.55912,258.9546739196777L361.76608,257.10463256835936L361.83506666666665,265.9213092041016L361.97303999999997,263.6054585266113L362.0420266666667,256.92100158691403L363.76669333333336,282.94446395874024L366.0432533333334,259.1993778991699L367.6299466666667,261.7539175415039L368.80271999999997,254.46165985107422L370.94130666666666,78.75962951660154L372.80394666666666,246.65815063476563L373.14887999999996,257.78370300292966L374.66658666666666,285.4907473754883L375.9773333333333,227.19597747802734L376.11530666666664,202.3649835205078L377.01213333333334,284.6389059448242L378.11591999999996,241.72370452880858L380.11653333333334,270.61598693847657L380.3234933333333,266.5548756408691L382.04816,274.25947494506835L383.84181333333333,257.9761505126953L385.0145866666666,214.56458679199218L386.39432,275.41910385131837L387.63608,264.3879830932617L387.7740533333333,258.6472366333008L387.91202666666663,258.7620245361328L388.32594666666665,260.40896438598634L390.2575733333333,271.44141998291013L391.2233866666666,267.89614974975586L395.08664,272.28864715576174L395.3625866666667,282.86832458496093L395.91448,272.86064620971683L396.12144,275.9484375L398.2600266666667,254.6478121948242L398.81192,251.57804534912108L399.7087466666667,281.03212188720704L400.05368,258.93071685791017L401.15746666666666,234.76053405761718L401.50239999999997,283.3854180908203L401.6403733333333,244.99621032714845L402.33024,262.1303997802735L402.6061866666667,281.3933647155762L404.60679999999996,257.4796481323242L405.43464,251.2476315307617L409.0219466666667,264.1703219604492L409.50485333333336,272.74650100708004L409.7808,286.4562561035156L410.5396533333334,282.77790573120114L410.95357333333334,266.3586213684082L412.8852,256.0274670410156L414.67885333333334,267.84237304687497L415.5066933333334,255.49025207519531L416.26554666666664,259.8546725463867L416.4725066666667,274.57831604003906L420.40474666666665,239.3567221069336L420.74967999999996,281.8925862121582L420.8186666666667,280.3883464050293L421.50853333333333,279.8370950317383L426.54456000000005,281.3237965393066L427.3034133333333,259.24546279907224L427.3724,238.15773193359377L427.51037333333335,262.6238287353516L427.85530666666665,290.08488578796386L427.9242933333333,278.6398722839356L429.64896,278.10991241455076L429.99389333333335,255.70605102539065L430.2008533333333,279.61752227783205L430.75274666666667,268.9504747009277L432.13248,272.57880981445317L432.33944,258.33114349365235L432.4084266666666,261.0096954345703L433.44322666666665,279.96352157592776L434.5470133333333,289.5456829833984L434.96093333333334,285.0672203063965L435.85776,281.9168605041504L435.9957333333333,263.15239196777344L436.89256,271.40607971191406L439.4450666666666,286.6461904907227L441.1007466666667,287.6687924194336L441.5836533333333,267.19860168457035L441.9975733333333,275.67447006225586L443.65325333333334,265.87470932006835L443.8602133333333,268.8444827270508L447.9304266666667,259.85859878540043L449.1032,272.0310397338867L449.1721866666667,279.7419218444824L450.55192,279.40592147827147L450.75888,294.64816635131837L451.37976,249.54871124267578L453.86328,265.19393325805663L454.07023999999996,276.25916656494144L455.1740266666667,272.31447052001954L455.31199999999995,277.3868911743164L457.31261333333333,286.57667587280275L459.24424,278.9054846191406L459.79613333333333,263.9453068542481L460.07207999999997,288.41184036254884L460.62397333333337,270.3744223022461L461.38282666666663,287.6982783508301L463.17647999999997,288.9603726196289L463.5214133333333,292.9829239654541L464.62519999999995,269.5226838684082L465.72898666666663,251.19261474609374L466.28088,290.90927856445313L466.90176,275.4951484680176L467.52264,270.63005630493166L468.28149333333334,277.4889074707031L468.35047999999995,278.5385028076172L469.17832000000004,283.6001252746582L469.31629333333336,265.88130111694335L469.52325333333334,290.0529753112793L471.9377866666666,293.6127124786377L472.76562666666666,267.95999954223635L474.0763733333333,276.3514558410645L475.6630666666666,277.55276138305663L477.0428,290.8222297668457L479.8022666666667,291.61831489562985L480.35416,284.4692578125L480.97504,277.49419326782225L481.182,287.5836305236817L481.31997333333334,287.88897079467773L484.8382933333333,279.06781585693363L485.04525333333333,277.02809967041014L486.4249866666667,259.4923503112793L486.56296,278.591925201416L486.6319466666667,270.43101287841796L487.1148533333333,261.5856536865234L488.3566133333333,278.4338456726074L490.28824,268.59384201049807L491.6679733333333,290.91850708007814L491.80594666666667,281.26847076416016L492.2198666666667,276.42743453979494L494.3584533333334,292.55016632080077L495.53122666666667,275.8728955078125L496.77298666666667,252.1334371948242L497.32488,268.368484954834L499.46346666666665,297.97425315856935L501.32610666666665,285.0940571594238L502.9128,262.7115408325195L504.9134133333333,292.37680618286134L505.67226666666664,274.6252784729004L506.7760533333333,292.8650337982178L507.7418666666667,281.2707861328125L509.19058666666666,283.65854095458985L511.95005333333336,295.05751075744627L513.46776,285.0077746582031L513.8126933333334,251.9261087036133L516.3652,275.4447871398926L517.1240533333333,274.90620849609377L517.5379733333334,294.08066619873046L518.5037866666667,286.0626351928711L518.64176,277.8418487548828L520.8493333333333,292.2395917510986L522.5050133333333,289.07979949951175L523.3328533333333,269.8758435058594L523.4708266666667,279.0449258422851L523.8847466666666,275.1754998779297L524.7125866666667,292.66521377563475L526.4372533333334,297.791322555542L528.36888,284.88836837768554L528.5068533333333,280.63981521606445L528.7828,280.7696983337402L529.8176000000001,301.51833686828616L532.6460533333334,280.167537689209L532.8530133333334,301.8447873687744L535.3365333333334,284.4350999450684L536.5093066666667,287.39508865356447L536.7162666666667,280.5857048034668L537.4061333333333,293.8414849090576L538.6478933333333,275.1188804626465L538.7168800000001,179.7257537841797L539.8896533333333,296.450858001709L540.0966133333334,287.1728091430664L542.4421600000001,288.9591284179687L542.5801333333334,292.34177902221677L543.06304,291.1678520965576L544.92568,288.9421669006348L545.54656,295.3478876495361L546.99528,287.51238967895506L548.65096,302.766771697998L548.9958933333334,279.7518589782715L549.4098133333333,295.05820289611813L551.2724533333333,298.4339691925049L552.6521866666667,300.5401368713379L552.99712,300.2495890045166L554.03192,305.040016708374L554.3768533333333,274.40517013549805L556.10152,299.5968095397949L557.3432799999999,280.62060836791994L557.6192266666667,288.23706298828125L557.96416,287.45140731811523L559.0679466666667,264.46503707885745L559.20592,289.09426849365235L560.3097066666667,300.38121482849124L560.44768,297.08619598388674L560.8616,274.4432748413086L560.9995733333333,280.2911544799805L561.9653866666666,300.4270916748047L562.2413333333334,290.95189659118654L563.8280266666667,295.84328384399413L564.4489066666666,289.2538558959961L565.7596533333334,290.95905281066894L566.5185066666667,298.7874975585937L566.65648,290.3451340484619L567.0704,295.4264144897461L567.9672266666666,289.6102084350586L569.2089866666666,268.4524644470215L571.8994666666666,298.8295058441162L573.4861599999999,289.51082473754883L573.7621066666667,300.1262070465088L573.8310933333333,300.4208686065674L574.3140000000001,295.5930489349365L575.4867733333333,296.83694984436033L576.2456266666667,296.3647547149658L577.0044800000001,295.4720503234863L577.4873866666667,302.56667358398437L577.9013066666666,280.13523376464843L579.5569866666666,194.26227264404295L583.3512533333334,299.19450393676755L583.6272,302.35440742492676L586.11072,295.9337871551514L586.1797066666667,300.70005798339844L586.4556533333333,289.42221450805664L587.8353866666667,297.7261935424805L587.9043733333333,300.91676330566406L587.97336,296.06042587280274L588.5252533333334,288.35021118164065L591.5606666666666,296.20815834045413L592.0435733333334,300.25807182312013L592.2505333333334,293.4057300567627L593.56128,298.50599487304686L597.28656,295.2211212158203L597.90744,300.5445904541016L598.0454133333333,300.0835045623779L598.32136,287.05510848999023L598.73528,288.94751037597655L598.94224,299.27395774841307L599.4251466666667,293.8253020477295L599.97704,298.0804140472412L600.184,295.82793937683107L601.01184,296.04244674682616L602.87448,300.39417182922364L603.1504266666667,295.40914604187014L603.90928,302.9506354522705L604.6681333333333,301.789902420044L609.3592266666667,304.4586614227295L610.32504,303.2842586517334L610.8769333333333,295.56057609558104L611.8427466666667,306.8968352508545L611.9117333333334,279.63325607299805L613.7053866666666,297.92042907714847L614.6712,306.45722213745114L616.3958666666666,294.4331378173828L618.39648,294.51504707336426L618.60344,294.0780335998535L620.3970933333334,295.4513397216797L621.6388533333334,297.34276931762696L621.9148,284.01590286254884L623.6394666666666,299.1020642852783L625.43312,281.21506484985355L627.2267733333333,309.2579138946533L628.2615733333333,287.741162109375L628.8134666666666,275.08569900512697L628.8824533333334,300.0650351715088L630.40016,279.79660903930665L630.6761066666666,285.29729873657226L631.64192,296.67408714294436L634.4013866666666,307.0961196899414L635.0222666666667,300.1386820220947L635.6431466666666,283.4074552917481L635.8501066666668,288.3114349365234L637.1608533333333,306.3172309112549L637.3678133333334,306.9647575378418L637.9886933333333,301.83429405212405L640.5412,297.4272081756592L641.6449866666667,309.02565296173094L642.40384,303.66572799682615L643.6456,304.98345703125L644.3354666666667,293.6665756988525L644.4044533333333,305.0321910095215L645.30128,296.5449744415283L645.6462133333333,297.83207427978516L645.7152,304.9082569885254L647.3018933333333,304.2156568908691L647.5778399999999,293.22620040893554L648.6126399999999,306.00671813964846L650.68224,280.4268424987793L651.3031199999999,296.1299796295166L651.5100799999999,308.83419834136964L651.9929866666668,293.9485274505615L652.6828533333334,299.14560104370116L652.8898133333333,299.9547420501709L653.2347466666668,299.1589638519287L653.9246133333334,307.49396450042724L655.5802933333333,285.1994682312012L656.2011733333334,300.0130382537842L657.5119199999999,308.5939860534668L658.6846933333334,301.5077096557617L662.06504,309.5138393783569L662.9618666666667,305.69753608703616L663.1688266666666,250.1474935913086L665.3764000000001,308.3118715667724L666.5491733333333,309.08979732513427L667.23904,305.85809371948244L667.5839733333333,310.19147506713864L668.3428266666667,304.6107650756836L668.7567466666667,307.62427917480466L669.2396533333333,288.51248886108397L670.4814133333333,305.5544261169434L670.8263466666667,303.35717834472655L671.17128,304.429529800415L672.41304,293.97916694641117L673.1718933333333,295.59546318054197L673.3788533333333,244.9233544921875L674.7585866666667,305.1281716918945L675.31048,309.65783409118654L676.0003466666667,288.0752261352539L676.8281866666666,307.7703636932373L678.41488,306.3267601776123L678.7598133333333,307.04791202545164L682.9680000000001,306.8737855911255L683.0369866666666,308.21099029541017L685.24456,310.8729309082031L688.2109866666666,299.15253479003906L688.76288,309.54574779510494L689.3147733333333,307.47660541534424L689.38376,308.98567474365234L691.7293066666666,302.5045747375488L692.48816,305.22316154479984L693.316,299.49258705139164L694.4887733333333,305.90324340820314L698.6279733333332,301.96453147888184L700.2836533333334,307.9546981430054L702.3532533333332,305.8938377380371L702.6292,301.79259887695315L703.5950133333333,303.7633154296875L704.7677866666667,306.0271959686279L705.1817066666666,303.66262161254883L708.0791466666666,306.95804317474364L709.1829333333334,308.48271549224853L709.9417866666666,311.5893201828003L710.5626666666666,304.2488568878174L711.11456,310.2463342666626L712.4942933333334,308.2978609085083L712.6322666666666,297.5251293182373L712.8392266666666,311.95431106567383L712.9772,310.39161231994626L713.39112,307.05933334350584L714.7708533333333,310.09574878692626L714.9778133333334,313.09244659423825L715.3227466666666,307.08280323028566L715.8056533333333,309.1815149688721L715.9436266666667,303.54322357177733L719.4619466666666,300.93877990722655L720.2207999999999,304.152013092041L720.7726933333333,310.28071872711183L722.1524266666668,307.7826625442505L722.2214133333333,310.1062627029419L722.3593866666668,288.1874185180664L723.3252,307.07946098327636L723.6011466666668,311.550555267334L724.2220266666666,295.2746507263183L724.2910133333334,305.2219132232666L724.6359466666668,310.21780208587643L724.98088,306.01150337219235L726.01568,311.5074294662476L728.1542666666666,307.4063265609741L728.9821066666667,306.4832926940918L729.4650133333333,313.1687672424316L729.8099466666667,306.1728334808349L730.77576,299.64193450927735L731.3966399999999,308.468542098999L732.43144,311.37975357055666L733.1902933333333,309.977709274292L733.6732,294.75610290527345L733.7421866666667,304.365496673584L734.3630666666667,307.154176940918L736.98456,302.0385429382324L737.5364533333334,301.01238967895506L737.6054399999999,301.2109634399414L737.8813866666667,301.76236930847165L740.0889599999999,315.4604095458984L743.3313333333333,306.8122964859009L743.60728,303.5576184082031L744.84904,309.9168824386597L745.1939733333334,310.7619456481934L746.4357333333334,308.8659120941162L746.6426933333333,307.2419199371338L748.0914133333333,305.9058966064453L748.8502666666667,310.98942237854004L750.5059466666667,308.84920291900636L750.9888533333333,312.6130777359009L752.1616266666667,314.1905081176758L752.2995999999999,313.92097675323487L752.5065599999999,309.40544551849365L753.9552799999999,313.4529025268555L754.0932533333333,308.5978062057495L754.4381866666666,309.6866979217529L755.1970399999999,307.87991523742676L756.02488,310.62583225250245L757.1976533333333,314.70097995758056L758.4394133333333,310.90889225006106L758.8533333333334,304.73707832336424L759.1982666666667,259.83199264526365L759.5432000000001,306.85162479400634L760.7849600000001,312.329619140625L760.8539466666666,313.0865932846069L762.7165866666667,314.7556949615479L763.2684800000001,298.8222898864746L763.9583466666667,304.3726075744629L764.7172,313.6412620925903L766.16592,313.45852718353274L767.40768,313.46583686828615L769.6152533333333,303.7961755371094L769.68424,315.6857702064514L770.09816,316.72590476989745L773.6854666666667,315.5799991607666L773.82344,309.68439079284667L774.5133066666666,302.3702771759033L774.9962133333332,310.1077932357788L776.8588533333333,312.9043290710449L778.3075733333333,311.66307415008544L778.99744,306.06719787597655L780.1012266666667,306.32104179382327L780.2392,315.68758192062376L780.7221066666666,312.70325660705566L782.92968,313.3116361999512L783.2746133333333,311.0623637008667L784.0334666666666,313.48938400268554L784.3784,309.46183319091796L787.3448266666667,305.6543907165527L787.5517866666667,315.4054823684692L788.93152,301.5296088409424L789.34544,313.57480545043944L789.4144266666666,301.9036459350586L791.20808,303.0765470123291L791.6909866666666,311.63132846832275L795.96816,312.4160077285767L796.0371466666667,309.6257155609131L796.6580266666666,313.8635673522949L797.1409333333334,305.43995956420895L797.3478933333333,312.1404901885986L797.8308,314.90335224151613L798.03776,314.5179741668701L799.5554666666666,312.98827972412107L800.31432,316.5328166198731L801.0731733333333,313.3047364425659L801.76304,310.6018988800049L801.9010133333334,307.85818496704104L801.97,310.83591384887694L802.17696,307.4092722702026L803.83264,300.1151431274414L804.2465599999999,311.4932447433472L805.8332533333333,311.29714084625243L806.52312,312.8830962753296L807.0750133333333,314.0924438095093L807.9028533333334,310.66849250793456L811.2832,311.8629044723511L811.3521866666667,316.14143692016603L811.90408,314.8523616027832L812.52496,316.7806671524048L814.9394933333333,311.279677734375L816.87112,312.9358059310913L817.07808,313.99821716308594L819.8375466666668,312.7206229019165L821.4932266666667,312.9850857925415L822.1830933333333,315.85265802383424L825.97736,316.5380534934998L826.8741866666667,318.2534043502808L827.6330399999999,312.22922092437744L828.8747999999999,312.2820459365845L831.3583199999999,312.8457661056518L831.7032533333334,315.781150932312L831.7722399999999,312.0738666915894L831.9102133333333,313.72059745788573L832.8760266666667,316.3611240005493L833.7038666666667,307.3722304916382L835.2905599999999,317.6108782196045L835.7044800000001,315.39910737991335L836.7392799999999,283.594658203125L837.1532,315.8519416809082L837.8430666666667,309.9437471008301L839.4987466666666,313.41718013763426L840.6715200000001,308.78863048553467L842.1892266666666,316.4474193763733L844.3278133333333,314.8162169265747L844.8107200000001,313.34789932250976L845.01768,281.4735498046875L845.5695733333333,314.68528221130373L846.6733599999999,315.36828454971317L846.9493066666666,314.9012129974365L847.2942400000001,312.88397174835205L847.4322133333333,315.59295513153074L847.5701866666667,313.3568713760376L847.7771466666667,313.2015501022339L850.19168,315.6971879196167L850.6745866666666,310.8705825805664L851.7783733333333,316.6289152336121L853.1581066666666,318.35666124343874L855.0897333333332,310.72481426239017L855.2277066666667,286.98207962036133L855.2966933333333,310.58858448028565L855.4346666666667,318.3404371833801L855.8485866666666,310.61729175567626L856.4694666666667,314.46621105194095L856.8833866666666,318.3496703338623L857.22832,317.03314893722535L859.2289333333333,315.33922657012937L860.1947466666667,313.6770751190186L860.9536,283.2899317932129L861.6434666666667,311.11708282470704L861.9194133333333,314.62252315521243L861.9884000000001,313.3739101409912L863.9200266666667,309.4105932998657L864.5409066666666,314.2751025009155L865.0928,306.7709278106689L866.1276,317.2090118980408L866.1965866666667,315.37967445373533L867.0244266666666,317.2727777481079L869.1630133333334,314.80860134124754L869.7838933333333,314.70247341156005L870.6807200000001,313.6993162536621L870.88768,313.1119068145752L870.9566666666666,313.4134475326538L871.3016,309.63378742218015L871.9224800000001,314.3066318893433L872.4743733333332,313.2790593338013L872.95728,315.62013599395755L873.0262666666666,314.10348197937014L874.19904,315.34191581726077L876.26864,317.4114475250244L876.9585066666666,317.0115103340149L879.5110133333334,317.17797431945803L880.1318933333332,312.7961133956909L880.20088,313.85069583892823L880.6148,314.47946674346923L881.7185866666666,316.8514244270325L882.2014933333334,312.50679119110106L884.13312,312.2359363174438L884.2021066666666,316.8457235527039L884.8229866666667,317.17651485443116L885.16792,320.0225077056885L885.9267733333334,312.42864028930666L886.5476533333334,315.67205669403074L887.5134666666667,315.60091884613036L888.27232,316.39074279785154L890.13496,306.0817884063721L890.34192,315.082506980896L890.9628,319.3291160774231L892.6874666666666,314.8167628097534L892.9634133333334,315.4130897140503L893.5842933333333,315.6060789871216L894.5501066666666,312.5081847381592L894.9640266666668,311.52849952697755L895.102,317.48235569000246L897.4475466666668,315.4757601928711L897.8614666666666,315.57870809555055L898.2753866666666,315.907241191864L898.41336,314.9537599182129L898.4823466666666,317.6561211204529L899.1722133333334,317.2504753303528L899.5171466666666,316.9666541862488L900.4829599999999,316.7409881401062L901.10384,310.2227140045166L902.2076266666666,316.7228828430176L903.9322933333333,310.9390116119385L905.24304,314.4460185241699L905.86392,309.37559909820556L907.10568,316.9669878959656L908.96832,316.9594232940674L910.5550133333334,315.8751664352417L910.6929866666667,319.0851613998413L910.7619733333333,314.59849296569826L914.2802933333334,311.41013454437257L914.8321866666666,315.39718185424806L915.0391466666667,317.48265644073484L915.6600266666667,317.4137026405335L916.8327999999999,310.71750972747805L918.28152,317.6840317153931L919.3163199999999,319.049277305603L920.4201066666667,319.50911024093625L921.7998399999999,316.4355386924744L922.2827466666666,317.8724391746521L922.7656533333333,312.59724918365475L923.1105866666667,319.41019929885863L925.2491733333333,318.3733245849609L925.8010666666667,316.74372064590455L925.9390400000001,319.1428308677673L928.2845866666667,319.0170804977417L928.4915466666666,317.9564186668396L929.4573600000001,315.955489025116L929.6643200000001,316.46136102676394L930.4231733333334,318.14473394393923L930.8370933333333,317.27276744842527L932.7687199999999,317.93105518341065L932.9756799999999,316.9334917831421L933.0446666666667,318.5489558029175L933.4585866666666,316.47421709060666L933.5965600000001,317.78757081985475L934.7693333333333,317.6810283279419L935.3212266666667,318.2539625930786L935.9421066666666,317.3154225540161L936.9769066666667,315.1910646057129L938.0806933333333,316.4152210235596L940.7711733333333,317.6525038719177L941.5990133333333,316.15805751800536L941.7369866666667,317.21566703796384L942.4268533333333,317.3591184425354L943.1857066666666,314.97822063446046L943.6686133333333,318.9702555656433L944.15152,316.67765796661376L944.2894933333333,315.7044090270996L945.4622666666667,314.3101770401001L946.7730133333333,316.48221170425415L949.2565333333333,317.2377196884155L949.9464,320.94708086013793L951.1191733333333,317.4894557762146L951.5330933333332,319.335971031189L952.1539733333333,319.20325653076173L954.2235733333334,317.8317580032349L955.8102666666666,309.89168117523195L955.8792533333333,318.402576713562L957.1210133333333,318.0517036056518L959.05264,316.2161374282837L959.3975733333334,319.31918306350707L960.2944,318.9165592002869L960.3633866666667,316.60075693130494L961.2602133333332,318.1138287162781L961.8121066666666,320.09339707374573L962.15704,317.59143808364865L962.2950133333333,318.77499006271364L962.364,310.97710704803467L963.7437333333332,318.1705717277527L964.0886666666667,319.66888561248777L965.05448,320.377329454422L965.7443466666666,312.59775077819825L966.08928,320.3478002643585L966.5721866666667,320.7447945785523L967.8829333333334,315.8052233505249L968.7107733333333,315.9074523353577L971.1253066666666,313.448772354126L971.7461866666666,318.3736732292175L975.0575466666667,318.51582017898556L975.40248,319.9367365837097L976.43728,319.6663390159607L977.1961333333334,314.49484725952146L977.47208,317.3608853530884L978.5758666666666,317.13194194793704L979.4726933333334,316.6594826316833L980.8524266666666,317.8185821342468L981.4733066666666,319.448299369812L982.0252,319.2029444503784L983.4049333333334,320.2927721500397L984.5087199999999,319.7275106334686L985.8884533333334,317.91753787994384L986.0954133333333,318.23536394119265L987.1992,318.77113180160524L988.3029866666666,311.99852451324466L989.06184,318.4156099319458L993.2010399999999,318.3761451530456L993.82192,312.1521545791626L993.8909066666668,320.22915358543395L995.9605066666666,319.2959917831421L997.2712533333333,314.51151832580564L997.4782133333333,320.2579383659363L998.99592,320.5784827709198L1002.0313333333334,317.48408603668213L1003.4800533333333,319.8974237251282L1003.8939733333333,303.75565864562986L1004.0319466666667,319.93751626968384L1005.4806666666667,318.67958513259885L1006.9983733333333,317.504081325531L1008.9989866666667,320.44298709869383L1012.1723733333333,320.1598328590393L1013.2761599999999,318.58287729263304L1014.1039999999999,305.65128845214844L1018.1742133333333,318.77508069992064L1019.2779999999999,320.66105815887454L1021.4165866666667,320.5156008911133L1021.9684799999999,317.1409603500366L1023.4172000000001,319.5783946609497L1025.1418666666666,319.7693404769897L1025.4868,318.4092349433899L1026.3836266666667,321.12557770729063L1027.2804533333333,320.5272122383118L1027.6943733333333,319.0841309165954L1030.5918133333334,319.3579783630371L1030.6607999999999,319.1069241142273L1031.0057333333334,319.7670181560516L1032.0405333333333,320.0328089332581L1034.1101333333334,319.1251612472534L1036.04176,316.7442958831787L1037.2145333333333,320.19254593849183L1039.0771733333333,319.4670298576355L1039.14616,320.4026463317871L1039.6980533333333,319.81451102256773L1040.5258933333334,320.51384350776675L1040.7328533333334,320.4256455230713L1041.3537333333334,321.3333725166321L1042.3885333333333,321.85559436321256L1042.66448,318.01185361862184L1042.8024533333332,320.33035079956056L1043.8372533333334,319.7080527305603L1045.0790133333333,306.42579986572264L1046.3207733333334,320.24929332733154L1047.3555733333333,321.30506770133974L1048.0454399999999,321.14562758445743L1048.2523999999999,319.07852222442625L1049.08024,318.55539516448977L1049.1492266666667,318.97429355621335L1049.4251733333333,319.1962269973755L1051.3568,320.8191093635559L1053.1504533333334,320.2980682468414L1055.4270133333332,318.4660711669922L1055.7719466666667,321.0673072528839L1056.4618133333333,317.2634822845459L1058.9453333333333,320.6335469341278L1059.2902666666666,320.569042596817L1062.6016266666668,320.1107589912415L1062.8775733333332,317.07656261444095L1064.2573066666666,320.00200927734375L1067.5686666666668,320.9654403018951L1067.6376533333332,318.4705602836609L1069.4313066666666,321.04809860229494L1069.6382666666666,322.1595477819443L1072.5357066666666,321.25620858192445L1073.6394933333333,319.67761253356935L1076.0540266666667,319.75700763702395L1077.0888266666666,317.6078042793274L1077.64072,315.81721887588503L1077.9856533333332,321.2213809776306L1078.05464,320.6691454696655L1080.3312,321.6815277957916L1081.5039733333333,319.35220281600954L1081.7109333333333,320.6934480857849L1081.9178933333333,321.56266765594484L1082.81472,319.7049133872986L1084.6773600000001,320.18335759162903L1085.91912,310.70756744384767L1086.4020266666666,320.2918698978424L1086.8849333333335,317.6981922340393L1087.98872,318.8361758422852L1088.40264,321.23796758651736L1089.85136,319.55545881271365L1090.7481866666667,320.5115786075592L1091.50704,319.07867414474487L1093.16272,321.18916794776914L1094.7494133333335,317.7783464241028L1094.9563733333332,321.09799695968627L1095.8532,318.43160945892333L1096.1291466666667,310.09182151794437L1096.5430666666666,320.0315425872803L1097.9917866666667,321.5544572639465L1098.8196266666666,321.23194767951964L1099.5094933333335,322.46265739917754L1099.57848,322.1624404478073L1100.8892266666667,320.1920103549957L1101.0961866666667,320.9313599395752L1101.64808,321.33580993652345L1101.7170666666666,318.16144157409667L1101.7860533333335,321.8036096763611L1102.1999733333334,321.05624307632445L1103.5797066666667,321.78052602767946L1103.71768,320.14625092506407L1104.95944,319.04056840896607L1107.02904,322.0713249492645L1107.236,320.6162406349182L1108.4087733333333,321.45256662368774L1109.3745866666666,319.1150196647644L1109.7885066666665,321.74047622680666L1112.1340533333334,321.07637457847596L1114.9625066666665,318.79395332336424L1116.8941333333335,319.72959966659545L1118.1358933333333,321.20724672317505" style="fill: none;" fill="none"></path></g></g></g></g></g><g><g opacity="0.0886461"><span style="white-space: normal;" fill="rgb(0, 0, 0)" stroke="none" stroke-width="1px">Alt + Scroll to Zoom</span></g></g></g><g transform="translate(40, 378)" clip-path="url(#clip_1)"><clipPath id="clip_1"><rect width="1241" height="21"></rect></clipPath><g><g><line x1="0" y1="0" x2="0" y2="5" style="visibility: inherit;" fill="rgb(0, 0, 0)" stroke="rgb(204, 204, 204)" stroke-width="1px"></line><line x1="137.97333333333333" y1="0" x2="137.97333333333333" y2="5" style="visibility: inherit;" fill="rgb(0, 0, 0)" stroke="rgb(204, 204, 204)" stroke-width="1px"></line><line x1="275.94666666666666" y1="0" x2="275.94666666666666" y2="5" style="visibility: inherit;" fill="rgb(0, 0, 0)" stroke="rgb(204, 204, 204)" stroke-width="1px"></line><line x1="413.91999999999996" y1="0" x2="413.91999999999996" y2="5" style="visibility: inherit;" fill="rgb(0, 0, 0)" stroke="rgb(204, 204, 204)" stroke-width="1px"></line><line x1="551.8933333333333" y1="0" x2="551.8933333333333" y2="5" style="visibility: inherit;" fill="rgb(0, 0, 0)" stroke="rgb(204, 204, 204)" stroke-width="1px"></line><line x1="689.8666666666667" y1="0" x2="689.8666666666667" y2="5" style="visibility: inherit;" fill="rgb(0, 0, 0)" stroke="rgb(204, 204, 204)" stroke-width="1px"></line><line x1="827.8399999999999" y1="0" x2="827.8399999999999" y2="5" style="visibility: inherit;" fill="rgb(0, 0, 0)" stroke="rgb(204, 204, 204)" stroke-width="1px"></line><line x1="965.8133333333334" y1="0" x2="965.8133333333334" y2="5" style="visibility: inherit;" fill="rgb(0, 0, 0)" stroke="rgb(204, 204, 204)" stroke-width="1px"></line><line x1="1103.7866666666666" y1="0" x2="1103.7866666666666" y2="5" style="visibility: inherit;" fill="rgb(0, 0, 0)" stroke="rgb(204, 204, 204)" stroke-width="1px"></line><line x1="1241.76" y1="0" x2="1241.76" y2="5" style="visibility: inherit;" fill="rgb(0, 0, 0)" stroke="rgb(204, 204, 204)" stroke-width="1px"></line></g><g transform="translate(0, 8)"><text x="0" y="0" dx="0em" dy="0.95em" style="text-anchor: middle; visibility: hidden; font-family: &quot;Helvetica Neue&quot;, sans-serif; font-size: 12px; font-weight: 200;" fill="rgb(50, 49, 63)" stroke="none" stroke-width="1px">-2k</text><text x="137.97333333333333" y="0" dx="0em" dy="0.95em" style="text-anchor: middle; visibility: inherit; font-family: &quot;Helvetica Neue&quot;, sans-serif; font-size: 12px; font-weight: 200;" fill="rgb(50, 49, 63)" stroke="none" stroke-width="1px">0</text><text x="275.94666666666666" y="0" dx="0em" dy="0.95em" style="text-anchor: middle; visibility: inherit; font-family: &quot;Helvetica Neue&quot;, sans-serif; font-size: 12px; font-weight: 200;" fill="rgb(50, 49, 63)" stroke="none" stroke-width="1px">2k</text><text x="413.91999999999996" y="0" dx="0em" dy="0.95em" style="text-anchor: middle; visibility: inherit; font-family: &quot;Helvetica Neue&quot;, sans-serif; font-size: 12px; font-weight: 200;" fill="rgb(50, 49, 63)" stroke="none" stroke-width="1px">4k</text><text x="551.8933333333333" y="0" dx="0em" dy="0.95em" style="text-anchor: middle; visibility: inherit; font-family: &quot;Helvetica Neue&quot;, sans-serif; font-size: 12px; font-weight: 200;" fill="rgb(50, 49, 63)" stroke="none" stroke-width="1px">6k</text><text x="689.8666666666667" y="0" dx="0em" dy="0.95em" style="text-anchor: middle; visibility: inherit; font-family: &quot;Helvetica Neue&quot;, sans-serif; font-size: 12px; font-weight: 200;" fill="rgb(50, 49, 63)" stroke="none" stroke-width="1px">8k</text><text x="827.8399999999999" y="0" dx="0em" dy="0.95em" style="text-anchor: middle; visibility: inherit; font-family: &quot;Helvetica Neue&quot;, sans-serif; font-size: 12px; font-weight: 200;" fill="rgb(50, 49, 63)" stroke="none" stroke-width="1px">10k</text><text x="965.8133333333334" y="0" dx="0em" dy="0.95em" style="text-anchor: middle; visibility: inherit; font-family: &quot;Helvetica Neue&quot;, sans-serif; font-size: 12px; font-weight: 200;" fill="rgb(50, 49, 63)" stroke="none" stroke-width="1px">12k</text><text x="1103.7866666666666" y="0" dx="0em" dy="0.95em" style="text-anchor: middle; visibility: inherit; font-family: &quot;Helvetica Neue&quot;, sans-serif; font-size: 12px; font-weight: 200;" fill="rgb(50, 49, 63)" stroke="none" stroke-width="1px">14k</text><text x="1241.76" y="0" dx="0em" dy="0.95em" style="text-anchor: middle; visibility: hidden; font-family: &quot;Helvetica Neue&quot;, sans-serif; font-size: 12px; font-weight: 200;" fill="rgb(50, 49, 63)" stroke="none" stroke-width="1px">16k</text></g><line x1="0" y1="0" x2="1241.76" y2="0" fill="rgb(0, 0, 0)" stroke="rgb(204, 204, 204)" stroke-width="1px"></line></g></g></g></g></svg>