<svg viewBox="0 0 922.5 400" xmlns="http://www.w3.org/2000/svg"><g><g><g><g><g><line x1="51.4375" y1="378" x2="46.4375" y2="378" style="visibility: inherit;" fill="rgb(0, 0, 0)" stroke="rgb(204, 204, 204)" stroke-width="1px"></line><line x1="51.4375" y1="336" x2="46.4375" y2="336" style="visibility: inherit;" fill="rgb(0, 0, 0)" stroke="rgb(204, 204, 204)" stroke-width="1px"></line><line x1="51.4375" y1="294" x2="46.4375" y2="294" style="visibility: inherit;" fill="rgb(0, 0, 0)" stroke="rgb(204, 204, 204)" stroke-width="1px"></line><line x1="51.4375" y1="252" x2="46.4375" y2="252" style="visibility: inherit;" fill="rgb(0, 0, 0)" stroke="rgb(204, 204, 204)" stroke-width="1px"></line><line x1="51.4375" y1="210" x2="46.4375" y2="210" style="visibility: inherit;" fill="rgb(0, 0, 0)" stroke="rgb(204, 204, 204)" stroke-width="1px"></line><line x1="51.4375" y1="168" x2="46.4375" y2="168" style="visibility: inherit;" fill="rgb(0, 0, 0)" stroke="rgb(204, 204, 204)" stroke-width="1px"></line><line x1="51.4375" y1="126" x2="46.4375" y2="126" style="visibility: inherit;" fill="rgb(0, 0, 0)" stroke="rgb(204, 204, 204)" stroke-width="1px"></line><line x1="51.4375" y1="84" x2="46.4375" y2="84" style="visibility: inherit;" fill="rgb(0, 0, 0)" stroke="rgb(204, 204, 204)" stroke-width="1px"></line><line x1="51.4375" y1="42" x2="46.4375" y2="42" style="visibility: inherit;" fill="rgb(0, 0, 0)" stroke="rgb(204, 204, 204)" stroke-width="1px"></line><line x1="51.4375" y1="0" x2="46.4375" y2="0" style="visibility: inherit;" fill="rgb(0, 0, 0)" stroke="rgb(204, 204, 204)" stroke-width="1px"></line></g><g transform="translate(41.4375, 0)"><text x="0" y="378" dx="0em" dy="0.3em" style="text-anchor: end; visibility: hidden; font-family: &quot;Helvetica Neue&quot;, sans-serif; font-size: 12px; font-weight: 200;" fill="rgb(50, 49, 63)" stroke="none" stroke-width="1px">-0.5</text><text x="0" y="336" dx="0em" dy="0.3em" style="text-anchor: end; visibility: inherit; font-family: &quot;Helvetica Neue&quot;, sans-serif; font-size: 12px; font-weight: 200;" fill="rgb(50, 49, 63)" stroke="none" stroke-width="1px">0</text><text x="0" y="294" dx="0em" dy="0.3em" style="text-anchor: end; visibility: inherit; font-family: &quot;Helvetica Neue&quot;, sans-serif; font-size: 12px; font-weight: 200;" fill="rgb(50, 49, 63)" stroke="none" stroke-width="1px">0.5</text><text x="0" y="252" dx="0em" dy="0.3em" style="text-anchor: end; visibility: inherit; font-family: &quot;Helvetica Neue&quot;, sans-serif; font-size: 12px; font-weight: 200;" fill="rgb(50, 49, 63)" stroke="none" stroke-width="1px">1</text><text x="0" y="210" dx="0em" dy="0.3em" style="text-anchor: end; visibility: inherit; font-family: &quot;Helvetica Neue&quot;, sans-serif; font-size: 12px; font-weight: 200;" fill="rgb(50, 49, 63)" stroke="none" stroke-width="1px">1.5</text><text x="0" y="168" dx="0em" dy="0.3em" style="text-anchor: end; visibility: inherit; font-family: &quot;Helvetica Neue&quot;, sans-serif; font-size: 12px; font-weight: 200;" fill="rgb(50, 49, 63)" stroke="none" stroke-width="1px">2</text><text x="0" y="126" dx="0em" dy="0.3em" style="text-anchor: end; visibility: inherit; font-family: &quot;Helvetica Neue&quot;, sans-serif; font-size: 12px; font-weight: 200;" fill="rgb(50, 49, 63)" stroke="none" stroke-width="1px">2.5</text><text x="0" y="84" dx="0em" dy="0.3em" style="text-anchor: end; visibility: inherit; font-family: &quot;Helvetica Neue&quot;, sans-serif; font-size: 12px; font-weight: 200;" fill="rgb(50, 49, 63)" stroke="none" stroke-width="1px">3</text><text x="0" y="42" dx="0em" dy="0.3em" style="text-anchor: end; visibility: inherit; font-family: &quot;Helvetica Neue&quot;, sans-serif; font-size: 12px; font-weight: 200;" fill="rgb(50, 49, 63)" stroke="none" stroke-width="1px">3.5</text><text x="0" y="0" dx="0em" dy="0.3em" style="text-anchor: end; visibility: hidden; font-family: &quot;Helvetica Neue&quot;, sans-serif; font-size: 12px; font-weight: 200;" fill="rgb(50, 49, 63)" stroke="none" stroke-width="1px">4</text></g><line x1="51.4375" y1="0" x2="51.4375" y2="378" fill="rgb(0, 0, 0)" stroke="rgb(204, 204, 204)" stroke-width="1px"></line></g></g><g transform="translate(51, 0)" clip-path="url(#clip_0)"><clipPath id="clip_0"><rect width="871" height="378"></rect></clipPath><g><g><g><line x1="0" y1="0" x2="0" y2="378" fill="rgb(0, 0, 0)" stroke="rgb(60, 60, 60)" stroke-width="1px" opacity="0.25"></line><line x1="72.58854166666666" y1="0" x2="72.58854166666666" y2="378" fill="rgb(0, 0, 0)" stroke="rgb(60, 60, 60)" stroke-width="1px" opacity="0.25"></line><line x1="145.17708333333331" y1="0" x2="145.17708333333331" y2="378" fill="rgb(0, 0, 0)" stroke="rgb(60, 60, 60)" stroke-width="1px" opacity="0.25"></line><line x1="217.765625" y1="0" x2="217.765625" y2="378" fill="rgb(0, 0, 0)" stroke="rgb(60, 60, 60)" stroke-width="1px" opacity="0.25"></line><line x1="290.35416666666663" y1="0" x2="290.35416666666663" y2="378" fill="rgb(0, 0, 0)" stroke="rgb(60, 60, 60)" stroke-width="1px" opacity="0.25"></line><line x1="362.94270833333337" y1="0" x2="362.94270833333337" y2="378" fill="rgb(0, 0, 0)" stroke="rgb(60, 60, 60)" stroke-width="1px" opacity="0.25"></line><line x1="435.53125" y1="0" x2="435.53125" y2="378" fill="rgb(0, 0, 0)" stroke="rgb(60, 60, 60)" stroke-width="1px" opacity="0.25"></line><line x1="508.1197916666667" y1="0" x2="508.1197916666667" y2="378" fill="rgb(0, 0, 0)" stroke="rgb(60, 60, 60)" stroke-width="1px" opacity="0.25"></line><line x1="580.7083333333333" y1="0" x2="580.7083333333333" y2="378" fill="rgb(0, 0, 0)" stroke="rgb(60, 60, 60)" stroke-width="1px" opacity="0.25"></line><line x1="653.296875" y1="0" x2="653.296875" y2="378" fill="rgb(0, 0, 0)" stroke="rgb(60, 60, 60)" stroke-width="1px" opacity="0.25"></line><line x1="725.8854166666667" y1="0" x2="725.8854166666667" y2="378" fill="rgb(0, 0, 0)" stroke="rgb(60, 60, 60)" stroke-width="1px" opacity="0.25"></line><line x1="798.4739583333333" y1="0" x2="798.4739583333333" y2="378" fill="rgb(0, 0, 0)" stroke="rgb(60, 60, 60)" stroke-width="1px" opacity="0.25"></line><line x1="871.0625" y1="0" x2="871.0625" y2="378" fill="rgb(0, 0, 0)" stroke="rgb(60, 60, 60)" stroke-width="1px" opacity="0.25"></line></g><g><line x1="0" y1="378" x2="871.0625" y2="378" fill="rgb(0, 0, 0)" stroke="rgb(60, 60, 60)" stroke-width="1px" opacity="0.25"></line><line x1="0" y1="336" x2="871.0625" y2="336" fill="rgb(0, 0, 0)" stroke="rgb(60, 60, 60)" stroke-width="1px" opacity="0.25"></line><line x1="0" y1="294" x2="871.0625" y2="294" fill="rgb(0, 0, 0)" stroke="rgb(60, 60, 60)" stroke-width="1px" opacity="0.25"></line><line x1="0" y1="252" x2="871.0625" y2="252" fill="rgb(0, 0, 0)" stroke="rgb(60, 60, 60)" stroke-width="1px" opacity="0.25"></line><line x1="0" y1="210" x2="871.0625" y2="210" fill="rgb(0, 0, 0)" stroke="rgb(60, 60, 60)" stroke-width="1px" opacity="0.25"></line><line x1="0" y1="168" x2="871.0625" y2="168" fill="rgb(0, 0, 0)" stroke="rgb(60, 60, 60)" stroke-width="1px" opacity="0.25"></line><line x1="0" y1="126" x2="871.0625" y2="126" fill="rgb(0, 0, 0)" stroke="rgb(60, 60, 60)" stroke-width="1px" opacity="0.25"></line><line x1="0" y1="84" x2="871.0625" y2="84" fill="rgb(0, 0, 0)" stroke="rgb(60, 60, 60)" stroke-width="1px" opacity="0.25"></line><line x1="0" y1="42" x2="871.0625" y2="42" fill="rgb(0, 0, 0)" stroke="rgb(60, 60, 60)" stroke-width="1px" opacity="0.25"></line><line x1="0" y1="0" x2="871.0625" y2="0" fill="rgb(0, 0, 0)" stroke="rgb(60, 60, 60)" stroke-width="1px" opacity="0.25"></line></g></g></g><g><g><line x1="0" y1="336" x2="871.0625" y2="336" fill="rgb(0, 0, 0)" stroke="rgb(153, 153, 153)" stroke-width="1.5px"></line></g></g><g><g><line x1="72.58854166666666" y1="0" x2="72.58854166666666" y2="378" fill="rgb(0, 0, 0)" stroke="rgb(153, 153, 153)" stroke-width="1.5px"></line></g></g><g><g><g><g><g><path stroke="rgb(255, 112, 67)" stroke-width="2px" d="M81.226578125,84.94526195526123L82.968703125,154.0899540781975L83.18646875,151.70715175356185L83.98494270833334,151.97607898887466L85.07377083333333,168.5067469956228L85.29153645833333,150.70238314804277L86.74330729166667,170.21587852109406L90.00979166666667,191.22108456266213L90.22755729166667,198.18928196485749L90.88085416666667,189.54824103771716L92.04227083333333,187.30271300550604L95.38134375,210.2733458745978L94.58286979166667,218.22159804266175L96.10722916666667,201.52864446932224L96.470171875,211.90482736224803L96.97829166666668,220.2650831615774L97.41382291666667,227.96258690464438L99.95442187500001,215.35256388882914L100.09959895833333,212.989785811718L100.68030729166667,217.66339832636987L102.20466666666667,225.0080097989547L102.78537499999999,240.12598894224377L103.07572916666666,249.61638362681916L106.99551041666668,235.7581491387877L107.06809895833332,237.58627914877752L108.51986979166666,249.94615579097527L108.73763541666668,249.05702457292975L109.82646354166666,249.221609559184L110.04422916666665,255.06535390552187L108.95540104166666,257.71035493397426L109.68128645833335,258.36399123388384L111.06046875,261.4294646635612L112.584828125,254.08888248050744L114.18177604166667,254.24313185325855L116.14166666666667,259.6703123412385L117.30308333333332,260.09327398747484L116.64978645833332,260.3264089778205L116.72237500000001,263.28025225038266L119.11779687500001,262.2174112012247L120.13403645833333,269.2411990265716L120.64215625000001,256.8923850020469L120.71474479166667,254.60048074377755L120.85992187500001,263.39213630723395L121.07768750000001,256.7507908163929L121.22286458333333,254.74996618121713L122.09392708333333,242.57448723055396L122.81981249999998,248.56789141997757L124.77970312499998,249.00095232788738L125.36041145833333,256.59388594914185L125.94111979166668,258.9444814985508L127.53806770833333,269.7420777122016L127.82842187499999,272.6295672678933L128.48171875,267.9805104031473L128.77207291666667,261.84968071545376L128.91725,262.08235519746086L129.93348958333334,265.230171594735L130.07866666666666,263.57465080840313L130.44160937499998,264.9347440029559L130.58678645833334,259.65508697184146L130.87714062499998,257.36118191332935L131.16749479166668,251.4637153735834L131.60302604166665,262.83764151281605L131.67561458333333,266.09848639694746L132.183734375,260.083911021518L132.47408854166665,262.4956286907002L134.86951041666666,263.43349276541494L135.81316145833335,268.783950296395L137.627875,269.3947654529529L137.77305208333334,269.69706549430595L138.35376041666666,262.86433104386754L139.00705729166665,263.15302779502167L139.22482291666665,261.0148671759754L140.458828125,262.49180366358695L141.112125,261.4293889150711L141.18471354166667,264.0980097261484L141.62024479166666,263.2542123679766L141.6928333333333,260.28985432889755L142.05577604166666,266.74742133680996L143.36236979166665,264.64083599605567L143.58013541666668,269.9558971855546L144.23343229166667,269.6319876750412L146.62885416666666,268.33686110020295L146.84661979166665,264.9355902471579L147.28215104166668,268.733996760752L147.71768229166668,272.89716990703715L148.080625,276.9859272951744L148.80651041666667,270.9644864270009L149.24204166666667,276.5208951871942L149.60498437500002,273.4247862006039L150.33086979166666,274.0319636049754L153.37958854166666,279.99536548750916L152.58111458333335,267.0547882240851L152.653703125,268.5292494488859L153.96029687499998,265.9070401783647L154.90394791666668,265.71113465999736L155.84759895833332,274.79544481501085L158.60596354166668,270.4917662672109L159.622203125,272.3202408630792L159.83996875,272.9197648333993L160.13032291666664,271.35919093891897L160.56585416666667,264.4818775165374L161.07397395833334,261.04937250067564L162.670921875,261.8390034595118L162.8886875,269.8874427174918L163.68716145833335,274.10262172790715L163.90492708333335,278.2755144201061L164.12269270833335,275.79637630953437L164.19528125,274.76196189030435L167.67953125,270.9561415392424L168.1150625,277.093802015678L167.026234375,275.42121164840216L168.62318229166667,272.1694243958101L169.49424479166666,276.6903032428327L170.22013020833333,268.7167642096462L172.39778645833331,268.32893900750764L173.19626041666666,271.6632874767702L173.77696875,270.3084719634486L174.2125,276.72429817059236L175.37391666666667,272.3291085311091L175.66427083333332,266.2218145220468L177.47898437499998,269.33279479080375L178.64040104166668,274.4731127532359L178.71298958333333,271.3016536779425L179.80181770833335,265.3129731027616L180.092171875,271.14447445919114L181.2535885416667,267.0682499602437L181.32617708333333,273.03697687357663L182.48759375,278.69187730532883L182.705359375,274.50742517699L183.28606770833335,271.3881985830617L184.7378385416667,266.85168040319394L185.754078125,273.53549545123644L186.407375,267.7006946630148L186.69772916666665,278.6233202115815L186.84290625,275.5744798359943L186.98808333333335,283.21454788313343L187.20584895833335,274.24122434297817L187.71396875,281.82376731300127L188.367265625,282.9288657955156L189.38350520833333,277.9506802828208L189.52868229166666,272.43520576185557L189.74644791666665,277.97301939980133L188.94797395833334,276.0880630246159L189.16573958333333,274.74323316999414L189.238328125,273.8515402590522L190.69009895833335,281.19852200241615L191.34339583333335,275.799454540561L191.77892708333334,277.88205576571846L192.35963541666666,274.75892630000726L193.01293229166666,276.96565069425L193.52105208333333,279.76830662290985L195.04541145833335,281.6385840714022L196.06165104166666,283.83394599795605L196.3520052083333,287.8369816353337L197.00530208333333,290.01566239657495L196.78753645833334,287.525142410174L197.00530208333333,284.1419166915268L197.44083333333333,283.5759626980215L197.58601041666665,278.4741357776874L200.48955208333334,276.0400860198351L201.72355729166668,275.12694839763714L202.44944270833332,273.90294087009477L202.66720833333332,278.4365147356799L204.11897916666666,276.37940418747723L203.97380208333334,272.8670643569688L204.11897916666666,275.13190205107094L205.42557291666668,277.03149194246504L205.71592708333333,278.41107913688404L206.29663541666667,279.816174440596L207.530640625,281.3133527356467L207.966171875,278.74258298385627L209.708296875,277.2525882882386L210.65194791666667,281.3567018605774L210.86971354166667,282.56962938889893L210.94230208333335,274.77417681089065L211.23265625,275.62749179286374L211.52301041666666,282.7756466870464L210.65194791666667,279.6259314540003L211.16006770833334,278.81259824770535L212.24889583333334,271.8699325677028L214.71690625,278.25785774923986L215.00726041666667,278.2084919627763L215.51538020833334,281.113658619896L216.16867708333334,281.7872601705643L217.765625,283.9977027629526L217.91080208333332,281.8048136743731L218.05597916666667,278.9485049076573L218.6366875,280.1046778576193L218.05597916666667,281.96722279886114L218.34633333333332,286.9542535477859L219.7981041666667,283.82215826117886L220.16104687499998,280.3647448086971L220.2336354166667,279.7576427378794L220.3788125,278.4373769711578L220.59657812499998,277.22375392622496L221.46764062499997,274.4241408330604L221.68540625,275.5909634961131L222.04834895833335,282.04470012983336L223.42753125000002,285.0314672374764L224.1534166666667,283.4327609767937L224.58894791666668,279.3152259487166L225.02447916666668,283.5049635111245L225.31483333333333,279.8280021392675L226.18589583333332,278.9357852961643L226.91178125000002,277.7616188064827L227.56507812499999,280.86965944383223L230.10567708333332,282.86971923121024L230.178265625,284.6824680591119L230.32344270833335,284.05146253254964L232.35592187499998,284.3694959887681L232.93663020833336,279.06051328234776L233.58992708333332,284.3161352780634L233.73510416666664,283.7794079963669L234.098046875,279.2563081851187L235.91276041666666,274.64267183962954L235.9853489583333,276.04722305311856L236.711234375,278.51920735939797L236.8564114583333,284.7612758881119L237.21935416666665,280.72894914187594L238.23559375000002,275.3519219829893L238.67112500000002,279.67228428567984L239.32442187499998,277.57805395153486L240.41325000000003,280.63605508820604L240.70360416666665,281.78890090952154L239.68736458333333,283.0775719986548L241.502078125,285.09684456027685L243.0990260416667,283.7209189691373L243.5345572916667,285.86931285609177L244.76856250000003,286.9620750030838L245.20409374999997,284.6980266142465L247.09139583333334,283.3280158739434L247.599515625,280.46156477338945L248.10763541666665,283.8299607718401L248.470578125,278.7042039563902L249.41422916666667,279.71134264055775L249.92234895833332,279.1666616367333L251.01117708333334,282.0309687952419L251.88223958333336,282.7176816761625L252.10000520833333,282.2316995322783L253.1162447916667,284.5937711155462L254.49542708333334,287.1500428054361L254.56801562500002,284.4424497326391L254.64060416666666,287.2099363350974L257.0360260416667,284.2668910231654L260.52027604166665,280.39226189890286L261.17357291666667,285.68154253744353L261.82686979166664,285.6919470678763L262.26240104166664,289.396339181125L262.62534375,287.80791793051947L262.84310937500004,285.20200959315054L266.25477083333334,279.0482233492741L266.8354791666667,281.6390126304751L268.505015625,278.64108227234635L269.44866666666667,281.32126635635825L269.44866666666667,279.01478187039453L269.66643229166664,281.2944656836686L270.24714062500004,281.0106881038962L270.46490625,287.04030978540294L272.20703125,285.897692798732L272.4973854166667,285.6380442375888L272.6425625,287.85040676563676L274.6750416666667,289.3998173473459L276.344578125,284.52995045174254L276.2719895833333,288.0503393124884L277.5785833333333,287.89433646865757L278.0141145833333,291.9223744909052L279.17553125,285.8424080395749L280.482125,290.1268019785911L280.5547135416667,287.47383213701426L283.02272395833336,286.1411075631534L283.748609375,285.0122503304335L283.966375,286.6399860777767L284.03896354166665,288.12953512658544L284.184140625,289.39576774114295L284.2567291666667,287.97183984085274L284.9100260416667,281.68145481088374L287.30544791666665,285.4386017759956L287.88615625,285.97611167671187L288.90239583333334,288.2513839402312L288.97498437499996,283.5826101302215L290.20898958333333,280.538868999428L291.2978177083333,284.07428174969345L292.023703125,282.4758728370475L293.2577083333333,287.7631506935005L293.6206510416667,287.77314863295817L295.2175989583333,284.55255752617995L295.7983072916667,280.9707158435278L296.59678125000005,287.1620520608957L296.74195833333334,287.47623590572687L297.250078125,290.0659507032872L297.685609375,294.5730728099728L298.6292604166667,292.6768689507237L297.685609375,289.99126140797085L298.9196145833333,288.0631192715403L299.7906770833333,290.9094771499298L300.0084427083333,285.8269328567303L301.82315624999995,282.16489760237437L302.25868749999995,289.6273958692402L303.71045833333335,293.7734903818041L304.94446354166666,295.5394102767509L305.2348177083333,293.94240942212355L306.5414114583333,284.4529669202114L306.6865885416667,284.1294964263883L306.831765625,286.75708685577195L307.04953125,289.88935595905946L307.267296875,290.1793809780846L308.50130208333337,285.44674763973774L309.29977604166663,286.4263611906542L310.31601562500003,279.3503778143986L312.6388489583333,278.55044675852446L313.21955729166666,288.6091785966491L313.5099114583333,284.754777463623L314.09061979166665,287.38750564595944L314.3083854166667,288.3380053254419L316.55863020833334,287.9047641403945L317.13933854166663,291.7799594669027L318.0829895833333,289.9680340450098L318.4459322916667,292.5732243157083L319.6073489583333,290.6625093040856L319.9702916666667,284.11632520067644L320.11546875,282.9754341966388L319.6799375,284.69996073999863L319.9702916666667,292.8041221806935L322.075359375,294.3464242285211L322.4383020833333,295.30127342138996L322.946421875,295.21234936472365L326.7210260416667,298.5845746693408L327.2291458333333,291.4320836840508L327.5195,286.4723308073543L327.1565572916667,288.3203491680063L327.59208854166667,292.8159182734631L328.02761979166667,292.2356977383698L329.62456770833336,292.7595920515302L330.785984375,292.54520158483047L331.43928125,296.760443428239L331.51186979166664,289.4810492867713L332.3829322916667,290.09612430778054L333.18140625,292.01051310090367L333.399171875,295.9019221030959L336.37530208333334,296.5987700678878L336.73824479166666,293.78874087679225L336.81083333333333,291.77503094880484L337.53671875000003,282.72119084482614L341.674265625,282.8844133823229L342.47273958333335,288.61559866721115L342.54532812499997,288.5708936623018L342.6905052083334,281.4935548169184L342.83568229166667,281.7998338140707L343.05344791666664,286.6190677879847L343.1260364583334,290.3762151002047L344.94075000000004,286.4942065000032L345.3036927083333,287.91315655228465L345.5214583333333,284.6249565381823L346.1021666666667,286.9341458856474L347.5539375,286.62564008113213L347.771703125,290.2534536402015L347.84429166666666,287.19109462979964L348.9331197916667,289.0523032622548L348.9331197916667,288.3398236916668L349.3686510416667,293.9129729560737L349.6590052083333,291.4195089514091L350.31230208333335,295.1428510770222L350.45747916666664,291.7889160409582L351.4011302083333,290.41807103723363L352.19960416666663,288.48313937526984L354.08690624999997,288.36800271238116L354.740203125,288.3929962990595L355.82903124999996,288.1541081355759L356.3371510416667,285.19411531011747L356.7726822916667,282.97775639844235L355.9016197916667,286.9342402801054L357.35339062500003,286.39551654965504L357.57115625,292.6090173692156L360.619875,288.5532834989219L361.85388020833335,293.8286658085817L363.08788541666667,294.167247721996L363.16047395833334,290.72263380852104L363.37823958333337,293.15246770958163L363.450828125,289.8057180296186L363.66859374999996,283.25351147954484L364.32189062500004,278.55447238150134L365.12036458333336,283.2958508101874L366.935078125,291.7095963816508L367.15284375,291.97414411667967L367.9513177083333,292.99365414121144L368.16908333333333,298.24506948553557L368.3142604166667,293.00697869159603L368.4594375,292.95068017302646L370.56450520833334,295.8526625136059L371.43556770833334,291.4250438391877L372.01627604166663,294.33407665370186L372.30663020833333,297.2493689124482L372.8873385416667,298.2125162640033L373.6858125,290.0198120807897L375.57311458333334,294.0594075522L375.93605729166666,290.6873616219267L377.09747395833335,290.32151779179003L378.1863020833333,285.7505400696053L378.25889062500005,287.1656981300505L377.67818229166664,289.66216711945486L378.11371354166664,282.9645338341424L378.33147916666667,286.8327238252657L378.98477604166663,276.3082550341426L379.27513020833334,280.07008943405975L379.78325,286.5955447760059L379.8558385416667,286.0296767000457L380.2913697916667,290.1260587837756L380.7269010416667,291.6016389171159L380.87207812500003,295.8989983344004L381.08984375,291.0169902291254L383.63044270833336,294.24630148687095L384.50150520833336,291.7140162436851L385.8806875,292.40286386303234L386.38880729166664,294.6398186462648L387.840578125,296.441976343246L389.58270312499997,292.2787243572781L390.74411979166666,290.69144621180953L391.324828125,284.3189666192976L391.97812500000003,291.17797035701557L392.195890625,289.9358127279728L392.34106770833336,292.4431853868752L392.41365625000003,294.2109761582726L394.88166666666666,295.952573081667L395.0994322916667,298.6070951109021L395.6075520833333,291.59499456196363L396.551203125,289.6560184580644L396.6963802083334,292.0374782814121L396.76896875,295.6533141096554L397.27708854166667,295.31501855612527L398.58368229166666,293.2181988129659L399.45474479166666,291.3977382880237L400.906515625,287.2096855105034L401.0516927083333,287.6922641909761L401.4872239583333,288.22102581957836L403.3745260416667,291.8508492678395L403.73746875,292.56041800796936L404.9714739583333,290.8783586729762L406.2780677083333,284.8237906401871L406.85877604166666,292.94384985599027L407.9476041666667,298.25433901210494L409.9074947916667,298.2770661071531L411.57703125,294.4806832525487L413.6820989583333,293.8796075375888L414.4805729166667,290.15076819610675L414.4805729166667,291.9389058563237L415.4968125,292.01968497116115L415.5694010416667,290.9069896821901L417.021171875,287.8780481031373L419.9247135416666,288.84502925937386L421.5216614583333,289.1783671764434L421.8846041666667,286.97427351402644L423.40896354166665,288.89964198546056L423.9170833333334,287.3819060294416L424.20743749999997,291.77113008311903L424.64296874999997,293.0728322971554L425.07849999999996,294.2428511803562L425.65920833333337,296.0683281436691L425.80438541666666,295.58445067495876L427.54651041666665,295.4566906648324L428.12721875,295.93200623735464L428.7079270833333,296.1693326696436L429.57898958333334,297.51045322803736L429.7241666666667,291.0376499199157L430.1596979166667,294.0986722769311L431.0307604166667,292.16590769660297L431.393703125,297.4732934926261L432.11958854166664,295.6437270339912L432.84547395833334,296.19591477492963L434.87795312500003,293.5824677644939L435.0231302083333,295.5906095802051L435.31348437500003,292.866606348709L436.4023125,292.24937188265073L438.21702604166666,295.2946614482245L438.4347916666666,296.6362145935441L439.7413854166667,297.2117273446884L441.04797916666666,299.5367879174332L442.28198437500004,299.3939335883963L442.49975,301.9543286169355L442.8626927083333,300.3433123591414L443.2256354166667,294.8363800622744L443.3708125,298.3280911789967L443.4434010416667,297.9429873196264L444.67740624999993,299.9327608804691L444.895171875,297.4746412313454L445.40329166666663,296.52032741764026L447.36318229166665,301.0179312757184L447.50835937500005,299.58497446367323L448.01647916666667,301.89738045685993L449.9763697916666,295.0410238895029L450.62966666666665,291.0732399936444L450.1941354166667,289.1996613690809L450.99260937500003,295.46887900528645L451.35555208333335,297.7282924300273L452.734734375,297.09369733606815L453.09767708333334,298.2136355082693L453.24285416666663,296.7868060493769L453.5332083333334,294.1558913841427L455.49309895833335,287.7990202697862L456.94486979166663,291.5556509848087L457.3078125,296.71123053763205L458.396640625,299.5450563081139L457.59816666666666,300.68024838257037L457.8159322916666,298.9756471412671L459.4128802083333,296.19702110870435L460.71947395833337,299.78168398251387L461.009828125,298.5876244432345L461.3727708333333,302.02667234698623L462.53418750000003,303.8995346448403L462.6793645833333,297.4511037481774L463.84078124999996,295.3954945929616L463.9859583333333,294.0117892103058L464.42148958333337,294.25650780657895L464.56666666666666,298.54374414241295L464.71184374999996,298.16402238342755L465.58290624999995,298.0887111767148L464.71184374999996,298.8427463498125L466.3813802083333,298.4127737597471L467.03467708333335,298.89162549470933L467.2524427083333,299.0285595959131L468.41385937499996,298.20682119761136L469.2123333333333,299.42605433126823L469.3575104166667,297.93354898250425L469.7930416666667,299.73119619820307L470.73669270833335,298.03347632487885L472.0432864583334,294.10357616663146L473.7128229166666,295.5077722449313L475.38235937499996,298.3401855694777L475.67271354166667,298.30691166326557L475.74530208333334,294.2371540284464L476.25342187499996,294.0440631995385L477.48742708333333,291.8798968011013L478.2859010416667,289.40016498648356L479.084375,295.5885092644884L479.59249479166664,294.1158080237504L480.0280260416667,296.98245735987405L480.608734375,290.4716644526981L484.6011041666667,296.8127643729128L484.89145833333333,290.76730168252453L485.83510937499994,296.127242448266L486.9239375,290.2157943977926L487.5046458333333,291.5080803831824L486.41581770833335,292.35773071053075L486.706171875,294.8138635182527L487.43205729166664,299.1932018294422L488.15794270833334,294.07535551157525L488.23053125,298.36856459478696L488.30311979166663,297.464378350378L488.88382812500004,301.7215498884922L490.3355989583333,303.34680885078944L492.0777239583333,298.60633474589844L492.58584375,299.2897455096332L492.80360937499995,296.6197558522276L493.52949479166665,295.2790424037011L494.1827916666667,290.36063299226953L494.40055729166664,291.24760643034097L493.9650260416667,295.9637036763961L494.32796875,294.9083842541775L496.94115625,297.7046586099864L497.59445312500003,300.0987677230597L497.7396302083333,300.24045222128393L498.02998437499997,300.18137951567746L498.465515625,294.7177232019602L498.68328125,296.1585232682525L499.1914010416666,293.8085498969256L499.77210937499996,296.5948167896569L499.989875,296.8655909214198L500.57058333333333,298.20186330758213L500.8609375,300.1353826158206L501.6594114583333,299.8857673426247L501.94976562500005,299.14695932983017L502.7482395833334,300.6507180840889L503.54671354166663,299.2726387686205L504.4177760416666,295.0172303978605L507.39390625000004,295.8936166086199L508.482734375,300.71695557346357L508.33755729166666,303.59717525905614L508.91826562500006,304.34631436983494L509.93450520833335,295.9265164012894L510.00709375,300.3532804653159L511.89439583333336,296.45341382057137L512.9106354166667,300.2137489416043L514.7253489583334,301.1639057694578L515.669,300.22832688681507L515.8867656250001,301.15899701709884L517.6288906249999,300.92693908092576L517.7740677083334,299.0641087953877L519.0806614583333,295.6004170098681L519.3710156249999,298.6456723403203L521.1857291666668,301.71005145259306L521.6938489583333,297.479834410832L522.6374999999999,299.0188195307765L523.07303125,292.3849074601956L523.7989166666667,296.920860943784L524.8877447916667,296.93947230433804L525.468453125,298.760067049595L525.5410416666667,300.9260239028527L527.1379895833333,300.8461452140566L527.4283437500001,301.8237247833107L528.4445833333333,302.5902666311558L529.3156458333334,301.8047647035776L529.388234375,301.7557302210723L529.8963541666666,301.27318500840636L530.91259375,301.9201058826683L530.1867083333334,302.54215561639296L530.8400052083334,301.3983320432367L531.4933020833333,301.67809205278525L531.6384791666666,301.6876093210266L531.7110677083334,300.2139073170117L533.09025,298.8356581185396L533.3080156249999,300.4993924411616L533.9613125,299.8527732916165L536.6470885416667,303.8444854871922L537.8085052083333,299.06135084965786L537.4455624999999,294.40090772353983L538.7521562500001,291.42858908679113L539.4780416666666,291.8503364926936L539.5506302083332,294.10897489824066L539.9861614583333,296.6863574769388L540.4942812500001,289.08381327308956L540.7846354166667,288.0902636070117L540.8572239583333,292.4831528674999L540.9298125,293.86109461852544L542.5267604166667,289.74399785082716L542.5993489583334,289.0459151976179L542.889703125,288.003431839518L543.6881770833334,292.938322760327L543.9785312500001,296.4125213966747L544.9947708333334,298.7685878483045L545.6480677083333,291.93891521737504L545.8658333333334,292.63415792253926L546.373953125,300.0599015394885L547.0998385416667,301.83152693748707L547.1724270833333,298.15436564827104L547.3176041666667,295.3686510738381L547.680546875,294.14560642341667L548.4064322916668,297.9399827390903L549.7130260416667,300.76967859685385L550.1485572916667,295.67617979299996L550.2211458333334,295.8630405822514L550.8018541666667,299.9089099740456L552.1810364583333,298.64650536629387L552.253625,304.1829693380167L555.8104635416666,304.11557422060787L556.7541145833334,299.2039729236306L556.9718802083333,304.27396866552476L559.222125,297.05495422406466L559.2947135416666,303.1839959223477L559.3673020833334,306.3499392747526L560.0931875,299.6347900914934L560.4561302083333,300.77329382227583L561.2546041666667,302.45183406428526L561.6901354166667,298.81148034427184L562.1982552083333,297.11410435493957L563.5048489583334,299.56595011029344L563.8677916666667,302.1788330285174L564.0855572916666,301.33406497290264L564.230734375,301.90123272687515L565.2469739583333,296.46104994267415L565.537328125,297.3139116695535L566.3358020833333,301.3575787026293L566.5535677083333,303.1495618032579L566.8439218750001,298.39913802189614L567.4246302083333,298.222354488629L568.150515625,300.433238599931L569.021578125,301.9997975911109L570.6911145833334,299.9841686776524L571.0540572916666,301.8136526042965L572.2880625,304.5422708090989L574.3205416666667,296.85231837611485L574.3931302083333,301.1323989449804L574.6834843749999,294.58344088905244L576.7159635416667,294.10941016026254L579.8372708333333,295.4998992165799L580.4179791666667,293.50714663749187L580.9986875000001,293.5274661784485L581.0712760416667,298.380356812782L582.3778697916666,301.33041116255936L583.17634375,298.13339951430805L584.04740625,294.60661098238853L584.265171875,292.6048348717512L584.700703125,299.3343746168984L585.2814114583334,299.4113469304784L588.4753072916667,301.46846953524016L588.9834270833334,305.1775433986954L590.2174322916667,301.107569931124L590.7255520833334,297.88408999334234L592.3950885416667,298.58833311015644L592.6854427083333,300.54452189215584L593.7016822916667,300.1629028344665L594.9356875000001,299.86820926812374L595.37121875,301.32555736629416L596.3148697916666,300.0775568337932L596.6052239583333,296.4145052344617L597.2585208333334,298.83934750026566L598.4199375000001,300.8308455816871L599.2184114583333,304.59084018897806L599.8717083333333,303.43133087653996L600.4524166666666,306.1891729575341L601.9041874999999,303.0618809069362L602.0493645833334,302.2875762942533L602.2671302083334,300.8157535173357L602.4123072916667,295.07329963313697L602.8478385416668,301.93559660117126L602.557484375,304.8159992074984L603.1381927083333,298.19613514995683L603.3559583333333,300.01012050304473L603.7189010416668,295.63981568332713L604.2270208333333,297.1964540691149L604.3721979166667,300.7850082046373L608.0742135416666,297.21366420546667L608.8726875,301.4822478721112L609.4533958333333,303.0682766216737L610.6148125,303.65443023310553L610.9051666666667,296.5526080147413L609.8163385416666,297.653043938636L609.9615156250001,301.6702621656413L610.9777552083334,296.6161518977735L611.268109375,295.1214852861555L611.92140625,298.3578066189284L611.9939947916666,301.6717903708932L612.3569375,303.42582078549367L612.6472916666667,306.70123784406843L612.7198802083334,300.48352842726626L613.8087083333334,299.04950440644217L616.058953125,296.2343560023248L616.930015625,294.21576008576983L617.4381354166667,297.1951777540376L617.801078125,296.2923295261103L617.6559010416667,292.6945179320358L618.3091979166667,295.9850090990652L619.3980260416666,299.5028711706513L620.1965,301.68617685735904L620.7046197916667,297.32592635214735L620.7772083333333,300.52584474599604L621.4305052083333,301.1856477815881L624.1888697916667,299.3066524361953L624.4066354166666,304.44510892006065L624.5518125,303.92794820649806L624.7695781250001,306.02113836397757L624.8421666666667,304.2183632933499L625.1325208333334,303.69052134057296L626.2939375,302.92290464699516L627.3101770833333,305.7411002615705L629.7055989583333,304.15362250206556L629.9959531249999,302.0131787502628L631.302546875,302.6814304854787L631.6654895833333,304.5728709141205L631.5929010416667,300.85095745562256L631.8106666666667,302.71327260874955L632.0284322916667,304.711512301822L633.5527916666667,305.82160762218206L634.351265625,304.38077146570424L635.3675052083333,302.6924815580877L636.093390625,301.1215859654923L636.3111562500001,304.58437707444307L636.6015104166667,300.20075098526644L637.835515625,297.7832357397805L637.9806927083333,302.76609146065294L638.1984583333334,301.561476585071L639.7228177083334,304.58423230457345L639.8679947916667,305.01939724330924L639.0695208333334,303.5116152670671L639.8679947916667,307.56224140564734L640.448703125,305.3761562886246L640.7390572916667,306.6327652682309L641.9730625,308.72839020189315L643.27965625,310.9176659971277L643.7151875,303.35443184314965L644.0781302083334,306.3578268381286L644.4410729166667,300.9568932349878L644.6588385416667,294.6282770809768L645.7476666666666,291.6287371264242L645.8202552083333,294.71675586380616L646.6187291666666,298.91518821524414L647.1994375,301.4217346561362L647.9253229166667,305.81070018127025L648.7237968750001,306.3919173736242L650.2481562500001,297.2615201865952L651.55475,302.706061243732L653.8775833333334,297.2694665191884L653.950171875,298.9487489460895L654.385703125,300.46671860212024L656.998890625,300.7792931127187L657.1440677083333,302.01737054155086L657.8699531249999,299.6165325639595L658.3780729166667,302.32282261836224L660.3379635416667,306.35093338959035L660.70090625,305.8732152442492L661.4267916666666,302.5567683494304L662.5882083333333,305.0628495762476L662.7333854166667,306.21590083537865L662.8785625,307.2437533002995L663.2415052083333,308.1296338237466L665.5643385416666,302.97783246023306L665.92728125,298.7899501704147L666.7257552083333,304.73493306535306L666.79834375,306.1642537158598L667.0886979166667,307.64914684545215L669.0485885416666,305.9374861064626L669.2663541666667,304.16842828649715L670.718125,302.95573045288586L671.1536562499999,303.7749004928771L671.2262447916667,307.5375998835864L673.113546875,310.1575929654301L673.6216666666667,308.88632480696805L674.1297864583333,301.3373024487255L676.9607395833333,304.3968631281709L677.033328125,307.76949485863776L677.686625,307.917202858481L678.1947447916666,309.8785904814918L678.4125104166667,307.8368170124363L678.9206302083334,305.5029642022891L679.1383958333333,304.91497317774554L680.517578125,301.98560423745784L680.73534375,304.1404399102573L681.5338177083333,306.0196855083492L682.3322916666666,307.867760039293L683.0581770833334,306.2864103418131L683.2033541666667,299.15500774988766L683.2759427083333,302.1314207017972L683.4937083333333,295.2348184168669L684.0744166666667,294.954478715678L684.4373593749999,297.2349677889466L684.5099479166668,299.9801285272193L684.8003020833333,304.8929579261155L686.1794843749999,300.81423439998696L686.9053697916667,303.4492998505787L687.4860781250001,305.02593014151785L688.357140625,300.10710252231917L690.099265625,302.84973800722696L690.7525625000001,303.03202879753076L690.8251510416667,301.9776590128324L691.2606822916666,296.4772314703215L691.405859375,299.83056848500667L692.05915625,299.30671358856256L694.5997552083334,299.280343155579L696.6322343749999,300.8768805626131L696.85,304.6299026944099L697.067765625,302.81882992612475L697.7210625,300.29701990620583L698.592125,301.2001887961405L700.33425,299.8132662775622L701.0601354166666,294.4676556588713L705.0525052083333,301.0110091210308L704.3266197916666,301.889203777367L704.6169739583333,305.97820944217096L704.8347395833333,305.73662792818095L705.6332135416667,305.0088786314508L706.9398072916666,305.2605185050119L707.3027500000001,305.89673850168873L709.5529947916666,308.77718122738656L709.9159374999999,308.7200144764069L709.9885260416667,302.83527211167115L710.133703125,303.1001794565779L711.004765625,305.79622665816913L711.1499427083334,302.972425554838L712.0210052083333,301.80765500941646L711.5854739583333,302.57069429921376L712.5291249999999,301.8808263848261L712.8920677083333,302.61837624967313L712.96465625,302.7940973249687L714.0534843749999,307.1860573177107L714.489015625,308.3958281925063L715.2149010416667,307.8855863243783L716.9570260416666,307.0469770807293L718.19103125,307.6638865696351L718.7717395833333,308.92640849512577L719.7879791666667,304.56614597178555L720.8768072916666,306.55766935072575L721.3849270833334,304.42462503267666L721.6026927083334,303.23268763633575L722.1834010416666,300.2186534906149L723.3448177083334,303.5686888518763L723.635171875,303.20227316754057L723.9981145833334,304.60050017676946L724.1432916666666,301.4236842575204L724.28846875,298.6783835758288L724.506234375,301.31959003624434L727.0468333333333,298.3146013880796L726.3935364583333,302.5694397726671L726.90165625,305.163122107924L727.554953125,306.3525580944663L729.0067239583333,309.873252557638L731.0392031250001,307.4878933947818L731.1843802083333,306.5415895296059L731.25696875,304.35424577670824L731.4021458333333,304.60222069905717L731.8376770833333,304.9378680735023L732.12803125,306.09902212316933L732.4909739583334,303.10309065160243L732.9265052083333,305.03797266946486L733.2894479166666,304.98620723525437L733.87015625,304.98532289767115L734.2330989583334,306.02482077183635L735.2493385416666,300.5642360490698L736.0478125,301.4319813991868L736.7736979166666,301.40010728509924L737.0640520833333,301.4808802966577L737.1366406249999,305.2909535625161L739.1691197916667,298.8558980499852L739.8224166666668,300.7555453226059L740.4031249999999,305.92917334110075L741.491953125,307.86088606757244L741.5645416666667,304.888818151011L741.2741874999999,301.6611044205749L743.5244322916667,304.9826272366955L744.1777291666666,299.98339424362865L745.1213802083333,303.7937880148356L745.3391458333333,306.62321194349914L745.411734375,305.83187976085657L745.7746770833334,307.2688291466446L746.4279739583334,304.0581331966049L747.0086822916667,301.6216388653354L747.5168020833333,302.74872241679645L747.589390625,303.32819529929054L748.460453125,301.0679641995328L748.8233958333334,296.74826238355024L749.4766927083334,297.93470233560197L749.8396354166666,300.9731025331056L750.2751666666667,304.4182485361597L750.5655208333334,303.89445841429836L753.251296875,306.18897335599786L753.8320052083333,307.4686727575715L753.90459375,305.87350974394417L753.9771822916667,299.22521859355885L754.4127135416667,304.8341855403669L755.5741302083333,304.4069782374434L756.0096614583333,306.6019653009255L756.08225,298.3882781223583L756.9533125,301.7418735239582L757.0259010416667,298.74728165946465L757.6791979166667,303.05806452561654L758.042140625,305.5558119209363L758.8406145833333,301.86267330597366L759.4939114583333,304.1054729601772L760.5101510416666,303.9415834892411L761.308625,303.3004757016074L763.268515625,305.6879545837147L762.3248645833334,307.8275899403991L762.9781614583334,308.59910442314754L764.792875,309.07596703697567L765.0832291666667,309.3498399992545L765.7365260416667,306.4872226679182L766.7527656249999,308.2572050549898L767.188296875,309.8688679491468L767.3334739583333,311.439881846606L769.8014843750001,312.4564935477372L770.237015625,308.9271879262802L770.45478125,308.7217327634738L769.5111302083333,305.9546191144136L769.6563072916667,307.8566851286976L769.7288958333334,307.195255975061L770.45478125,307.39393814810114L770.8177239583333,307.21811433081626L771.8339635416667,307.3790904250431L772.4872604166667,308.2448772648983L773.3583229166667,306.3766702210911L773.6486770833334,295.32742930626915L775.463390625,293.6008080552581L776.8425729166667,298.1201994365789L777.4958697916667,302.2683524576627L777.641046875,303.564126174915L778.947640625,306.1713809497763L779.6009375,306.67500626609376L781.2704739583334,308.1953254912237L781.4156510416667,308.85049145066375L781.4882395833333,309.9953815975406L784.0288385416667,307.5378652118813L784.6095468750001,304.554735404442L784.8273125000001,303.6840481175126L785.4806093750001,302.7436068185056L786.7146145833333,300.79872365760116L788.2389739583334,304.7344389198262L789.3278020833334,306.3821010731482L790.48921875,307.0682411755814L791.9409895833334,307.0722413400229L791.2876927083333,307.41882822152473L791.7958125,309.30407908699806L792.1587552083333,310.04826180423436L794.409,307.99743356874666L794.9897083333333,305.08416446787766L795.1348854166667,307.2665603205123L797.6028958333333,308.0254712131357L797.8206614583333,304.9632142082891L798.8369010416667,305.26018055057773L798.982078125,307.5358189092651L799.0546666666667,308.0494007197961L798.6917239583333,309.90331415700587L799.1272552083333,308.3804703972797L801.159734375,306.10403602254746L801.3775,308.4025489862702L801.4500885416667,307.8329799876178L801.8856197916666,309.4327326241472L802.030796875,303.84063451429245L803.2648020833334,306.20494947993774L803.8455104166666,306.399036801839L804.4988072916666,304.2311722260619L805.5876354166667,307.1426199806872L806.7490520833334,306.1264314015593L806.8942291666667,301.50969396590506" style="fill: none;" fill="none"></path></g></g></g></g><g opacity="0.2"><g><g><g><path stroke="rgb(255, 112, 67)" stroke-width="2px" d="M81.226578125,84.94526195526123L82.968703125,195.57676935195923L83.18646875,149.41966152191162L83.98494270833334,152.2923374176025L85.07377083333333,190.08918714523315L85.29153645833333,126.07253837585446L86.74330729166667,198.1204891204834L90.00979166666667,221.84687662124634L90.22755729166667,208.46601963043213L90.88085416666667,176.7173023223877L92.04227083333333,183.95478773117065L95.38134375,244.60429000854492L94.58286979166667,230.1180238723755L96.10722916666667,176.52191734313965L96.470171875,227.45690488815308L96.97829166666668,232.79957056045532L97.41382291666667,239.50558519363403L99.95442187500001,196.44073104858398L100.09959895833333,209.44597864151L100.68030729166667,224.6733899116516L102.20466666666667,236.02452421188354L102.78537499999999,262.80246019363403L103.07572916666666,263.8517882823944L106.99551041666668,214.97096157073975L107.06809895833332,240.32846117019653L108.51986979166666,268.48591804504395L108.73763541666668,247.72333002090454L109.82646354166666,249.46848678588867L110.04422916666665,263.83096504211426L108.95540104166666,261.677855014801L109.68128645833335,259.34444546699524L111.06046875,266.02767419815063L112.584828125,243.07801008224487L114.18177604166667,254.47450590133667L116.14166666666667,267.8110828399658L117.30308333333332,260.72771644592285L116.64978645833332,260.67611145973206L116.72237500000001,267.7110171318054L119.11779687500001,260.6231496334076L120.13403645833333,279.7768807411194L120.64215625000001,238.36916399002075L120.71474479166667,251.16262435913086L120.85992187500001,276.5796196460724L121.07768750000001,246.7887725830078L121.22286458333333,251.7487292289734L122.09392708333333,224.31126880645752L122.81981249999998,257.55799770355225L124.77970312499998,249.65054368972778L125.36041145833333,267.9832863807678L125.94111979166668,262.4703748226166L127.53806770833333,285.938472032547L127.82842187499999,276.9608016014099L128.48171875,261.0069251060486L128.77207291666667,252.65343618392944L128.91725,262.4313669204712L129.93348958333334,269.9518961906433L130.07866666666666,261.09136962890625L130.44160937499998,266.97488379478455L130.58678645833334,251.7356014251709L130.87714062499998,253.92032432556152L131.16749479166668,242.61751556396484L131.60302604166665,279.89853072166443L131.67561458333333,270.98975372314453L132.183734375,251.06204795837402L132.47408854166665,266.11320519447327L134.86951041666666,264.8402888774872L135.81316145833335,276.809636592865L137.627875,270.3109881877899L137.77305208333334,270.15051555633545L138.35376041666666,252.61522936820984L139.00705729166665,263.58607292175293L139.22482291666665,257.807626247406L140.458828125,264.7072083950043L141.112125,259.83576679229736L141.18471354166667,268.1009409427643L141.62024479166666,261.988516330719L141.6928333333333,255.84331727027893L142.05577604166666,276.4337718486786L143.36236979166665,261.4809579849243L143.58013541666668,277.92848896980286L144.23343229166667,269.14612340927124L146.62885416666666,266.39417123794556L146.84661979166665,259.83368396759033L147.28215104166668,274.4316065311432L147.71768229166668,279.14192962646484L148.080625,283.11906337738037L148.80651041666667,261.9323251247406L149.24204166666667,284.85550832748413L149.60498437500002,268.7806227207184L150.33086979166666,274.9427297115326L153.37958854166666,288.9404683113098L152.58111458333335,247.64392232894897L152.653703125,270.74094128608704L153.96029687499998,261.973726272583L154.90394791666668,265.4172763824463L155.84759895833332,288.4219100475311L158.60596354166668,264.03624844551086L159.622203125,275.0629527568817L159.83996875,273.8190507888794L160.13032291666664,269.0183300971985L160.56585416666667,254.1659073829651L161.07397395833334,255.90061497688293L162.670921875,263.0234498977661L162.8886875,281.96010160446167L163.68716145833335,280.4253902435303L163.90492708333335,284.53485345840454L164.12269270833335,272.07766914367676L164.19528125,273.21034026145935L167.67953125,265.24741101264954L168.1150625,286.3002927303314L167.026234375,272.9123260974884L168.62318229166667,267.291743516922L169.49424479166666,283.4716215133667L170.22013020833333,256.75645565986633L172.39778645833331,267.7472012042999L173.19626041666666,276.66481018066406L173.77696875,268.2762486934662L174.2125,286.348037481308L175.37391666666667,265.73632407188416L175.66427083333332,257.06087350845337L177.47898437499998,273.9992651939392L178.64040104166668,282.18358969688416L178.71298958333333,266.54446506500244L179.80181770833335,256.32995223999023L180.092171875,279.89172649383545L181.2535885416667,260.9539132118225L181.32617708333333,281.99006724357605L182.48759375,287.17422795295715L182.705359375,268.2307469844818L183.28606770833335,266.7093586921692L184.7378385416667,260.04690313339233L185.754078125,283.56121802330017L186.407375,258.9484934806824L186.69772916666665,295.00725853443146L186.84290625,271.0012192726135L186.98808333333335,294.67464995384216L187.20584895833335,260.78123903274536L187.71396875,293.1975817680359L188.367265625,284.5865135192871L189.38350520833333,270.4834020137787L189.52868229166666,264.1619939804077L189.74644791666665,286.27973985671997L188.94797395833334,273.26062846183777L189.16573958333333,272.7259883880615L189.238328125,272.51400089263916L190.69009895833335,292.21899461746216L191.34339583333335,267.7008533477783L191.77892708333334,281.0059576034546L192.35963541666666,270.07423210144043L193.01293229166666,280.275737285614L193.52105208333333,283.97229051589966L195.04541145833335,284.4440002441406L196.06165104166666,287.12698888778687L196.3520052083333,293.84153509140015L197.00530208333333,293.2836835384369L196.78753645833334,283.7893624305725L197.00530208333333,279.0670781135559L197.44083333333333,282.7270317077637L197.58601041666665,270.8213953971863L200.48955208333334,272.38901138305664L201.72355729166668,273.7572419643402L202.44944270833332,272.0669295787811L202.66720833333332,285.2368755340576L204.11897916666666,273.29373836517334L203.97380208333334,267.59855461120605L204.11897916666666,278.5291585922241L205.42557291666668,279.8808767795563L205.71592708333333,280.4804599285126L206.29663541666667,281.92381739616394L207.530640625,283.55912017822266L207.966171875,274.88642835617065L209.708296875,275.017596244812L210.65194791666667,287.5128722190857L210.86971354166667,284.3890206813812L210.94230208333335,263.0809979438782L211.23265625,276.90746426582336L211.52301041666666,293.4978790283203L210.65194791666667,274.90135860443115L211.16006770833334,277.59259843826294L212.24889583333334,261.455934047699L214.71690625,287.8397455215454L215.00726041666667,278.13444328308105L215.51538020833334,285.47140860557556L216.16867708333334,282.7976624965668L217.765625,287.31336665153503L217.91080208333332,278.5154800415039L218.05597916666667,274.6640417575836L218.6366875,281.83893728256226L218.05597916666667,284.7610402107239L218.34633333333332,294.4347996711731L219.7981041666667,279.1240153312683L220.16104687499998,275.17862462997437L220.2336354166667,278.84698963165283L220.3788125,276.45697832107544L220.59657812499998,275.4033193588257L221.46764062499997,270.2247211933136L221.68540625,277.34119749069214L222.04834895833335,291.7253050804138L223.42753125000002,289.51161789894104L224.1534166666667,281.03470158576965L224.58894791666668,273.13892340660095L225.02447916666668,289.7895698547363L225.31483333333333,274.31256008148193L226.18589583333332,277.5974600315094L226.91178125000002,276.00036907196045L227.56507812499999,285.53172039985657L230.10567708333332,285.8698089122772L230.178265625,287.40159130096436L230.32344270833335,283.1049542427063L232.35592187499998,284.8465461730957L232.93663020833336,271.0970392227173L233.58992708333332,292.19956827163696L233.73510416666664,282.974317073822L234.098046875,272.47165846824646L235.91276041666666,267.7222173213959L235.9853489583333,278.15404987335205L236.711234375,282.22718381881714L236.8564114583333,294.12437868118286L237.21935416666665,274.680459022522L238.23559375000002,267.2863812446594L238.67112500000002,286.1528277397156L239.32442187499998,274.4367084503174L240.41325000000003,285.2230567932129L240.70360416666665,283.51816964149475L239.68736458333333,285.01057863235474L241.502078125,288.12575340270996L243.0990260416667,281.657030582428L243.5345572916667,289.09190368652344L244.76856250000003,288.6012182235718L245.20409374999997,281.3019540309906L247.09139583333334,281.27299976348877L247.599515625,276.1618881225586L248.10763541666665,288.882554769516L248.470578125,271.01556873321533L249.41422916666667,281.2220506668091L249.92234895833332,278.3496401309967L251.01117708333334,286.32742953300476L251.88223958333336,283.74775099754333L252.10000520833333,281.502726316452L253.1162447916667,288.136878490448L254.49542708333334,290.984450340271L254.56801562500002,280.3810601234436L254.64060416666666,291.3611662387848L257.0360260416667,279.85232305526733L260.52027604166665,274.58031821250916L261.17357291666667,293.6154634952545L261.82686979166664,285.7075538635254L262.26240104166664,294.9529273509979L262.62534375,285.4252860546112L262.84310937500004,281.29314708709717L266.25477083333334,269.8175439834595L266.8354791666667,285.5251965522766L268.505015625,274.1441867351532L269.44866666666667,285.3415424823761L269.44866666666667,275.555055141449L269.66643229166664,284.7139914035797L270.24714062500004,280.58502173423767L270.46490625,296.08474230766296L272.20703125,284.1837673187256L272.4973854166667,285.248571395874L272.6425625,291.16895055770874L274.6750416666667,291.72393321990967L276.344578125,277.2251501083374L276.2719895833333,293.3309226036072L277.5785833333333,287.6603322029114L278.0141145833333,297.96443152427673L279.17553125,276.72245836257935L280.482125,296.5533928871155L280.5547135416667,283.49437737464905L283.02272395833336,284.14202070236206L283.748609375,283.31896448135376L283.966375,289.0815896987915L284.03896354166665,290.3638586997986L284.184140625,291.2951166629791L284.2567291666667,285.8359479904175L284.9100260416667,272.2458772659302L287.30544791666665,291.07432222366333L287.88615625,286.78237652778625L288.90239583333334,291.66429233551025L288.97498437499996,276.5794494152069L290.20898958333333,275.9732573032379L291.2978177083333,289.37740087509155L292.023703125,280.0782594680786L293.2577083333333,295.69406747817993L293.6206510416667,287.7881455421448L295.2175989583333,279.7216708660126L295.7983072916667,275.59795331954956L296.59678125000005,296.44905638694763L296.74195833333334,287.94751167297363L297.250078125,293.9505228996277L297.685609375,301.3337559700012L298.6292604166667,289.83256316185L297.685609375,285.96285009384155L298.9196145833333,285.17090606689453L299.7906770833333,295.17901396751404L300.0084427083333,278.20311641693115L301.82315624999995,276.67184472084045L302.25868749999995,300.8211432695389L303.71045833333335,299.99263215065L304.94446354166666,298.18829011917114L305.2348177083333,291.5469081401825L306.5414114583333,270.21880316734314L306.6865885416667,283.6442906856537L306.831765625,290.6984724998474L307.04953125,294.5877596139908L307.267296875,290.6144185066223L308.50130208333337,278.3477976322174L309.29977604166663,287.8957815170288L310.31601562500003,268.73640275001526L312.6388489583333,277.35055017471313L313.21955729166666,303.69727635383606L313.5099114583333,278.97317576408386L314.09061979166665,291.3365979194641L314.3083854166667,289.7637548446655L316.55863020833334,287.2549023628235L317.13933854166663,297.59275245666504L318.0829895833333,287.2501459121704L318.4459322916667,296.481009721756L319.6073489583333,287.7964367866516L319.9702916666667,274.29704904556274L320.11546875,281.2640976905823L319.6799375,287.28675055503845L319.9702916666667,304.96036434173584L322.075359375,296.65987730026245L322.4383020833333,296.73354721069336L322.946421875,295.0789632797241L326.7210260416667,303.6429126262665L327.2291458333333,280.7033472061157L327.5195,279.03270149230957L327.1565572916667,291.0923767089844L327.59208854166667,299.55927193164825L328.02761979166667,291.36536693573L329.62456770833336,293.54543352127075L330.785984375,292.2236158847809L331.43928125,303.08330619335175L331.51186979166664,278.5619580745697L332.3829322916667,291.01873683929443L333.18140625,294.8820962905884L333.399171875,301.7390356063843L336.37530208333334,297.6440420150757L336.73824479166666,289.5736970901489L336.81083333333333,288.75446605682373L337.53671875000003,269.14043068885803L341.674265625,283.1292471885681L342.47273958333335,297.21237659454346L342.54532812499997,288.50383615493774L342.6905052083334,270.8775465488434L342.83568229166667,282.2592523097992L343.05344791666664,293.8479187488556L343.1260364583334,296.01193606853485L344.94075000000004,280.6711935997009L345.3036927083333,290.0415816307068L345.5214583333333,279.6926565170288L346.1021666666667,290.3979299068451L347.5539375,286.16288137435913L347.771703125,295.69517397880554L347.84429166666666,282.5975561141968L348.9331197916667,291.8441162109375L348.9331197916667,287.2711043357849L349.3686510416667,302.272696852684L349.6590052083333,287.67931294441223L350.31230208333335,300.7278642654419L350.45747916666664,286.7580134868622L351.4011302083333,288.36180353164673L352.19960416666663,285.5807418823242L354.08690624999997,288.1952977180481L354.740203125,288.43048667907715L355.82903124999996,287.79577589035034L356.3371510416667,280.75412607192993L356.7726822916667,279.65321803092957L355.9016197916667,292.8689661026001L357.35339062500003,285.5874309539795L357.57115625,301.9292685985565L360.619875,282.46968269348145L361.85388020833335,301.7417392730713L363.08788541666667,294.6751205921173L363.16047395833334,285.5557129383087L363.37823958333337,296.7972185611725L363.450828125,284.7855935096741L363.66859374999996,273.4252016544342L364.32189062500004,271.50591373443604L365.12036458333336,290.40791845321655L366.935078125,304.3302147388458L367.15284375,292.370965719223L367.9513177083333,294.52291917800903L368.16908333333333,306.1221925020218L368.3142604166667,285.14984250068665L368.4594375,292.8662323951721L370.56450520833334,300.2056360244751L371.43556770833334,284.7836158275604L372.01627604166663,298.697625875473L372.30663020833333,301.6223073005676L372.8873385416667,299.65723729133606L373.6858125,277.73075580596924L375.57311458333334,300.1188007593155L375.93605729166666,285.6292927265167L377.09747395833335,289.7727520465851L378.1863020833333,278.8940734863281L378.25889062500005,289.2884352207184L377.67818229166664,293.4068706035614L378.11371354166664,272.9180839061737L378.33147916666667,292.6350088119507L378.98477604166663,260.5215518474579L379.27513020833334,285.71284103393555L379.78325,296.38372778892517L379.8558385416667,285.18087458610535L380.2913697916667,296.2706319093704L380.7269010416667,293.81500911712646L380.87207812500003,302.34503746032715L381.08984375,283.69397807121277L383.63044270833336,299.0902683734894L384.50150520833336,287.91558837890625L385.8806875,293.4361352920532L386.38880729166664,297.9952508211136L387.840578125,299.14521288871765L389.58270312499997,286.0338463783264L390.74411979166666,288.31052899360657L391.324828125,274.7602472305298L391.97812500000003,301.46647596359253L392.195890625,288.07257628440857L392.34106770833336,296.2042443752289L392.41365625000003,296.86266231536865L394.88166666666666,298.5649684667587L395.0994322916667,302.58887815475464L395.6075520833333,281.0768437385559L396.551203125,286.7475543022156L396.6963802083334,295.6096680164337L396.76896875,301.07706785202026L397.27708854166667,294.8075752258301L398.58368229166666,290.07296919822693L399.45474479166666,288.66704750061035L400.906515625,280.927606344223L401.0516927083333,288.4161322116852L401.4872239583333,289.0141682624817L403.3745260416667,297.2955844402313L403.73746875,293.62477111816406L404.9714739583333,288.35526967048645L406.2780677083333,275.7419385910034L406.85877604166666,305.12393867969513L407.9476041666667,306.22007274627686L409.9074947916667,298.31115674972534L411.57703125,288.7861089706421L413.6820989583333,292.9779939651489L414.4805729166667,284.55750918388367L414.4805729166667,294.62111234664917L415.4968125,292.14085364341736L415.5694010416667,289.2379467487335L417.021171875,283.3346357345581L419.9247135416666,290.29550099372864L421.5216614583333,289.67837405204773L421.8846041666667,283.668133020401L423.40896354166665,291.7876946926117L423.9170833333334,285.1053020954132L424.20743749999997,298.35496616363525L424.64296874999997,295.02538561820984L425.07849999999996,295.99787950515747L425.65920833333337,298.8065435886383L425.80438541666666,294.8586344718933L427.54651041666665,295.26505064964294L428.12721875,296.644979596138L428.7079270833333,296.5253223180771L429.57898958333334,299.52213406562805L429.7241666666667,281.32844495773315L430.1596979166667,298.6902058124542L431.0307604166667,289.26676082611084L431.393703125,305.43437218666077L432.11958854166664,292.8993773460388L432.84547395833334,297.0241963863373L434.87795312500003,289.66229724884033L435.0231302083333,298.602822303772L435.31348437500003,288.78060150146484L436.4023125,291.32352018356323L438.21702604166666,299.8625957965851L438.4347916666666,298.64854431152344L439.7413854166667,298.07499647140503L441.04797916666666,303.0243787765503L442.28198437500004,299.179652094841L442.49975,305.79492115974426L442.8626927083333,297.92678797245026L443.2256354166667,286.5759816169739L443.3708125,303.5656578540802L443.4434010416667,297.365331530571L444.67740624999993,302.9174212217331L444.895171875,293.7874617576599L445.40329166666663,295.0888566970825L447.36318229166665,307.7643370628357L447.50835937500005,297.43553924560547L448.01647916666667,305.36598944664L449.9763697916666,284.7564890384674L450.62966666666665,285.12156414985657L450.1941354166667,286.3892934322357L450.99260937500003,304.8727054595947L451.35555208333335,301.1174125671387L452.734734375,296.1418046951294L453.09767708333334,299.89354276657104L453.24285416666663,294.6465618610382L453.5332083333334,290.2095193862915L455.49309895833335,278.26371359825134L456.94486979166663,297.19059705734253L457.3078125,304.44459986686707L458.396640625,303.79579496383667L457.59816666666666,302.38303649425507L457.8159322916666,296.41874527931213L459.4128802083333,292.02908205986023L460.71947395833337,305.15867829322815L461.009828125,296.7965351343155L461.3727708333333,307.18524420261383L462.53418750000003,306.7088280916214L462.6793645833333,287.778457403183L463.84078124999996,292.31208086013794L463.9859583333333,291.936231136322L464.42148958333337,294.62358570098877L464.56666666666666,304.97459864616394L464.71184374999996,297.59443974494934L465.58290624999995,297.9757443666458L464.71184374999996,299.9737991094589L466.3813802083333,297.76781487464905L467.03467708333335,299.6099030971527L467.2524427083333,299.2339607477188L468.41385937499996,296.9742136001587L469.2123333333333,301.25490403175354L469.3575104166667,295.6947909593582L469.7930416666667,302.4276670217514L470.73669270833335,295.4868965148926L472.0432864583334,288.20872592926025L473.7128229166666,297.614066362381L475.38235937499996,302.5888055562973L475.67271354166667,298.25700080394745L475.74530208333334,288.13251757621765L476.25342187499996,293.75442695617676L477.48742708333333,288.63364720344543L478.2859010416667,285.6805672645569L479.084375,304.87102568149567L479.59249479166664,291.90675616264343L480.0280260416667,301.28243136405945L480.608734375,280.7054750919342L484.6011041666667,306.32441425323486L484.89145833333333,281.69910764694214L485.83510937499994,304.16715359687805L486.9239375,281.3486223220825L487.5046458333333,293.4465093612671L486.41581770833335,293.63220620155334L486.706171875,298.4980627298355L487.43205729166664,305.7622092962265L488.15794270833334,286.3985860347748L488.23053125,304.8083782196045L488.30311979166663,296.10809898376465L488.88382812500004,308.10730719566345L490.3355989583333,305.78469729423523L492.0777239583333,291.495623588562L492.58584375,300.3148616552353L492.80360937499995,292.6147713661194L493.52949479166665,293.26797223091125L494.1827916666667,282.98301887512207L494.40055729166664,292.5780665874481L493.9650260416667,303.0378495454788L494.32796875,293.3254051208496L496.94115625,301.89907014369965L497.59445312500003,303.6899313926697L497.7396302083333,300.4529789686203L498.02998437499997,300.09277045726776L498.465515625,286.5222387313843L498.68328125,298.31972336769104L499.1914010416666,290.2835898399353L499.77210937499996,300.77421712875366L499.989875,297.27175211906433L500.57058333333333,300.20627188682556L500.8609375,303.0356615781784L501.6594114583333,299.5113444328308L501.94976562500005,298.0387473106384L502.7482395833334,302.906356215477L503.54671354166663,297.2055197954178L504.4177760416666,288.6341178417206L507.39390625000004,297.2081959247589L508.482734375,307.95196402072906L508.33755729166666,307.91750478744507L508.91826562500006,305.4700230360031L509.93450520833335,283.29681944847107L510.00709375,306.9934265613556L511.89439583333336,290.6036138534546L512.9106354166667,305.8542516231537L514.7253489583334,302.5891410112381L515.669,298.82495856285095L515.8867656250001,302.5550022125244L517.6288906249999,300.57885217666626L517.7740677083334,296.2698633670807L519.0806614583333,290.40487933158875L519.3710156249999,303.21355533599854L521.1857291666668,306.3066201210022L521.6938489583333,291.1345088481903L522.6374999999999,301.32729721069336L523.07303125,282.43403935432434L523.7989166666667,303.72479116916656L524.8877447916667,296.96738934516907L525.468453125,301.49095916748047L525.5410416666667,304.17495918273926L527.1379895833333,300.7263271808624L527.4283437500001,303.2900941371918L528.4445833333333,303.7400794029236L529.3156458333334,300.6265118122101L529.388234375,301.68217849731445L529.8963541666666,300.54936718940735L530.91259375,302.8904871940613L530.1867083333334,303.47523021698L530.8400052083334,299.6825966835022L531.4933020833333,302.09773206710815L531.6384791666666,301.7018852233887L531.7110677083334,298.0033543109894L533.09025,296.7682843208313L533.3080156249999,302.9949939250946L533.9613125,298.8828445672989L536.6470885416667,309.8320537805557L537.8085052083333,291.8866488933563L537.4455624999999,287.4102430343628L538.7521562500001,286.9701111316681L539.4780416666666,292.48295760154724L539.5506302083332,297.4969325065613L539.9861614583333,300.55243134498596L540.4942812500001,277.6799969673157L540.7846354166667,286.5999391078949L540.8572239583333,299.0724867582321L540.9298125,295.9280072450638L542.5267604166667,283.5683526992798L542.5993489583334,287.99879121780396L542.889703125,286.43970680236816L543.6881770833334,300.3406591415405L543.9785312500001,301.6238193511963L544.9947708333334,302.3026875257492L545.6480677083333,281.69440627098083L545.8658333333334,293.67702198028564L546.373953125,311.1985169649124L547.0998385416667,304.48896503448486L547.1724270833333,292.638623714447L547.3176041666667,291.1900792121887L547.680546875,292.3110394477844L548.4064322916668,303.6315472126007L549.7130260416667,305.01422238349915L550.1485572916667,288.03593158721924L550.2211458333334,296.14333176612854L550.8018541666667,305.97771406173706L552.1810364583333,296.75289845466614L552.253625,312.4876652956009L555.8104635416666,304.01448154449463L556.7541145833334,291.8365709781647L556.9718802083333,311.8789622783661L559.222125,286.2264325618744L559.2947135416666,312.37755846977234L559.3673020833334,311.09885430336L560.0931875,289.5620663166046L560.4561302083333,302.4810494184494L561.2546041666667,304.9696444272995L561.6901354166667,293.3509497642517L562.1982552083333,294.56804037094116L563.5048489583334,303.2437187433243L563.8677916666667,306.09815740585327L564.0855572916666,300.0669128894806L564.230734375,302.75198435783386L565.2469739583333,288.3007757663727L565.537328125,298.59320425987244L566.3358020833333,307.42307925224304L566.5535677083333,305.83753645420074L566.8439218750001,291.2735023498535L567.4246302083333,297.95717918872833L568.150515625,303.74956476688385L569.021578125,304.34963607788086L570.6911145833334,296.9607253074646L571.0540572916666,304.5578784942627L572.2880625,308.6351981163025L574.3205416666667,285.3173897266388L574.3931302083333,307.5525197982788L574.6834843749999,284.7600038051605L576.7159635416667,293.39836406707764L579.8372708333333,297.5856328010559L580.4179791666667,290.51801776885986L580.9986875000001,293.5579454898834L581.0712760416667,305.6596927642822L582.3778697916666,305.75549268722534L583.17634375,293.33788204193115L584.04740625,289.3164281845093L584.265171875,289.6021707057953L584.700703125,309.42868423461914L585.2814114583334,299.5268054008484L588.4753072916667,304.5541534423828L588.9834270833334,310.7411541938782L590.2174322916667,295.00260972976685L590.7255520833334,293.0488700866699L592.3950885416667,299.6446977853775L592.6854427083333,303.47880506515503L593.7016822916667,299.59047424793243L594.9356875000001,299.4261689186096L595.37121875,303.5115795135498L596.3148697916666,298.2055560350418L596.6052239583333,290.9199278354645L597.2585208333334,302.47661089897156L598.4199375000001,303.8180927038193L599.2184114583333,310.23083209991455L599.8717083333333,301.6920669078827L600.4524166666666,310.32593607902527L601.9041874999999,298.37094283103943L602.0493645833334,301.1261193752289L602.2671302083334,298.60801935195923L602.4123072916667,286.459618806839L602.8478385416668,312.22904205322266L602.557484375,309.13660311698914L603.1381927083333,288.2663390636444L603.3559583333333,302.7310985326767L603.7189010416668,289.0843584537506L604.2270208333333,299.53141164779663L604.3721979166667,306.16783940792084L608.0742135416666,291.8566482067108L608.8726875,307.88512337207794L609.4533958333333,305.44731974601746L610.6148125,304.5336606502533L610.9051666666667,285.8998746871948L609.8163385416666,299.30369782447815L609.9615156250001,307.6960895061493L610.9777552083334,289.0349864959717L611.268109375,292.87948536872864L611.92140625,303.21228861808777L611.9939947916666,306.64276599884033L612.3569375,306.0568664073944L612.6472916666667,311.61436343193054L612.7198802083334,291.156964302063L613.8087083333334,296.898468375206L616.058953125,292.0116333961487L616.930015625,291.1878662109375L617.4381354166667,301.6643042564392L617.801078125,294.93805718421936L617.6559010416667,287.2978005409241L618.3091979166667,300.9207458496094L619.3980260416666,304.7796642780304L620.1965,304.96113538742065L620.7046197916667,290.78555059432983L620.7772083333333,305.3257223367691L621.4305052083333,302.1753523349762L624.1888697916667,296.4881594181061L624.4066354166666,312.15279364585876L624.5518125,303.1522071361542L624.7695781250001,309.16092360019684L624.8421666666667,301.51420068740845L625.1325208333334,302.89875841140747L626.2939375,301.7714796066284L627.3101770833333,309.96839368343353L629.7055989583333,301.7724058628082L629.9959531249999,298.8025131225586L631.302546875,303.6838080883026L631.6654895833333,307.41003155708313L631.5929010416667,295.26808726787567L631.8106666666667,305.50674533843994L632.0284322916667,307.70887184143066L633.5527916666667,307.48675060272217L634.351265625,302.21951723098755L635.3675052083333,300.1600466966629L636.093390625,298.7652425765991L636.3111562500001,309.77856373786926L636.6015104166667,293.62531185150146L637.835515625,294.1569628715515L637.9806927083333,310.24037504196167L638.1984583333334,299.754554271698L639.7228177083334,309.1183658838272L639.8679947916667,305.67214465141296L639.0695208333334,301.24994230270386L639.8679947916667,313.63818061351776L640.448703125,302.0970286130905L640.7390572916667,308.5176787376404L641.9730625,311.8718276023865L643.27965625,314.20157968997955L643.7151875,292.0095806121826L644.0781302083334,310.8629193305969L644.4410729166667,292.8554928302765L644.6588385416667,285.1353528499603L645.7476666666666,287.12942719459534L645.8202552083333,299.34878396987915L646.6187291666666,305.2128367424011L647.1994375,305.18155431747437L647.9253229166667,312.39414846897125L648.7237968750001,307.26374316215515L650.2481562500001,283.56592440605164L651.55475,310.87287282943726L653.8775833333334,289.11457443237305L653.950171875,301.46767258644104L654.385703125,302.7436730861664L656.998890625,301.24815487861633L657.1440677083333,303.8744866847992L657.8699531249999,296.0152755975723L658.3780729166667,306.38225769996643L660.3379635416667,312.3930995464325L660.70090625,305.1566380262375L661.4267916666666,297.58209800720215L662.5882083333333,308.8219714164734L662.7333854166667,307.9454777240753L662.8785625,308.78553199768066L663.2415052083333,309.45845460891724L665.5643385416666,295.25013041496277L665.92728125,292.50812673568726L666.7257552083333,313.6524074077606L666.79834375,308.3082346916199L667.0886979166667,309.8764865398407L669.0485885416666,303.3699949979782L669.2663541666667,301.5148415565491L670.718125,301.1366837024689L671.1536562499999,305.0036555528641L671.2262447916667,313.18164896965027L673.113546875,314.0875825881958L673.6216666666667,306.9794225692749L674.1297864583333,290.0137689113617L676.9607395833333,308.98620414733887L677.033328125,312.8284424543381L677.686625,308.13876485824585L678.1947447916666,312.820671916008L678.4125104166667,304.77415680885315L678.9206302083334,302.0021849870682L679.1383958333333,304.0329866409302L680.517578125,297.59155082702637L680.73534375,307.3726934194565L681.5338177083333,308.83855390548706L682.3322916666666,310.6398718357086L683.0581770833334,303.91438579559326L683.2033541666667,288.4579038619995L683.2759427083333,306.59604012966156L683.4937083333333,284.88991498947144L684.0744166666667,294.53396916389465L684.4373593749999,300.6557013988495L684.5099479166668,304.0978696346283L684.8003020833333,312.26220202445984L686.1794843749999,294.69614911079407L686.9053697916667,307.40189802646637L687.4860781250001,307.39087557792664L688.357140625,292.7288610935211L690.099265625,306.9636912345886L690.7525625000001,303.30546498298645L690.8251510416667,300.3961043357849L691.2606822916666,288.2265901565552L691.405859375,304.8605740070343L692.05915625,298.5209312438965L694.5997552083334,299.2407875061035L696.6322343749999,303.27168667316437L696.85,310.2594358921051L697.067765625,300.1022207736969L697.7210625,296.5143048763275L698.592125,302.5549421310425L700.33425,297.7328824996948L701.0601354166666,286.44923973083496L705.0525052083333,310.82603931427L704.3266197916666,303.20649576187134L704.6169739583333,312.11171793937683L704.8347395833333,305.37425565719604L705.6332135416667,303.9172546863556L706.9398072916666,305.6379783153534L707.3027500000001,306.8510684967041L709.5529947916666,313.0978453159332L709.9159374999999,308.63426434993744L709.9885260416667,294.00815856456757L710.133703125,303.497540473938L711.004765625,309.84029746055603L711.1499427083334,298.7367238998413L712.0210052083333,300.0604991912842L711.5854739583333,303.7152532339096L712.5291249999999,300.84602451324463L712.8920677083333,303.72470104694366L712.96465625,303.057678937912L714.0534843749999,313.77399730682373L714.489015625,310.2104845046997L715.2149010416667,307.1202235221863L716.9570260416666,305.78906321525574L718.19103125,308.5892508029938L718.7717395833333,310.8201913833618L719.7879791666667,298.0257521867752L720.8768072916666,309.54495441913605L721.3849270833334,301.225058555603L721.6026927083334,301.44478154182434L722.1834010416666,295.6976022720337L723.3448177083334,308.5937418937683L723.635171875,302.652649641037L723.9981145833334,306.6978406906128L724.1432916666666,296.65846037864685L724.28846875,294.5604325532913L724.506234375,305.2813997268677L727.0468333333333,293.8071184158325L726.3935364583333,308.95169734954834L726.90165625,309.0536456108093L727.554953125,308.1367120742798L729.0067239583333,315.15429425239563L731.0392031250001,303.90985465049744L731.1843802083333,305.12213373184204L731.25696875,301.07323014736176L731.4021458333333,304.97418308258057L731.8376770833333,305.44133913517L732.12803125,307.84075319767L732.4909739583334,298.609193444252L732.9265052083333,307.94029569625854L733.2894479166666,304.9085590839386L733.87015625,304.9839963912964L734.2330989583334,307.5840675830841L735.2493385416666,292.37335896492004L736.0478125,302.7335994243622L736.7736979166666,301.3522961139679L737.0640520833333,301.60203981399536L737.1366406249999,311.0060634613037L739.1691197916667,289.20331478118896L739.8224166666668,303.60501623153687L740.4031249999999,313.6896153688431L741.491953125,310.75845515727997L741.5645416666667,300.4307162761688L741.2741874999999,296.81953382492065L743.5244322916667,309.96491146087646L744.1777291666666,292.4845447540283L745.1213802083333,309.5093786716461L745.3391458333333,310.86734783649445L745.411734375,304.6448814868927L745.7746770833334,309.42425322532654L746.4279739583334,299.2420892715454L747.0086822916667,297.9668973684311L747.5168020833333,304.43934774398804L747.589390625,304.1974046230316L748.460453125,297.67761754989624L748.8233958333334,290.2687096595764L749.4766927083334,299.7143622636795L749.8396354166666,305.53070282936096L750.2751666666667,309.58596754074097L750.5655208333334,303.10877323150635L753.251296875,309.63074576854706L753.8320052083333,309.38822185993195L753.90459375,303.4807652235031L753.9771822916667,289.25278186798096L754.4127135416667,313.2476359605789L755.5741302083333,303.76616728305817L756.0096614583333,309.8944458961487L756.08225,286.06774735450745L756.9533125,306.77226662635803L757.0259010416667,294.2553938627243L757.6791979166667,309.52423882484436L758.042140625,309.302433013916L758.8406145833333,296.32296538352966L759.4939114583333,307.46967244148254L760.5101510416666,303.6957492828369L761.308625,302.33881402015686L763.268515625,309.2691729068756L762.3248645833334,311.0370429754257L762.9781614583334,309.7563761472702L764.792875,309.7912609577179L765.0832291666667,309.76064944267273L765.7365260416667,302.1932966709137L766.7527656249999,310.91217863559723L767.188296875,312.2863622903824L767.3334739583333,313.7964026927948L769.8014843750001,313.9814110994339L770.237015625,303.63322949409485L770.45478125,308.4135500192642L769.5111302083333,301.80394864082336L769.6563072916667,310.7097841501236L769.7288958333334,306.203112244606L770.45478125,307.69196140766144L770.8177239583333,306.9543786048889L771.8339635416667,307.62055456638336L772.4872604166667,309.5435575246811L773.3583229166667,303.57435965538025L773.6486770833334,278.75356793403625L775.463390625,291.01087617874146L776.8425729166667,304.8992865085602L777.4958697916667,308.49058198928833L777.641046875,305.50778675079346L778.947640625,310.0822631120682L779.6009375,307.43044424057007L781.2704739583334,310.47580432891846L781.4156510416667,309.8332403898239L781.4882395833333,311.71271681785583L784.0288385416667,303.85159063339233L784.6095468750001,300.0800406932831L784.8273125000001,302.37801718711853L785.4806093750001,301.3329448699951L786.7146145833333,297.8813989162445L788.2389739583334,310.63801181316376L789.3278020833334,308.8535943031311L790.48921875,308.09745132923126L791.9409895833334,307.0782415866852L791.2876927083333,307.93870854377747L791.7958125,312.13195538520813L792.1587552083333,311.1645358800888L794.409,304.92119121551514L794.9897083333333,300.7142608165741L795.1348854166667,310.5401540994644L797.6028958333333,309.1638375520706L797.8206614583333,300.3698287010193L798.8369010416667,305.7056300640106L798.982078125,310.94927644729614L799.0546666666667,308.81977343559265L798.6917239583333,312.68418431282043L799.1272552083333,306.09620475769043L801.159734375,302.6893844604492L801.3775,311.85031843185425L801.4500885416667,306.9786264896393L801.8856197916666,311.83236157894135L802.030796875,295.4524873495102L803.2648020833334,309.75142192840576L803.8455104166666,306.69016778469086L804.4988072916666,300.97937536239624L805.5876354166667,311.5097916126251L806.7490520833334,304.60214853286743L806.8942291666667,294.5845878124237" style="fill: none;" fill="none"></path></g></g></g></g></g></g><g transform="translate(51, 378)" clip-path="url(#clip_1)"><clipPath id="clip_1"><rect width="871" height="22"></rect></clipPath><g><g><line x1="0" y1="0" x2="0" y2="5" style="visibility: inherit;" fill="rgb(0, 0, 0)" stroke="rgb(204, 204, 204)" stroke-width="1px"></line><line x1="72.58854166666666" y1="0" x2="72.58854166666666" y2="5" style="visibility: inherit;" fill="rgb(0, 0, 0)" stroke="rgb(204, 204, 204)" stroke-width="1px"></line><line x1="145.17708333333331" y1="0" x2="145.17708333333331" y2="5" style="visibility: inherit;" fill="rgb(0, 0, 0)" stroke="rgb(204, 204, 204)" stroke-width="1px"></line><line x1="217.765625" y1="0" x2="217.765625" y2="5" style="visibility: inherit;" fill="rgb(0, 0, 0)" stroke="rgb(204, 204, 204)" stroke-width="1px"></line><line x1="290.35416666666663" y1="0" x2="290.35416666666663" y2="5" style="visibility: inherit;" fill="rgb(0, 0, 0)" stroke="rgb(204, 204, 204)" stroke-width="1px"></line><line x1="362.94270833333337" y1="0" x2="362.94270833333337" y2="5" style="visibility: inherit;" fill="rgb(0, 0, 0)" stroke="rgb(204, 204, 204)" stroke-width="1px"></line><line x1="435.53125" y1="0" x2="435.53125" y2="5" style="visibility: inherit;" fill="rgb(0, 0, 0)" stroke="rgb(204, 204, 204)" stroke-width="1px"></line><line x1="508.1197916666667" y1="0" x2="508.1197916666667" y2="5" style="visibility: inherit;" fill="rgb(0, 0, 0)" stroke="rgb(204, 204, 204)" stroke-width="1px"></line><line x1="580.7083333333333" y1="0" x2="580.7083333333333" y2="5" style="visibility: inherit;" fill="rgb(0, 0, 0)" stroke="rgb(204, 204, 204)" stroke-width="1px"></line><line x1="653.296875" y1="0" x2="653.296875" y2="5" style="visibility: inherit;" fill="rgb(0, 0, 0)" stroke="rgb(204, 204, 204)" stroke-width="1px"></line><line x1="725.8854166666667" y1="0" x2="725.8854166666667" y2="5" style="visibility: inherit;" fill="rgb(0, 0, 0)" stroke="rgb(204, 204, 204)" stroke-width="1px"></line><line x1="798.4739583333333" y1="0" x2="798.4739583333333" y2="5" style="visibility: inherit;" fill="rgb(0, 0, 0)" stroke="rgb(204, 204, 204)" stroke-width="1px"></line><line x1="871.0625" y1="0" x2="871.0625" y2="5" style="visibility: inherit;" fill="rgb(0, 0, 0)" stroke="rgb(204, 204, 204)" stroke-width="1px"></line></g><g transform="translate(0, 8)"><text x="0" y="0" dx="0em" dy="0.95em" style="text-anchor: middle; visibility: hidden; font-family: &quot;Helvetica Neue&quot;, sans-serif; font-size: 12px; font-weight: 200;" fill="rgb(50, 49, 63)" stroke="none" stroke-width="1px">-1k</text><text x="72.58854166666666" y="0" dx="0em" dy="0.95em" style="text-anchor: middle; visibility: inherit; font-family: &quot;Helvetica Neue&quot;, sans-serif; font-size: 12px; font-weight: 200;" fill="rgb(50, 49, 63)" stroke="none" stroke-width="1px">0</text><text x="145.17708333333331" y="0" dx="0em" dy="0.95em" style="text-anchor: middle; visibility: inherit; font-family: &quot;Helvetica Neue&quot;, sans-serif; font-size: 12px; font-weight: 200;" fill="rgb(50, 49, 63)" stroke="none" stroke-width="1px">1k</text><text x="217.765625" y="0" dx="0em" dy="0.95em" style="text-anchor: middle; visibility: inherit; font-family: &quot;Helvetica Neue&quot;, sans-serif; font-size: 12px; font-weight: 200;" fill="rgb(50, 49, 63)" stroke="none" stroke-width="1px">2k</text><text x="290.35416666666663" y="0" dx="0em" dy="0.95em" style="text-anchor: middle; visibility: inherit; font-family: &quot;Helvetica Neue&quot;, sans-serif; font-size: 12px; font-weight: 200;" fill="rgb(50, 49, 63)" stroke="none" stroke-width="1px">3k</text><text x="362.94270833333337" y="0" dx="0em" dy="0.95em" style="text-anchor: middle; visibility: inherit; font-family: &quot;Helvetica Neue&quot;, sans-serif; font-size: 12px; font-weight: 200;" fill="rgb(50, 49, 63)" stroke="none" stroke-width="1px">4k</text><text x="435.53125" y="0" dx="0em" dy="0.95em" style="text-anchor: middle; visibility: inherit; font-family: &quot;Helvetica Neue&quot;, sans-serif; font-size: 12px; font-weight: 200;" fill="rgb(50, 49, 63)" stroke="none" stroke-width="1px">5k</text><text x="508.1197916666667" y="0" dx="0em" dy="0.95em" style="text-anchor: middle; visibility: inherit; font-family: &quot;Helvetica Neue&quot;, sans-serif; font-size: 12px; font-weight: 200;" fill="rgb(50, 49, 63)" stroke="none" stroke-width="1px">6k</text><text x="580.7083333333333" y="0" dx="0em" dy="0.95em" style="text-anchor: middle; visibility: inherit; font-family: &quot;Helvetica Neue&quot;, sans-serif; font-size: 12px; font-weight: 200;" fill="rgb(50, 49, 63)" stroke="none" stroke-width="1px">7k</text><text x="653.296875" y="0" dx="0em" dy="0.95em" style="text-anchor: middle; visibility: inherit; font-family: &quot;Helvetica Neue&quot;, sans-serif; font-size: 12px; font-weight: 200;" fill="rgb(50, 49, 63)" stroke="none" stroke-width="1px">8k</text><text x="725.8854166666667" y="0" dx="0em" dy="0.95em" style="text-anchor: middle; visibility: inherit; font-family: &quot;Helvetica Neue&quot;, sans-serif; font-size: 12px; font-weight: 200;" fill="rgb(50, 49, 63)" stroke="none" stroke-width="1px">9k</text><text x="798.4739583333333" y="0" dx="0em" dy="0.95em" style="text-anchor: middle; visibility: inherit; font-family: &quot;Helvetica Neue&quot;, sans-serif; font-size: 12px; font-weight: 200;" fill="rgb(50, 49, 63)" stroke="none" stroke-width="1px">10k</text><text x="871.0625" y="0" dx="0em" dy="0.95em" style="text-anchor: middle; visibility: hidden; font-family: &quot;Helvetica Neue&quot;, sans-serif; font-size: 12px; font-weight: 200;" fill="rgb(50, 49, 63)" stroke="none" stroke-width="1px">11k</text></g><line x1="0" y1="0" x2="871.0625" y2="0" fill="rgb(0, 0, 0)" stroke="rgb(204, 204, 204)" stroke-width="1px"></line></g></g></g></g></svg>