<svg viewBox="0 0 922.5 400" xmlns="http://www.w3.org/2000/svg"><g><g><g><g><g><line x1="51.4375" y1="378" x2="46.4375" y2="378" style="visibility: inherit;" fill="rgb(0, 0, 0)" stroke="rgb(204, 204, 204)" stroke-width="1px"></line><line x1="51.4375" y1="348.92307692307696" x2="46.4375" y2="348.92307692307696" style="visibility: inherit;" fill="rgb(0, 0, 0)" stroke="rgb(204, 204, 204)" stroke-width="1px"></line><line x1="51.4375" y1="319.8461538461538" x2="46.4375" y2="319.8461538461538" style="visibility: inherit;" fill="rgb(0, 0, 0)" stroke="rgb(204, 204, 204)" stroke-width="1px"></line><line x1="51.4375" y1="290.76923076923083" x2="46.4375" y2="290.76923076923083" style="visibility: inherit;" fill="rgb(0, 0, 0)" stroke="rgb(204, 204, 204)" stroke-width="1px"></line><line x1="51.4375" y1="261.69230769230774" x2="46.4375" y2="261.69230769230774" style="visibility: inherit;" fill="rgb(0, 0, 0)" stroke="rgb(204, 204, 204)" stroke-width="1px"></line><line x1="51.4375" y1="232.61538461538467" x2="46.4375" y2="232.61538461538467" style="visibility: inherit;" fill="rgb(0, 0, 0)" stroke="rgb(204, 204, 204)" stroke-width="1px"></line><line x1="51.4375" y1="203.53846153846158" x2="46.4375" y2="203.53846153846158" style="visibility: inherit;" fill="rgb(0, 0, 0)" stroke="rgb(204, 204, 204)" stroke-width="1px"></line><line x1="51.4375" y1="174.46153846153848" x2="46.4375" y2="174.46153846153848" style="visibility: inherit;" fill="rgb(0, 0, 0)" stroke="rgb(204, 204, 204)" stroke-width="1px"></line><line x1="51.4375" y1="145.38461538461544" x2="46.4375" y2="145.38461538461544" style="visibility: inherit;" fill="rgb(0, 0, 0)" stroke="rgb(204, 204, 204)" stroke-width="1px"></line><line x1="51.4375" y1="116.30769230769238" x2="46.4375" y2="116.30769230769238" style="visibility: inherit;" fill="rgb(0, 0, 0)" stroke="rgb(204, 204, 204)" stroke-width="1px"></line><line x1="51.4375" y1="87.23076923076934" x2="46.4375" y2="87.23076923076934" style="visibility: inherit;" fill="rgb(0, 0, 0)" stroke="rgb(204, 204, 204)" stroke-width="1px"></line><line x1="51.4375" y1="58.15384615384619" x2="46.4375" y2="58.15384615384619" style="visibility: inherit;" fill="rgb(0, 0, 0)" stroke="rgb(204, 204, 204)" stroke-width="1px"></line><line x1="51.4375" y1="29.076923076923094" x2="46.4375" y2="29.076923076923094" style="visibility: inherit;" fill="rgb(0, 0, 0)" stroke="rgb(204, 204, 204)" stroke-width="1px"></line><line x1="51.4375" y1="0" x2="46.4375" y2="0" style="visibility: inherit;" fill="rgb(0, 0, 0)" stroke="rgb(204, 204, 204)" stroke-width="1px"></line></g><g transform="translate(41.4375, 0)"><text x="0" y="378" dx="0em" dy="0.3em" style="text-anchor: end; visibility: hidden; font-family: &quot;Helvetica Neue&quot;, sans-serif; font-size: 12px; font-weight: 200;" fill="rgb(50, 49, 63)" stroke="none" stroke-width="1px">0.45</text><text x="0" y="348.92307692307696" dx="0em" dy="0.3em" style="text-anchor: end; visibility: inherit; font-family: &quot;Helvetica Neue&quot;, sans-serif; font-size: 12px; font-weight: 200;" fill="rgb(50, 49, 63)" stroke="none" stroke-width="1px">0.5</text><text x="0" y="319.8461538461538" dx="0em" dy="0.3em" style="text-anchor: end; visibility: inherit; font-family: &quot;Helvetica Neue&quot;, sans-serif; font-size: 12px; font-weight: 200;" fill="rgb(50, 49, 63)" stroke="none" stroke-width="1px">0.55</text><text x="0" y="290.76923076923083" dx="0em" dy="0.3em" style="text-anchor: end; visibility: inherit; font-family: &quot;Helvetica Neue&quot;, sans-serif; font-size: 12px; font-weight: 200;" fill="rgb(50, 49, 63)" stroke="none" stroke-width="1px">0.6</text><text x="0" y="261.69230769230774" dx="0em" dy="0.3em" style="text-anchor: end; visibility: inherit; font-family: &quot;Helvetica Neue&quot;, sans-serif; font-size: 12px; font-weight: 200;" fill="rgb(50, 49, 63)" stroke="none" stroke-width="1px">0.65</text><text x="0" y="232.61538461538467" dx="0em" dy="0.3em" style="text-anchor: end; visibility: inherit; font-family: &quot;Helvetica Neue&quot;, sans-serif; font-size: 12px; font-weight: 200;" fill="rgb(50, 49, 63)" stroke="none" stroke-width="1px">0.7</text><text x="0" y="203.53846153846158" dx="0em" dy="0.3em" style="text-anchor: end; visibility: inherit; font-family: &quot;Helvetica Neue&quot;, sans-serif; font-size: 12px; font-weight: 200;" fill="rgb(50, 49, 63)" stroke="none" stroke-width="1px">0.75</text><text x="0" y="174.46153846153848" dx="0em" dy="0.3em" style="text-anchor: end; visibility: inherit; font-family: &quot;Helvetica Neue&quot;, sans-serif; font-size: 12px; font-weight: 200;" fill="rgb(50, 49, 63)" stroke="none" stroke-width="1px">0.8</text><text x="0" y="145.38461538461544" dx="0em" dy="0.3em" style="text-anchor: end; visibility: inherit; font-family: &quot;Helvetica Neue&quot;, sans-serif; font-size: 12px; font-weight: 200;" fill="rgb(50, 49, 63)" stroke="none" stroke-width="1px">0.85</text><text x="0" y="116.30769230769238" dx="0em" dy="0.3em" style="text-anchor: end; visibility: inherit; font-family: &quot;Helvetica Neue&quot;, sans-serif; font-size: 12px; font-weight: 200;" fill="rgb(50, 49, 63)" stroke="none" stroke-width="1px">0.9</text><text x="0" y="87.23076923076934" dx="0em" dy="0.3em" style="text-anchor: end; visibility: inherit; font-family: &quot;Helvetica Neue&quot;, sans-serif; font-size: 12px; font-weight: 200;" fill="rgb(50, 49, 63)" stroke="none" stroke-width="1px">0.95</text><text x="0" y="58.15384615384619" dx="0em" dy="0.3em" style="text-anchor: end; visibility: inherit; font-family: &quot;Helvetica Neue&quot;, sans-serif; font-size: 12px; font-weight: 200;" fill="rgb(50, 49, 63)" stroke="none" stroke-width="1px">1</text><text x="0" y="29.076923076923094" dx="0em" dy="0.3em" style="text-anchor: end; visibility: inherit; font-family: &quot;Helvetica Neue&quot;, sans-serif; font-size: 12px; font-weight: 200;" fill="rgb(50, 49, 63)" stroke="none" stroke-width="1px">1.05</text><text x="0" y="0" dx="0em" dy="0.3em" style="text-anchor: end; visibility: hidden; font-family: &quot;Helvetica Neue&quot;, sans-serif; font-size: 12px; font-weight: 200;" fill="rgb(50, 49, 63)" stroke="none" stroke-width="1px">1.1</text></g><line x1="51.4375" y1="0" x2="51.4375" y2="378" fill="rgb(0, 0, 0)" stroke="rgb(204, 204, 204)" stroke-width="1px"></line></g></g><g transform="translate(51, 0)" clip-path="url(#clip_0)"><clipPath id="clip_0"><rect width="871" height="378"></rect></clipPath><g><g><g><line x1="0" y1="0" x2="0" y2="378" fill="rgb(0, 0, 0)" stroke="rgb(60, 60, 60)" stroke-width="1px" opacity="0.25"></line><line x1="72.58854166666666" y1="0" x2="72.58854166666666" y2="378" fill="rgb(0, 0, 0)" stroke="rgb(60, 60, 60)" stroke-width="1px" opacity="0.25"></line><line x1="145.17708333333331" y1="0" x2="145.17708333333331" y2="378" fill="rgb(0, 0, 0)" stroke="rgb(60, 60, 60)" stroke-width="1px" opacity="0.25"></line><line x1="217.765625" y1="0" x2="217.765625" y2="378" fill="rgb(0, 0, 0)" stroke="rgb(60, 60, 60)" stroke-width="1px" opacity="0.25"></line><line x1="290.35416666666663" y1="0" x2="290.35416666666663" y2="378" fill="rgb(0, 0, 0)" stroke="rgb(60, 60, 60)" stroke-width="1px" opacity="0.25"></line><line x1="362.94270833333337" y1="0" x2="362.94270833333337" y2="378" fill="rgb(0, 0, 0)" stroke="rgb(60, 60, 60)" stroke-width="1px" opacity="0.25"></line><line x1="435.53125" y1="0" x2="435.53125" y2="378" fill="rgb(0, 0, 0)" stroke="rgb(60, 60, 60)" stroke-width="1px" opacity="0.25"></line><line x1="508.1197916666667" y1="0" x2="508.1197916666667" y2="378" fill="rgb(0, 0, 0)" stroke="rgb(60, 60, 60)" stroke-width="1px" opacity="0.25"></line><line x1="580.7083333333333" y1="0" x2="580.7083333333333" y2="378" fill="rgb(0, 0, 0)" stroke="rgb(60, 60, 60)" stroke-width="1px" opacity="0.25"></line><line x1="653.296875" y1="0" x2="653.296875" y2="378" fill="rgb(0, 0, 0)" stroke="rgb(60, 60, 60)" stroke-width="1px" opacity="0.25"></line><line x1="725.8854166666667" y1="0" x2="725.8854166666667" y2="378" fill="rgb(0, 0, 0)" stroke="rgb(60, 60, 60)" stroke-width="1px" opacity="0.25"></line><line x1="798.4739583333333" y1="0" x2="798.4739583333333" y2="378" fill="rgb(0, 0, 0)" stroke="rgb(60, 60, 60)" stroke-width="1px" opacity="0.25"></line><line x1="871.0625" y1="0" x2="871.0625" y2="378" fill="rgb(0, 0, 0)" stroke="rgb(60, 60, 60)" stroke-width="1px" opacity="0.25"></line></g><g><line x1="0" y1="378" x2="871.0625" y2="378" fill="rgb(0, 0, 0)" stroke="rgb(60, 60, 60)" stroke-width="1px" opacity="0.25"></line><line x1="0" y1="348.92307692307696" x2="871.0625" y2="348.92307692307696" fill="rgb(0, 0, 0)" stroke="rgb(60, 60, 60)" stroke-width="1px" opacity="0.25"></line><line x1="0" y1="319.8461538461538" x2="871.0625" y2="319.8461538461538" fill="rgb(0, 0, 0)" stroke="rgb(60, 60, 60)" stroke-width="1px" opacity="0.25"></line><line x1="0" y1="290.76923076923083" x2="871.0625" y2="290.76923076923083" fill="rgb(0, 0, 0)" stroke="rgb(60, 60, 60)" stroke-width="1px" opacity="0.25"></line><line x1="0" y1="261.69230769230774" x2="871.0625" y2="261.69230769230774" fill="rgb(0, 0, 0)" stroke="rgb(60, 60, 60)" stroke-width="1px" opacity="0.25"></line><line x1="0" y1="232.61538461538467" x2="871.0625" y2="232.61538461538467" fill="rgb(0, 0, 0)" stroke="rgb(60, 60, 60)" stroke-width="1px" opacity="0.25"></line><line x1="0" y1="203.53846153846158" x2="871.0625" y2="203.53846153846158" fill="rgb(0, 0, 0)" stroke="rgb(60, 60, 60)" stroke-width="1px" opacity="0.25"></line><line x1="0" y1="174.46153846153848" x2="871.0625" y2="174.46153846153848" fill="rgb(0, 0, 0)" stroke="rgb(60, 60, 60)" stroke-width="1px" opacity="0.25"></line><line x1="0" y1="145.38461538461544" x2="871.0625" y2="145.38461538461544" fill="rgb(0, 0, 0)" stroke="rgb(60, 60, 60)" stroke-width="1px" opacity="0.25"></line><line x1="0" y1="116.30769230769238" x2="871.0625" y2="116.30769230769238" fill="rgb(0, 0, 0)" stroke="rgb(60, 60, 60)" stroke-width="1px" opacity="0.25"></line><line x1="0" y1="87.23076923076934" x2="871.0625" y2="87.23076923076934" fill="rgb(0, 0, 0)" stroke="rgb(60, 60, 60)" stroke-width="1px" opacity="0.25"></line><line x1="0" y1="58.15384615384619" x2="871.0625" y2="58.15384615384619" fill="rgb(0, 0, 0)" stroke="rgb(60, 60, 60)" stroke-width="1px" opacity="0.25"></line><line x1="0" y1="29.076923076923094" x2="871.0625" y2="29.076923076923094" fill="rgb(0, 0, 0)" stroke="rgb(60, 60, 60)" stroke-width="1px" opacity="0.25"></line><line x1="0" y1="0" x2="871.0625" y2="0" fill="rgb(0, 0, 0)" stroke="rgb(60, 60, 60)" stroke-width="1px" opacity="0.25"></line></g></g></g><g><g><line x1="0" y1="639.6923076923076" x2="871.0625" y2="639.6923076923076" fill="rgb(0, 0, 0)" stroke="rgb(153, 153, 153)" stroke-width="1.5px"></line></g></g><g><g><line x1="72.58854166666666" y1="0" x2="72.58854166666666" y2="378" fill="rgb(0, 0, 0)" stroke="rgb(153, 153, 153)" stroke-width="1.5px"></line></g></g><g><g><g><g><g><path stroke="rgb(255, 112, 67)" stroke-width="2px" d="M81.226578125,321.66346153846155L82.968703125,264.8725961538462L83.18646875,256.7596153846155L83.98494270833334,278.2351527149322L85.07377083333333,281.306871563551L85.29153645833333,305.8644989878543L86.74330729166667,312.36608685830754L90.00979166666667,308.75515619191674L90.22755729166667,310.29942562379586L90.88085416666667,314.872692787383L92.04227083333333,306.6553418266014L95.38134375,265.3186086407184L94.58286979166667,255.13170653714263L96.10722916666667,270.85288215168043L96.470171875,280.27769915998647L96.97829166666668,278.65847038606586L97.41382291666667,266.78153340142524L99.95442187500001,274.1965961912339L100.09959895833333,293.18449937649973L100.68030729166667,297.30700419736166L102.20466666666667,292.51102038607996L102.78537499999999,275.0948445354356L103.07572916666666,253.7413534709042L106.99551041666668,277.2756928279862L107.06809895833332,287.76159935467984L108.51986979166666,268.6107730988437L108.73763541666668,268.02415556660117L109.82646354166666,256.76833258167096L110.04422916666665,250.01484321448146L108.95540104166666,242.32813499858898L109.68128645833335,241.3507270233519L111.06046875,248.03351366894844L112.584828125,241.1393386413894L114.18177604166667,226.09898736929452L116.14166666666667,209.80554598763482L117.30308333333332,218.20255844842208L116.64978645833332,215.9715350552462L116.72237500000001,200.0944594357315L119.11779687500001,208.74129106531865L120.13403645833333,195.75631308337196L120.64215625000001,231.58071095567922L120.71474479166667,220.36381118339423L120.85992187500001,191.82597900948892L121.07768750000001,207.4148181776248L121.22286458333333,216.76812167677792L122.09392708333333,236.9185653150158L122.81981249999998,227.20113918864587L124.77970312499998,225.0052988977536L125.36041145833333,205.5147177999281L125.94111979166668,208.35883067997983L127.53806770833333,184.62299071556515L127.82842187499999,166.74687135236405L128.48171875,185.0981228114505L128.77207291666667,207.01271984073946L128.91725,209.25763190444508L129.93348958333334,199.70073298881738L130.07866666666666,204.87043979329155L130.44160937499998,200.70303310674362L130.58678645833334,223.644896787125L130.87714062499998,230.14078422612147L131.16749479166668,241.30754745875015L131.60302604166665,226.19991309063448L131.67561458333333,217.1353324697652L132.183734375,240.773507174167L132.47408854166665,218.610258150654L134.86951041666666,223.48538565962315L135.81316145833335,204.60276985731235L137.627875,186.00396960669514L137.77305208333334,182.11392022555555L138.35376041666666,190.68373675071797L139.00705729166665,199.46024205043074L139.22482291666665,211.99537599948926L140.458828125,212.2472255996936L141.112125,201.4944892059701L141.18471354166667,195.04284736973594L141.62024479166666,198.44109303722615L141.6928333333333,218.65311736079727L142.05577604166666,201.7034088780168L143.36236979166665,202.43742994219474L143.58013541666668,188.33938104223992L144.23343229166667,187.14978247149784L146.62885416666666,193.70525409828335L146.84661979166665,204.9077678435854L147.28215104166668,204.36004532153586L147.71768229166668,189.4929502698446L148.080625,176.93807785421453L148.80651041666667,194.84746209714405L149.24204166666667,183.78540033520954L149.60498437500002,191.68662481651035L150.33086979166666,203.69659027452155L153.37958854166666,181.8256464724053L152.58111458333335,186.87615711421245L152.653703125,193.54107888391206L153.96029687499998,201.17464733034723L154.90394791666668,205.75478839820838L155.84759895833332,175.79133457738655L158.60596354166668,194.15941613104732L159.622203125,183.3725727555515L159.83996875,180.5350821148694L160.13032291666664,182.4672031150755L160.56585416666667,194.5303218690453L161.07397395833334,201.76819312142726L162.670921875,206.11091587285634L162.8886875,186.90885721602152L163.68716145833335,175.3876220219206L163.90492708333335,168.47488090546005L164.12269270833335,167.96185162019916L164.19528125,193.09634174135027L167.67953125,193.6385742755794L168.1150625,172.15622148842456L167.026234375,184.70911750843936L168.62318229166667,181.33700896660213L169.49424479166666,175.67912845688434L170.22013020833333,190.45747707413068L172.39778645833331,192.05525547524763L173.19626041666666,178.4754609774563L173.77696875,199.40450735570457L174.2125,182.88501210573045L175.37391666666667,198.41562264805373L175.66427083333332,204.09937358883224L177.47898437499998,203.87500876868398L178.64040104166668,192.8365437227489L178.71298958333333,211.6557723874955L179.80181770833335,204.77423266326656L180.092171875,189.74146267488302L181.2535885416667,202.5294929895452L181.32617708333333,188.39461887065028L182.48759375,165.37523286085172L182.705359375,184.27513971651103L183.28606770833335,188.34585306067584L184.7378385416667,198.05751183640558L185.754078125,174.8075840249203L186.407375,186.29993503033683L186.69772916666665,160.48380717204833L186.84290625,170.4364381493829L186.98808333333335,143.69647827424518L187.20584895833335,163.99865619531633L187.71396875,139.83380910180517L188.367265625,143.5079777687754L189.38350520833333,167.52017127664985L189.52868229166666,189.1967181506053L189.74644791666665,176.76033858267087L188.94797395833334,183.83697238037175L189.16573958333333,177.1791065051462L189.238328125,191.35746390308776L190.69009895833335,159.88370911108342L191.34339583333335,180.9802254666501L191.77892708333334,179.0996737415285L192.35963541666666,181.60595809107102L193.01293229166666,179.47511331618105L193.52105208333333,163.6581449127856L195.04541145833335,154.16796387074834L196.06165104166666,152.10847063014134L196.3520052083333,139.96892853193097L197.00530208333333,129.0505878883894L196.78753645833334,137.03804504072593L197.00530208333333,156.36898087058947L197.44083333333333,160.69831159927685L197.58601041666665,181.4689869595661L200.48955208333334,190.29677679112427L201.72355729166668,188.32421992082843L202.44944270833332,190.7753011832663L202.66720833333332,174.07287301765209L204.11897916666666,167.686031502899L203.97380208333334,174.75777274789326L204.11897916666666,179.00081749488984L205.42557291666668,174.27741357385705L205.71592708333333,171.44337122123736L206.29663541666667,169.74294580966557L207.530640625,157.8188444088763L207.966171875,165.20284510686423L209.708296875,176.90247629488778L210.65194791666667,154.84533193077883L210.86971354166667,156.14950685077505L210.94230208333335,175.1050887258496L211.23265625,164.67074554320212L211.52301041666666,151.14090886438282L210.65194791666667,161.19608378016824L211.16006770833334,141.78688103733165L212.24889583333334,170.12212862239898L214.71690625,161.6809694811317L215.00726041666667,163.8855047656021L215.51538020833334,165.20822593628435L216.16867708333334,158.73262786946296L217.765625,154.84726902937007L217.91080208333332,141.61220757146828L218.05597916666667,151.8442476198041L218.6366875,147.07962549495943L218.05597916666667,136.95162145082185L218.34633333333332,130.8748190243393L219.7981041666667,149.03642987614214L220.16104687499998,149.0295502333776L220.2336354166667,167.1984993707958L220.3788125,185.36909962247748L220.59657812499998,185.36761361964034L221.46764062499997,203.53979894101502L221.68540625,185.3661870569167L222.04834895833335,152.65432761876542L223.42753125000002,147.56567349433624L224.1534166666667,144.51248101967872L224.58894791666668,168.1228732271919L225.02447916666668,145.9429547055459L225.31483333333333,154.44269590025067L226.18589583333332,170.44638677091962L226.91178125000002,176.41398590870563L227.56507812499999,161.82146846830034L230.10567708333332,163.9698041579033L230.178265625,161.62419018704972L230.32344270833335,149.31297565069138L232.35592187499998,145.5608623134918L232.93663020833336,168.7519020034797L233.58992708333332,153.58960274054945L233.73510416666664,159.03068472125273L234.098046875,169.56456467890544L235.91276041666666,175.88489265349722L235.9853489583333,172.4078586690214L236.711234375,181.22548443218213L236.8564114583333,161.07375219777086L237.21935416666665,174.4250205494318L238.23559375000002,193.33962771427449L238.67112500000002,171.97685355164165L239.32442187499998,173.69765059252344L240.41325000000003,156.5570518939756L240.70360416666665,157.17653882869308L239.68736458333333,161.1828463741389L241.502078125,156.31740013217566L243.0990260416667,149.7635170023824L243.5345572916667,138.5619563552756L244.76856250000003,135.47563535162692L245.20409374999997,144.52768890328383L247.09139583333334,146.32430564966265L247.599515625,161.94073723595142L248.10763541666665,156.77213464926314L248.470578125,164.57481925109641L249.41422916666667,176.52566078142706L249.92234895833332,165.52308877654858L251.01117708333334,155.2869301890061L251.88223958333336,152.77985042109597L252.10000520833333,147.6409871757346L253.1162447916667,151.82689999774846L254.49542708333334,147.06921692172602L254.56801562500002,162.3876839991895L254.64060416666666,153.40568732259064L257.0360260416667,162.5549508550929L260.52027604166665,160.77527820536343L261.17357291666667,148.8036284616796L261.82686979166664,156.15910015393086L262.26240104166664,142.39930624620465L262.62534375,152.3165068246459L262.84310937500004,165.53605794094142L266.25477083333334,184.3716347645649L266.8354791666667,173.86528855104663L268.505015625,171.1960962075511L269.44866666666667,165.95996541683834L269.44866666666667,177.35674848087226L269.66643229166664,155.1178952423695L270.24714062500004,149.04381406849868L270.46490625,138.1301345949454L272.20703125,146.1203884492749L272.4973854166667,143.64530999264196L272.6425625,134.8910321494313L274.6750416666667,133.2730808281203L276.344578125,146.84077157379534L276.2719895833333,136.80830909812337L277.5785833333333,138.05806238195095L278.0141145833333,124.26945281378599L279.17553125,141.43859476519464L280.482125,133.56700301296303L280.5547135416667,150.65174026931632L283.02272395833336,160.90258262312832L283.748609375,163.4184726508001L283.966375,154.024160513557L284.03896354166665,144.7529578465958L284.184140625,135.5556208618036L284.2567291666667,130.03721867092835L284.9100260416667,144.89925427948003L287.30544791666665,146.54724487538033L287.88615625,151.1706546175359L288.90239583333334,150.31008507821392L288.97498437499996,167.9668202776976L290.20898958333333,174.92624601277245L291.2978177083333,157.29420914612498L292.023703125,153.98421779536733L293.2577083333333,144.728992215682L293.6206510416667,131.90662609864L295.2175989583333,135.11705258226098L295.7983072916667,144.31253924166427L296.59678125000005,131.65675431422935L296.74195833333334,127.69789874238381L297.250078125,132.59181616850725L297.685609375,110.08585893187364L298.6292604166667,132.92843843604737L297.685609375,124.82629383085919L298.9196145833333,134.50346860620783L299.7906770833333,125.77131193295546L300.0084427083333,127.80124869823482L301.82315624999995,143.55767229586405L302.25868749999995,123.93460337751844L303.71045833333335,112.16076202651112L304.94446354166666,105.0964572159067L305.2348177083333,122.66556663723634L306.5414114583333,140.47626305926494L306.6865885416667,132.9896039894051L306.831765625,135.76683931672002L307.04953125,130.16394974387825L307.267296875,126.80221600017316L308.50130208333337,139.32363729241163L309.29977604166663,132.29802852929316L310.31601562500003,149.89035557911438L312.6388489583333,149.54190565516097L313.21955729166666,120.25591262386581L313.5099114583333,139.03047065124258L314.09061979166665,128.48751315997637L314.3083854166667,129.4309694344474L316.55863020833334,137.26627396836076L317.13933854166663,134.698225919478L318.0829895833333,136.79201247476374L318.4459322916667,127.14443825408901L319.6073489583333,124.99050910629956L319.9702916666667,152.775074694549L320.11546875,151.27273712442175L319.6799375,146.73671919773003L319.9702916666667,125.84203151863807L322.075359375,124.20906506502902L322.4383020833333,119.59466980824823L322.946421875,120.46064803879517L326.7210260416667,110.07638882327711L327.2291458333333,129.288140986274L327.5195,126.27673074561062L327.1565572916667,135.37373075505872L327.59208854166667,126.29346922226605L328.02761979166667,124.47992768720579L329.62456770833336,119.75718738155427L330.785984375,127.82738935200953L331.43928125,114.49643361120576L331.51186979166664,113.76709093595429L332.3829322916667,124.23333148464948L333.18140625,126.87846042925119L333.399171875,117.56169164216612L336.37530208333334,104.7023996006842L336.73824479166666,115.15990129887217L336.81083333333333,135.97286385624633L337.53671875000003,162.99910292913245L341.674265625,161.04176944978715L342.47273958333335,145.3289078237185L342.54532812499997,139.5358062326927L342.6905052083334,150.59840681653873L342.83568229166667,146.3321210130002L343.05344791666664,129.23388799241556L343.1260364583334,126.24417894929556L344.94075000000004,138.98881506188505L345.3036927083333,139.36636596020793L345.5214583333333,146.86212726843246L346.1021666666667,136.82112251490565L347.5539375,127.16190427817418L347.771703125,125.00098872075068L347.84429166666666,138.24290092475812L348.9331197916667,135.2842020933164L348.9331197916667,133.50898279445138L349.3686510416667,117.90538967667084L349.6590052083333,126.71631072907948L350.31230208333335,121.09901720667847L350.45747916666664,124.9978718624686L351.4011302083333,127.33718465594276L352.19960416666663,128.74077233202718L354.08690624999997,125.94830955306256L354.740203125,127.90744727029903L355.82903124999996,121.81369913141015L356.3371510416667,150.86898870961537L356.7726822916667,146.4944701488462L355.9016197916667,132.96591285853847L357.35339062500003,128.48339386896927L357.57115625,111.2554209367662L360.619875,119.0917141005213L361.85388020833335,112.88964384492817L363.08788541666667,109.16840169157229L363.16047395833334,128.74334870725104L363.37823958333337,122.31523999358143L363.450828125,136.63145168845656L363.66859374999996,156.12502485922784L364.32189062500004,167.82116876169061L365.12036458333336,145.7619320262451L366.935078125,125.25715921574715L367.15284375,123.85814168329449L367.9513177083333,130.2879619330537L368.16908333333333,108.70354639060145L368.3142604166667,117.56058937282239L368.4594375,122.87481516215499L370.56450520833334,118.79411986652377L371.43556770833334,119.98031807376043L372.01627604166663,109.78819084425635L372.30663020833333,103.67291450655387L372.8873385416667,107.27297947316305L373.6858125,131.2407107608209L375.57311458333334,120.1790418411079L375.93605729166666,128.08050202774172L377.09747395833335,136.45599352433732L378.1863020833333,137.84667303767935L378.25889062500005,135.04646536106912L377.67818229166664,126.09710998587224L378.11371354166664,127.99672752998484L378.33147916666667,125.50188267183705L378.98477604166663,145.81266806464075L379.27513020833334,136.1914469926306L379.78325,130.41871434942462L379.8558385416667,123.32045937888557L380.2913697916667,115.42689101194674L380.7269010416667,114.32536537639885L380.87207812500003,102.760603841224L381.08984375,113.99482384319589L383.63044270833336,109.83150969053298L384.50150520833336,114.60275196816599L385.8806875,110.19626656551497L386.38880729166664,111.18699070853972L387.840578125,115.41604057897001L389.58270312499997,117.9534705012282L390.74411979166666,130.37977460842924L391.324828125,130.56632630351905L391.97812500000003,112.50518039749608L392.195890625,123.47618516157459L392.34106770833336,119.15494186617553L392.41365625000003,109.29296511970534L394.88166666666666,121.54885599490018L395.0994322916667,110.72931359694013L395.6075520833333,126.04528046585645L396.551203125,127.96562981797544L396.6963802083334,125.48322404463138L396.76896875,120.3591651960096L397.27708854166667,113.65011450222113L398.58368229166666,116.89391485517893L399.45474479166666,126.1094258361843L400.906515625,128.00411704017213L401.0516927083333,121.87170099333406L401.4872239583333,125.46148213446196L403.3745260416667,116.71150466529258L403.73746875,118.73074895302176L404.9714739583333,119.94229552565929L406.2780677083333,138.8423003923187L406.85877604166666,117.47076485077588L407.9476041666667,104.64784352585019L409.9074947916667,111.49255226935634L411.57703125,122.86860828469074L413.6820989583333,115.15578035542984L414.4805729166667,125.06654513633492L414.4805729166667,116.47454246641638L415.4968125,118.58857163369606L415.5694010416667,108.95314298021765L417.021171875,121.34496271120759L419.9247135416666,125.14543916518613L421.5216614583333,116.52187888372708L421.8846041666667,122.25158886869781L423.40896354166665,129.32403024429564L423.9170833333334,129.9328796850389L424.20743749999997,119.39434319563873L424.64296874999997,120.34045207122938L425.07849999999996,120.9081173965838L425.65920833333337,110.3448704379503L425.80438541666666,118.54538380123176L427.54651041666665,119.83107643458527L428.12721875,124.23710739921268L428.7079270833333,119.61149520875836L429.57898958333334,109.56689712525503L429.7241666666667,121.71321519822999L430.1596979166667,121.73177527278415L431.0307604166667,110.83906516367057L431.393703125,104.30343909820238L432.11958854166664,107.65129422815221L432.84547395833334,109.66000730612211L434.87795312500003,103.59600438367329L435.0231302083333,103.59221801481942L435.31348437500003,110.85917696273788L436.4023125,115.21935233148889L438.21702604166666,110.56622678350868L438.4347916666666,104.1397360701053L439.7413854166667,100.28384164206318L441.04797916666666,97.97030498523799L442.28198437500004,103.85141376037353L442.49975,100.11084825622419L442.8626927083333,112.40497049219607L443.2256354166667,116.14682844916382L443.3708125,111.12271245411375L443.4434010416667,104.47362747246825L444.67740624999993,111.38802263732714L444.895171875,119.1712751208579L445.40329166666663,123.84122661097635L447.36318229166665,104.83550519735508L447.50835937500005,107.97053388764385L448.01647916666667,106.21693571720175L449.9763697916666,112.43400758416726L450.62966666666665,119.79886608896186L450.1941354166667,127.85239657645408L450.99260937500003,110.87682256125714L451.35555208333335,115.22993969060047L452.734734375,110.57257919897563L453.09767708333334,107.7781629040008L453.24285416666663,106.10151312701583L453.5332083333334,115.99936941467104L455.49309895833335,132.84192934111033L456.94486979166663,132.04361914312778L457.3078125,113.39155610126124L458.396640625,105.8349336607568L457.59816666666666,104.93557558106949L457.8159322916666,115.29980688710322L459.4128802083333,121.51834567072348L460.71947395833337,110.71100740243412L461.009828125,118.76506597992199L461.3727708333333,105.42442420333782L462.53418750000003,97.42003913738739L462.6793645833333,110.79048502089398L463.84078124999996,111.54352178176714L463.9859583333333,115.6299592229065L464.42148958333337,118.0818216875901L464.56666666666666,101.37986224332332L464.71184374999996,102.26253273060945L465.58290624999995,106.42675040759644L464.71184374999996,105.29066562917325L466.3813802083333,100.97439937750403L467.03467708333335,105.65387039573318L467.2524427083333,104.82693762205531L468.41385937499996,104.33077795784862L469.2123333333333,100.39846677470928L469.3575104166667,108.94292621867174L469.7930416666667,103.16575573120309L470.73669270833335,103.3340688233373L472.0432864583334,107.06967206323316L473.7128229166666,109.31103400717063L475.38235937499996,103.38662040430239L475.67271354166667,99.83197224258146L475.74530208333334,108.60302949939506L476.25342187499996,106.59643308425251L477.48742708333333,119.93093677362845L478.2859010416667,131.5662543718694L479.084375,105.83590646927553L479.59249479166664,104.93615926618071L480.0280260416667,118.93477248278538L480.608734375,123.6993250281327L484.6011041666667,108.38497963226433L484.89145833333333,117.36944931782011L485.83510937499994,104.5870542060768L486.9239375,115.09069406210767L487.5046458333333,114.12364720649532L486.41581770833335,109.90880370851261L486.706171875,111.0145129943383L487.43205729166664,104.40870779660304L488.15794270833334,114.98368621642345L488.23053125,106.7902117298541L488.30311979166663,109.14335780714322L488.88382812500004,96.01678391505521L490.3355989583333,91.77545496441775L492.0777239583333,118.30758067095832L492.58584375,112.41916378719043L492.80360937499995,116.15534442616041L493.52949479166665,107.49320665569627L494.1827916666667,113.19977014726402L494.40055729166664,123.89293901143537L493.9650260416667,112.1357634068612L494.32796875,112.35068881334752L496.94115625,101.57579790339315L497.59445312500003,102.38009412665127L497.7396302083333,106.49728724522157L498.02998437499997,98.06375696251763L498.465515625,107.54210033135678L498.68328125,102.32526019881408L499.1914010416666,110.09900227313454L499.77210937499996,111.12863213311147L499.989875,111.74641004909768L500.57058333333333,101.21323064484329L500.8609375,94.89332300229057L501.6594114583333,105.63983995522051L501.94976562500005,104.81851935774773L502.7482395833334,111.59495776849485L503.54671354166663,112.02620543032765L504.4177760416666,123.18880018127356L507.39390625000004,111.71328010876414L508.482734375,104.82796806525852L508.33755729166666,93.42755006992445L508.91826562500006,93.85653004195473L509.93450520833335,112.2869949482498L510.00709375,108.80681235356525L511.89439583333336,110.35331818136996L512.9106354166667,100.37737552420663L514.7253489583334,98.02642531452403L515.669,96.61585518871442L515.8867656250001,99.40412849784411L517.6288906249999,104.7117078679372L517.7740677083334,107.89625548999311L519.0806614583333,106.17236867861129L519.3710156249999,101.50342120716687L521.1857291666668,95.06743733968472L521.6938489583333,98.47507778842623L522.6374999999999,100.51966205767116L523.07303125,116.28487415767961L523.7989166666667,107.57092449460782L524.8877447916667,105.97717008138017L525.468453125,105.02091743344351L525.5410416666667,104.44716584468154L527.1379895833333,104.10291489142435L527.4283437500001,100.26174893485461L528.4445833333333,97.95704936091283L529.3156458333334,107.47807577039384L529.388234375,105.92146084685169L529.8963541666666,101.35287650811102L530.91259375,94.97711052025124L530.1867083333334,91.1516509275354L530.8400052083334,96.12560594113666L531.4933020833333,99.10997894929739L531.6384791666666,89.99675660034774L531.7110677083334,95.43266934482409L533.09025,98.69421699150985L533.3080156249999,100.65114557952131L533.9613125,98.19068734771281L536.6470885416667,85.81056625478146L537.8085052083333,96.55557052209974L537.4455624999999,99.36795769787528L538.7521562500001,111.9592361571867L539.4780416666666,112.2447724635428L539.5506302083332,101.51224809351027L539.9861614583333,91.43811808687542L540.4942812500001,118.10517854443293L540.7846354166667,119.56695328050591L540.8572239583333,116.80940273753436L540.9298125,115.1548724117514L542.5267604166667,128.70061575474313L542.5993489583334,133.1934463759228L542.889703125,132.25452936401527L543.6881770833334,120.78733300302463L543.9785312500001,113.90701518643016L544.9947708333334,106.14420911185812L545.6480677083333,126.92883315942254L545.8658333333334,124.86114604949972L546.373953125,98.17822609123834L547.0998385416667,100.34155103935842L547.1724270833333,101.63954600823047L547.3176041666667,109.68757375878448L547.680546875,110.88177502450151L548.4064322916668,104.32906501470097L549.7130260416667,100.39743900882058L550.1485572916667,105.30769417452314L550.2211458333334,104.61923188932928L550.8018541666667,96.93692374898228L552.1810364583333,103.23138501862013L552.253625,88.83498485732594L555.8104635416666,91.1009909143956L556.7541145833334,103.36444070248353L556.9718802083333,92.54943365225938L559.222125,100.5988909605864L559.2947135416666,90.89010380712108L559.3673020833334,81.43021613042646L560.0931875,97.56197583210212L560.4561302083333,107.24103165310743L561.2546041666667,98.51000360724913L561.6901354166667,100.54061754896492L562.1982552083333,101.75898591399437L563.5048489583334,102.49000693301201L563.8677916666667,95.65938877519181L564.0855572916666,98.83024864973049L564.230734375,97.09814918983835L565.2469739583333,110.59735105236456L565.537328125,104.15841063141875L566.3358020833333,96.66043099423592L566.5535677083333,95.79625859654163L566.8439218750001,102.54698592715579L567.4246302083333,102.96280694090888L568.150515625,103.21229954916072L569.021578125,99.72737972949648L570.6911145833334,101.27104322231327L571.0540572916666,91.29339516415723L572.2880625,88.94142171387892L574.3205416666667,98.43408379755812L574.3931302083333,89.59121950930415L574.6834843749999,113.36242401327485L576.7159635416667,116.72130056181106L579.8372708333333,115.10201110631743L580.4179791666667,106.86120666379043L580.9986875000001,101.91672399827434L581.0712760416667,98.95003439896465L582.3778697916666,89.90078987014806L583.17634375,99.00970469131966L584.04740625,111.74428435325336L584.265171875,104.84657061195202L584.700703125,100.70794236717126L585.2814114583334,98.22476542030279L588.4753072916667,93.10024386756629L588.9834270833334,86.39091555130898L590.2174322916667,85.99993394616996L590.7255520833334,89.39996036770202L592.3950885416667,91.4399762206213L592.6854427083333,89.02937034775738L593.7016822916667,87.5830068240391L594.9356875000001,93.98441947903888L595.37121875,90.55603630280797L596.3148697916666,95.76823716630025L596.6052239583333,102.53017306901091L597.2585208333334,102.95271922602194L598.4199375000001,95.9370161509978L599.2184114583333,88.09297892136794L599.8717083333333,90.65578735282088L600.4524166666666,84.92424164246171L601.9041874999999,85.11992960086161L602.0493645833334,96.14118852974781L602.2671302083334,106.38855927169487L602.4123072916667,127.07544325532464L602.8478385416668,106.77603518396404L602.557484375,90.96177495653228L603.1381927083333,92.3770649739194L603.3559583333333,93.22623898435171L603.7189010416668,108.27420492907265L604.2270208333333,106.39913834205902L604.3721979166667,101.63948300523543L608.0742135416666,106.05292057237205L608.8726875,101.43175234342328L609.4533958333333,91.38982063682329L610.6148125,85.36466161286324L610.9051666666667,96.28802773694872L609.8163385416666,102.84204741139996L609.9615156250001,99.50522844684002L610.9777552083334,112.04159860656563L611.268109375,108.65957454855482L611.92140625,99.36112934451751L611.9939947916666,93.78206222209508L612.3569375,94.06923733325709L612.6472916666667,79.70308086149271L612.7198802083334,92.8910792861264L613.8087083333334,97.16926295629128L616.058953125,110.64001931223635L616.930015625,107.81862697195726L617.4381354166667,106.12579156778975L617.801078125,116.01393647913534L617.6559010416667,114.67759265671202L618.3091979166667,121.1450171324887L619.3980260416666,110.48701027949323L620.1965,104.09220616769596L620.7046197916667,107.52455446984834L620.7772083333333,102.31473268190905L621.4305052083333,106.45807037837625L624.1888697916667,108.94407299625652L624.4066354166666,92.26259764390778L624.5518125,93.15755858634475L624.7695781250001,93.69453515180686L624.8421666666667,97.65133647569957L625.1325208333334,107.29464803926584L626.2939375,113.08063497740568L627.3101770833333,98.37915021721267L629.7055989583333,104.09672089955836L629.9959531249999,103.8926479243504L631.302546875,100.1355887546103L631.6654895833333,86.97750709892006L631.5929010416667,93.62111964396746L631.8106666666667,90.33805640176507L632.0284322916667,92.0028338410591L633.5527916666667,85.73246953540462L634.351265625,96.50871249047356L635.3675052083333,99.3398428788995L636.093390625,93.76929034272428L636.3111562500001,83.15772805178852L636.6015104166667,94.96386760030384L637.835515625,98.41293594479771L637.9806927083333,82.30930002841706L638.1984583333334,87.18558001705031L639.7228177083334,86.47673262561483L639.8679947916667,93.32065495998432L639.0695208333334,90.1577775913753L639.8679947916667,80.99082040097898L640.448703125,86.39449224058745L640.7390572916667,86.00207995973705L641.9730625,82.13201720661147L643.27965625,72.5407487855054L643.7151875,81.32444927130331L644.0781302083334,79.3254387935512L644.4410729166667,85.39526327613083L644.6588385416667,103.57561950413998L645.7476666666666,107.21460247171478L645.8202552083333,102.12876148302894L646.6187291666666,99.07725688981742L647.1994375,104.51558490312124L647.9253229166667,93.24012017264198L648.7237968750001,86.47484133435438L650.2481562500001,104.22336633907412L651.55475,93.06478903421379L653.8775833333334,111.81195034360525L653.950171875,108.52178559077856L654.385703125,99.27845596985173L656.998890625,97.36707358191109L657.1440677083333,88.95101337991588L657.8699531249999,98.4398387971803L658.3780729166667,100.49851866292357L660.3379635416667,90.82988042852338L660.70090625,88.6633128724987L661.4267916666666,94.63260310811467L662.5882083333333,90.94494648025346L662.7333854166667,85.09773711892126L662.8785625,88.85864227135283L663.2415052083333,80.21133920896551L665.5643385416666,100.46526506384089L665.92728125,101.71377442291998L666.7257552083333,87.92441849990581L666.79834375,83.28542033071278L667.0886979166667,80.50202142919693L669.0485885416666,86.1012128575183L669.2663541666667,93.09534309912635L670.718125,100.92643662870654L671.1536562499999,94.72124659260851L671.2262447916667,87.36351718633438L673.113546875,75.67964877333912L673.6216666666667,79.5731738793881L674.1297864583333,103.71698125070981L676.9607395833333,96.39557336581049L677.033328125,84.73349786564017L677.686625,88.64009871938407L678.1947447916666,80.08021307778432L678.4125104166667,82.21351246205523L678.9206302083334,94.3973382464639L679.1383958333333,90.80378756326292L680.517578125,95.91688792257315L680.73534375,88.08090198431324L681.5338177083333,83.37931042135716L682.3322916666666,76.92374009896821L683.0581770833334,87.58885944399628L683.2033541666667,97.62254643562858L683.2759427083333,92.73891247676175L683.4937083333333,104.3471936399032L684.0744166666667,107.67754695317268L684.4373593749999,106.04114355651905L684.5099479166668,94.15545536468073L684.8003020833333,83.38942706496226L686.1794843749999,87.83365623897743L686.9053697916667,90.50019374338649L687.4860781250001,92.10011624603192L688.357140625,96.69468513223461L690.099265625,95.81681107934082L690.7525625000001,95.29008664760454L690.8251510416667,98.6086673731781L691.2606822916666,107.86904657775301L691.405859375,102.52142794665184L692.05915625,99.31285676799115L694.5997552083334,104.65694483002551L696.6322343749999,100.59416689801532L696.85,94.52188475419376L697.067765625,90.87851546790085L697.7210625,99.59634004997133L698.592125,93.92318864536736L700.33425,101.42314395645116L701.0601354166666,109.55773252771695L705.0525052083333,96.26540874739948L704.3266197916666,91.9246298638243L704.6169739583333,82.05093176444842L704.8347395833333,87.03055905866916L705.6332135416667,79.1144892813553L706.9398072916666,81.6340781841979L707.3027500000001,83.14583152590336L709.5529947916666,80.41826814631128L709.9159374999999,75.14711473394067L709.9885260416667,82.88826884036445L710.133703125,87.53296130421865L711.004765625,79.41593062868509L711.1499427083334,92.71878914644185L712.0210052083333,89.79665810324974L711.5854739583333,91.67799486194991L712.5291249999999,92.80679691717L712.8920677083333,89.84946276568661L712.96465625,95.34429304402738L714.0534843749999,80.46811428795496L714.489015625,82.44625318815758L715.2149010416667,83.63313652827924L716.9570260416666,95.24911268619832L718.19103125,91.31485222710359L718.7717395833333,81.68506518241594L719.7879791666667,94.08026987868038L720.8768072916666,86.97893115797746L721.3849270833334,89.98735869478656L721.6026927083334,99.06164598610275L722.1834010416666,89.96775682243089L723.3448177083334,91.78065409345857L723.635171875,92.86839245607513L723.9981145833334,86.25180470441433L724.1432916666666,100.45492897649478L724.28846875,98.07295738589687L724.506234375,93.00915904692272L727.0468333333333,100.87472619738446L726.3935364583333,94.69022033381526L726.90165625,87.34490143105842L727.554953125,86.57232547401964L729.0067239583333,78.83954913056567L731.0392031250001,81.46911409372399L731.1843802083333,83.04685307161895L731.25696875,83.99349645835599L731.4021458333333,91.83071325962902L731.8376770833333,85.62919718654672L732.12803125,85.54290292731264L732.4909739583334,96.39497252561836L732.9265052083333,92.00236813075566L733.2894479166666,93.00142087845342L733.87015625,93.6008525270721L734.2330989583334,90.32589613162787L735.2493385416666,102.89938383282288L736.0478125,99.53963029969378L736.7736979166666,93.88916279520095L737.0640520833333,94.13349767712066L737.1366406249999,87.01086783704159L739.1691197916667,93.64113608684039L739.8224166666668,101.25391242133503L740.4031249999999,87.6485012989549L741.491953125,83.11987001014222L741.5645416666667,87.67192200608537L741.2741874999999,97.67238397288202L743.5244322916667,92.76881499911389L744.1777291666666,97.09590438408372L745.1213802083333,92.4229272458349L745.3391458333333,85.98452557827017L745.411734375,93.02533073157753L745.7746770833334,89.98058305433119L746.4279739583334,91.78834983259873L747.0086822916667,96.50762528417465L747.5168020833333,95.70457517050477L747.589390625,91.58812971768748L748.460453125,92.75287783061253L748.8233958333334,100.72095746759828L749.4766927083334,98.23257448055904L749.8396354166666,96.73954468833551L750.2751666666667,92.20911142838582L750.5655208333334,96.7600822416469L753.251296875,88.58681857575743L753.8320052083333,83.68286037622374L753.90459375,91.64433161034964L753.9771822916667,100.05582973544057L754.4127135416667,83.29503630280288L755.5741302083333,91.41163716629717L756.0096614583333,85.37775153054753L756.08225,92.66126630294394L756.9533125,89.76214439715108L757.0259010416667,102.56113279213685L757.6791979166667,92.06744890605142L758.042140625,85.77123857440006L758.8406145833333,96.53197391387084L759.4939114583333,92.08456896370711L760.5101510416666,93.05074137822436L761.308625,93.63044482693459L763.268515625,90.34365151154537L762.3248645833334,81.10234475308107L762.9781614583334,82.8267914672333L764.792875,87.49607488034002L765.0832291666667,79.39379877435783L765.7365260416667,81.80166387999935L766.7527656249999,83.24638294338416L767.188296875,76.84398361218445L767.3334739583333,73.00254401346456L769.8014843750001,70.69768025423252L770.237015625,83.85322353715492L770.45478125,84.47731873767765L769.5111302083333,88.4863912426066L769.6563072916667,87.25721936094862L769.7288958333334,82.88510084733832L770.45478125,80.26182973917224L770.8177239583333,85.95709784350339L771.8339635416667,85.7396433214866L772.4872604166667,89.24378599289196L773.3583229166667,87.71165621111987L773.6486770833334,101.33083988051817L775.463390625,94.96388854369553L776.8425729166667,94.77833312621738L777.4958697916667,87.3977691064996L777.641046875,86.60404607928444L778.947640625,82.49319687833992L779.6009375,83.66130274238861L781.2704739583334,84.36216626081773L781.4156510416667,77.51345360264452L781.4882395833333,73.40422600774059L784.0288385416667,81.8425356046443L784.6095468750001,83.27090597817124L784.8273125000001,87.76254358690278L785.4806093750001,90.45752615214172L786.7146145833333,92.07451569128506L788.2389739583334,82.1408632609249L789.3278020833334,79.81528718732415L790.48921875,78.4199415431637L791.9409895833334,84.8519649258983L791.2876927083333,85.07656357092355L791.7958125,77.94209198870806L792.1587552083333,77.29602442399403L794.409,84.1776146543965L794.9897083333333,81.03733802340713L795.1348854166667,82.78778742942899L797.6028958333333,80.20344168842666L797.8206614583333,85.92206501305606L798.8369010416667,89.35323900783362L798.982078125,84.14271263546942L799.0546666666667,81.0163968120508L798.6917239583333,71.87137654876898L799.1272552083333,80.92282592926148L801.159734375,79.0844647883261L801.3775,77.98144810376488L801.4500885416667,77.31963809302817L801.8856197916666,73.2879367019708L802.030796875,81.77276202118259L803.2648020833334,79.59442644347871L803.8455104166666,81.92204048147187L804.4988072916666,90.58783967349854L805.5876354166667,84.88347303486842L806.7490520833334,88.73008382092115L806.8942291666667,98.30728106178344" style="fill: none;" fill="none"></path></g></g></g></g><g opacity="0.2"><g><g><g><path stroke="rgb(255, 112, 67)" stroke-width="2px" d="M81.226578125,321.66346153846155L82.968703125,230.79807692307696L83.18646875,248.9711538461539L83.98494270833334,303.49038461538464L85.07377083333333,285.31730769230774L85.29153645833333,339.83653846153845L86.74330729166667,321.66346153846155L90.00979166666667,303.49038461538464L90.22755729166667,312.5769230769231L90.88085416666667,321.66346153846155L92.04227083333333,294.4038461538462L95.38134375,203.53846153846158L94.58286979166667,239.88461538461542L96.10722916666667,294.4038461538462L96.470171875,294.4038461538462L96.97829166666668,276.2307692307693L97.41382291666667,248.9711538461539L99.95442187500001,285.31730769230774L100.09959895833333,321.66346153846155L100.68030729166667,303.49038461538464L102.20466666666667,285.31730769230774L102.78537499999999,248.9711538461539L103.07572916666666,221.71153846153848L106.99551041666668,312.5769230769231L107.06809895833332,303.49038461538464L108.51986979166666,239.88461538461542L108.73763541666668,267.14423076923083L109.82646354166666,239.88461538461542L110.04422916666665,239.88461538461542L108.95540104166666,230.79807692307696L109.68128645833335,239.88461538461542L111.06046875,258.0576923076923L112.584828125,230.79807692307696L114.18177604166667,203.53846153846158L116.14166666666667,185.36538461538467L117.30308333333332,230.79807692307696L116.64978645833332,212.62500000000003L116.72237500000001,176.2788461538462L119.11779687500001,221.71153846153848L120.13403645833333,176.2788461538462L120.64215625000001,285.31730769230774L120.71474479166667,203.53846153846158L120.85992187500001,149.01923076923083L121.07768750000001,230.79807692307696L121.22286458333333,230.79807692307696L122.09392708333333,267.14423076923083L122.81981249999998,212.62500000000003L124.77970312499998,221.71153846153848L125.36041145833333,176.2788461538462L125.94111979166668,212.62500000000003L127.53806770833333,149.01923076923083L127.82842187499999,139.93269230769235L128.48171875,212.62500000000003L128.77207291666667,239.88461538461542L128.91725,212.62500000000003L129.93348958333334,185.36538461538467L130.07866666666666,212.62500000000003L130.44160937499998,194.45192307692312L130.58678645833334,258.0576923076923L130.87714062499998,239.88461538461542L131.16749479166668,258.0576923076923L131.60302604166665,203.53846153846158L131.67561458333333,203.53846153846158L132.183734375,276.2307692307693L132.47408854166665,185.36538461538467L134.86951041666666,230.79807692307696L135.81316145833335,176.2788461538462L137.627875,158.1057692307693L137.77305208333334,176.2788461538462L138.35376041666666,203.53846153846158L139.00705729166665,212.62500000000003L139.22482291666665,230.79807692307696L140.458828125,212.62500000000003L141.112125,185.36538461538467L141.18471354166667,185.36538461538467L141.62024479166666,203.53846153846158L141.6928333333333,248.9711538461539L142.05577604166666,176.2788461538462L143.36236979166665,203.53846153846158L143.58013541666668,167.19230769230774L144.23343229166667,185.36538461538467L146.62885416666666,203.53846153846158L146.84661979166665,221.71153846153848L147.28215104166668,203.53846153846158L147.71768229166668,167.19230769230774L148.080625,158.1057692307693L148.80651041666667,221.71153846153848L149.24204166666667,167.19230769230774L149.60498437500002,203.53846153846158L150.33086979166666,221.71153846153848L153.37958854166666,149.01923076923083L152.58111458333335,194.45192307692312L152.653703125,203.53846153846158L153.96029687499998,212.62500000000003L154.90394791666668,212.62500000000003L155.84759895833332,130.8461538461539L158.60596354166668,221.71153846153848L159.622203125,167.19230769230774L159.83996875,176.2788461538462L160.13032291666664,185.36538461538467L160.56585416666667,212.62500000000003L161.07397395833334,212.62500000000003L162.670921875,212.62500000000003L162.8886875,158.1057692307693L163.68716145833335,158.1057692307693L163.90492708333335,158.1057692307693L164.12269270833335,167.19230769230774L164.19528125,230.79807692307696L167.67953125,194.45192307692312L168.1150625,139.93269230769235L167.026234375,203.53846153846158L168.62318229166667,176.2788461538462L169.49424479166666,167.19230769230774L170.22013020833333,212.62500000000003L172.39778645833331,194.45192307692312L173.19626041666666,158.1057692307693L173.77696875,230.79807692307696L174.2125,158.1057692307693L175.37391666666667,221.71153846153848L175.66427083333332,212.62500000000003L177.47898437499998,203.53846153846158L178.64040104166668,176.2788461538462L178.71298958333333,239.88461538461542L179.80181770833335,194.45192307692312L180.092171875,167.19230769230774L181.2535885416667,221.71153846153848L181.32617708333333,167.19230769230774L182.48759375,130.8461538461539L182.705359375,212.62500000000003L183.28606770833335,194.45192307692312L184.7378385416667,212.62500000000003L185.754078125,139.93269230769235L186.407375,203.53846153846158L186.69772916666665,121.75961538461547L186.84290625,185.36538461538467L186.98808333333335,103.58653846153851L187.20584895833335,194.45192307692312L187.71396875,103.58653846153851L188.367265625,149.01923076923083L189.38350520833333,203.53846153846158L189.52868229166666,221.71153846153848L189.74644791666665,158.1057692307693L188.94797395833334,194.45192307692312L189.16573958333333,167.19230769230774L189.238328125,212.62500000000003L190.69009895833335,112.67307692307696L191.34339583333335,212.62500000000003L191.77892708333334,176.2788461538462L192.35963541666666,185.36538461538467L193.01293229166666,176.2788461538462L193.52105208333333,139.93269230769235L195.04541145833335,139.93269230769235L196.06165104166666,149.01923076923083L196.3520052083333,121.75961538461547L197.00530208333333,112.67307692307696L196.78753645833334,149.01923076923083L197.00530208333333,185.36538461538467L197.44083333333333,167.19230769230774L197.58601041666665,212.62500000000003L200.48955208333334,203.53846153846158L201.72355729166668,185.36538461538467L202.44944270833332,194.45192307692312L202.66720833333332,149.01923076923083L204.11897916666666,158.1057692307693L203.97380208333334,185.36538461538467L204.11897916666666,185.36538461538467L205.42557291666668,167.19230769230774L205.71592708333333,167.19230769230774L206.29663541666667,167.19230769230774L207.530640625,139.93269230769235L207.966171875,176.2788461538462L209.708296875,194.45192307692312L210.65194791666667,121.75961538461547L210.86971354166667,158.1057692307693L210.94230208333335,203.53846153846158L211.23265625,149.01923076923083L211.52301041666666,130.8461538461539L210.65194791666667,176.2788461538462L211.16006770833334,112.67307692307696L212.24889583333334,212.62500000000003L214.71690625,149.01923076923083L215.00726041666667,167.19230769230774L215.51538020833334,167.19230769230774L216.16867708333334,149.01923076923083L217.765625,149.01923076923083L217.91080208333332,121.75961538461547L218.05597916666667,167.19230769230774L218.6366875,139.93269230769235L218.05597916666667,121.75961538461547L218.34633333333332,121.75961538461547L219.7981041666667,176.2788461538462L220.16104687499998,149.01923076923083L220.2336354166667,194.45192307692312L220.3788125,212.62500000000003L220.59657812499998,185.36538461538467L221.46764062499997,230.79807692307696L221.68540625,158.1057692307693L222.04834895833335,103.58653846153851L223.42753125000002,139.93269230769235L224.1534166666667,139.93269230769235L224.58894791666668,203.53846153846158L225.02447916666668,112.67307692307696L225.31483333333333,167.19230769230774L226.18589583333332,194.45192307692312L226.91178125000002,185.36538461538467L227.56507812499999,139.93269230769235L230.10567708333332,167.19230769230774L230.178265625,158.1057692307693L230.32344270833335,130.8461538461539L232.35592187499998,139.93269230769235L232.93663020833336,203.53846153846158L233.58992708333332,130.8461538461539L233.73510416666664,167.19230769230774L234.098046875,185.36538461538467L235.91276041666666,185.36538461538467L235.9853489583333,167.19230769230774L236.711234375,194.45192307692312L236.8564114583333,130.8461538461539L237.21935416666665,194.45192307692312L238.23559375000002,221.71153846153848L238.67112500000002,139.93269230769235L239.32442187499998,176.2788461538462L240.41325000000003,130.8461538461539L240.70360416666665,158.1057692307693L239.68736458333333,167.19230769230774L241.502078125,149.01923076923083L243.0990260416667,139.93269230769235L243.5345572916667,121.75961538461547L244.76856250000003,130.8461538461539L245.20409374999997,158.1057692307693L247.09139583333334,149.01923076923083L247.599515625,185.36538461538467L248.10763541666665,149.01923076923083L248.470578125,176.2788461538462L249.41422916666667,194.45192307692312L249.92234895833332,149.01923076923083L251.01117708333334,139.93269230769235L251.88223958333336,149.01923076923083L252.10000520833333,139.93269230769235L253.1162447916667,158.1057692307693L254.49542708333334,139.93269230769235L254.56801562500002,185.36538461538467L254.64060416666666,139.93269230769235L257.0360260416667,176.2788461538462L260.52027604166665,158.1057692307693L261.17357291666667,130.8461538461539L261.82686979166664,167.19230769230774L262.26240104166664,121.75961538461547L262.62534375,167.19230769230774L262.84310937500004,185.36538461538467L266.25477083333334,212.62500000000003L266.8354791666667,158.1057692307693L268.505015625,167.19230769230774L269.44866666666667,158.1057692307693L269.44866666666667,194.45192307692312L269.66643229166664,121.75961538461547L270.24714062500004,139.93269230769235L270.46490625,121.75961538461547L272.20703125,158.1057692307693L272.4973854166667,139.93269230769235L272.6425625,121.75961538461547L274.6750416666667,130.8461538461539L276.344578125,167.19230769230774L276.2719895833333,121.75961538461547L277.5785833333333,139.93269230769235L278.0141145833333,103.58653846153851L279.17553125,167.19230769230774L280.482125,121.75961538461547L280.5547135416667,176.2788461538462L283.02272395833336,176.2788461538462L283.748609375,167.19230769230774L283.966375,139.93269230769235L284.03896354166665,130.8461538461539L284.184140625,121.75961538461547L284.2567291666667,121.75961538461547L284.9100260416667,167.19230769230774L287.30544791666665,149.01923076923083L287.88615625,158.1057692307693L288.90239583333334,149.01923076923083L288.97498437499996,194.45192307692312L290.20898958333333,185.36538461538467L291.2978177083333,130.8461538461539L292.023703125,149.01923076923083L293.2577083333333,130.8461538461539L293.6206510416667,112.67307692307696L295.2175989583333,139.93269230769235L295.7983072916667,158.1057692307693L296.59678125000005,112.67307692307696L296.74195833333334,121.75961538461547L297.250078125,139.93269230769235L297.685609375,76.3269230769231L298.6292604166667,167.19230769230774L297.685609375,112.67307692307696L298.9196145833333,149.01923076923083L299.7906770833333,112.67307692307696L300.0084427083333,130.8461538461539L301.82315624999995,167.19230769230774L302.25868749999995,94.50000000000006L303.71045833333335,94.50000000000006L304.94446354166666,94.50000000000006L305.2348177083333,149.01923076923083L306.5414114583333,167.19230769230774L306.6865885416667,121.75961538461547L306.831765625,139.93269230769235L307.04953125,121.75961538461547L307.267296875,121.75961538461547L308.50130208333337,158.1057692307693L309.29977604166663,121.75961538461547L310.31601562500003,176.2788461538462L312.6388489583333,149.01923076923083L313.21955729166666,76.3269230769231L313.5099114583333,167.19230769230774L314.09061979166665,112.67307692307696L314.3083854166667,130.8461538461539L316.55863020833334,149.01923076923083L317.13933854166663,130.8461538461539L318.0829895833333,139.93269230769235L318.4459322916667,112.67307692307696L319.6073489583333,121.75961538461547L319.9702916666667,194.45192307692312L320.11546875,149.01923076923083L319.6799375,139.93269230769235L319.9702916666667,94.50000000000006L322.075359375,121.75961538461547L322.4383020833333,112.67307692307696L322.946421875,121.75961538461547L326.7210260416667,94.50000000000006L327.2291458333333,158.1057692307693L327.5195,121.75961538461547L327.1565572916667,149.01923076923083L327.59208854166667,112.67307692307696L328.02761979166667,121.75961538461547L329.62456770833336,112.67307692307696L330.785984375,139.93269230769235L331.43928125,94.50000000000006L331.51186979166664,112.67307692307696L332.3829322916667,139.93269230769235L333.18140625,130.8461538461539L333.399171875,103.58653846153851L336.37530208333334,85.41346153846155L336.73824479166666,130.8461538461539L336.81083333333333,167.19230769230774L337.53671875000003,203.53846153846158L341.674265625,158.1057692307693L342.47273958333335,121.75961538461547L342.54532812499997,130.8461538461539L342.6905052083334,167.19230769230774L342.83568229166667,139.93269230769235L343.05344791666664,103.58653846153851L343.1260364583334,121.75961538461547L344.94075000000004,158.1057692307693L345.3036927083333,139.93269230769235L345.5214583333333,158.1057692307693L346.1021666666667,121.75961538461547L347.5539375,112.67307692307696L347.771703125,121.75961538461547L347.84429166666666,158.1057692307693L348.9331197916667,130.8461538461539L348.9331197916667,130.8461538461539L349.3686510416667,94.50000000000006L349.6590052083333,139.93269230769235L350.31230208333335,112.67307692307696L350.45747916666664,130.8461538461539L351.4011302083333,130.8461538461539L352.19960416666663,130.8461538461539L354.08690624999997,121.75961538461547L354.740203125,130.8461538461539L355.82903124999996,112.67307692307696L356.3371510416667,194.45192307692312L356.7726822916667,139.93269230769235L355.9016197916667,112.67307692307696L357.35339062500003,121.75961538461547L357.57115625,85.41346153846155L360.619875,130.8461538461539L361.85388020833335,103.58653846153851L363.08788541666667,103.58653846153851L363.16047395833334,158.1057692307693L363.37823958333337,112.67307692307696L363.450828125,158.1057692307693L363.66859374999996,185.36538461538467L364.32189062500004,185.36538461538467L365.12036458333336,112.67307692307696L366.935078125,94.50000000000006L367.15284375,121.75961538461547L367.9513177083333,139.93269230769235L368.16908333333333,76.3269230769231L368.3142604166667,130.8461538461539L368.4594375,130.8461538461539L370.56450520833334,112.67307692307696L371.43556770833334,121.75961538461547L372.01627604166663,94.50000000000006L372.30663020833333,94.50000000000006L372.8873385416667,112.67307692307696L373.6858125,167.19230769230774L375.57311458333334,103.58653846153851L375.93605729166666,139.93269230769235L377.09747395833335,149.01923076923083L378.1863020833333,139.93269230769235L378.25889062500005,130.8461538461539L377.67818229166664,112.67307692307696L378.11371354166664,130.8461538461539L378.33147916666667,121.75961538461547L378.98477604166663,176.2788461538462L379.27513020833334,121.75961538461547L379.78325,121.75961538461547L379.8558385416667,112.67307692307696L380.2913697916667,103.58653846153851L380.7269010416667,112.67307692307696L380.87207812500003,85.41346153846155L381.08984375,130.8461538461539L383.63044270833336,103.58653846153851L384.50150520833336,121.75961538461547L385.8806875,103.58653846153851L386.38880729166664,112.67307692307696L387.840578125,121.75961538461547L389.58270312499997,121.75961538461547L390.74411979166666,149.01923076923083L391.324828125,130.8461538461539L391.97812500000003,85.41346153846155L392.195890625,139.93269230769235L392.34106770833336,112.67307692307696L392.41365625000003,94.50000000000006L394.88166666666666,139.93269230769235L395.0994322916667,94.50000000000006L395.6075520833333,149.01923076923083L396.551203125,130.8461538461539L396.6963802083334,121.75961538461547L396.76896875,112.67307692307696L397.27708854166667,103.58653846153851L398.58368229166666,121.75961538461547L399.45474479166666,139.93269230769235L400.906515625,130.8461538461539L401.0516927083333,112.67307692307696L401.4872239583333,130.8461538461539L403.3745260416667,103.58653846153851L403.73746875,121.75961538461547L404.9714739583333,121.75961538461547L406.2780677083333,167.19230769230774L406.85877604166666,85.41346153846155L407.9476041666667,85.41346153846155L409.9074947916667,121.75961538461547L411.57703125,139.93269230769235L413.6820989583333,103.58653846153851L414.4805729166667,139.93269230769235L414.4805729166667,103.58653846153851L415.4968125,121.75961538461547L415.5694010416667,94.50000000000006L417.021171875,139.93269230769235L419.9247135416666,130.8461538461539L421.5216614583333,103.58653846153851L421.8846041666667,130.8461538461539L423.40896354166665,139.93269230769235L423.9170833333334,130.8461538461539L424.20743749999997,103.58653846153851L424.64296874999997,121.75961538461547L425.07849999999996,121.75961538461547L425.65920833333337,94.50000000000006L425.80438541666666,130.8461538461539L427.54651041666665,121.75961538461547L428.12721875,130.8461538461539L428.7079270833333,112.67307692307696L429.57898958333334,94.50000000000006L429.7241666666667,139.93269230769235L430.1596979166667,121.75961538461547L431.0307604166667,94.50000000000006L431.393703125,94.50000000000006L432.11958854166664,112.67307692307696L432.84547395833334,112.67307692307696L434.87795312500003,94.50000000000006L435.0231302083333,103.58653846153851L435.31348437500003,121.75961538461547L436.4023125,121.75961538461547L438.21702604166666,103.58653846153851L438.4347916666666,94.50000000000006L439.7413854166667,94.50000000000006L441.04797916666666,94.50000000000006L442.28198437500004,112.67307692307696L442.49975,94.50000000000006L442.8626927083333,130.8461538461539L443.2256354166667,121.75961538461547L443.3708125,103.58653846153851L443.4434010416667,94.50000000000006L444.67740624999993,121.75961538461547L444.895171875,130.8461538461539L445.40329166666663,130.8461538461539L447.36318229166665,76.3269230769231L447.50835937500005,112.67307692307696L448.01647916666667,103.58653846153851L449.9763697916666,121.75961538461547L450.62966666666665,130.8461538461539L450.1941354166667,139.93269230769235L450.99260937500003,85.41346153846155L451.35555208333335,121.75961538461547L452.734734375,103.58653846153851L453.09767708333334,103.58653846153851L453.24285416666663,103.58653846153851L453.5332083333334,130.8461538461539L455.49309895833335,158.1057692307693L456.94486979166663,130.8461538461539L457.3078125,85.41346153846155L458.396640625,94.50000000000006L457.59816666666666,103.58653846153851L457.8159322916666,130.8461538461539L459.4128802083333,130.8461538461539L460.71947395833337,94.50000000000006L461.009828125,130.8461538461539L461.3727708333333,85.41346153846155L462.53418750000003,85.41346153846155L462.6793645833333,130.8461538461539L463.84078124999996,112.67307692307696L463.9859583333333,121.75961538461547L464.42148958333337,121.75961538461547L464.56666666666666,76.3269230769231L464.71184374999996,103.58653846153851L465.58290624999995,112.67307692307696L464.71184374999996,103.58653846153851L466.3813802083333,94.50000000000006L467.03467708333335,112.67307692307696L467.2524427083333,103.58653846153851L468.41385937499996,103.58653846153851L469.2123333333333,94.50000000000006L469.3575104166667,121.75961538461547L469.7930416666667,94.50000000000006L470.73669270833335,103.58653846153851L472.0432864583334,112.67307692307696L473.7128229166666,112.67307692307696L475.38235937499996,94.50000000000006L475.67271354166667,94.50000000000006L475.74530208333334,121.75961538461547L476.25342187499996,103.58653846153851L477.48742708333333,139.93269230769235L478.2859010416667,149.01923076923083L479.084375,67.2403846153847L479.59249479166664,103.58653846153851L480.0280260416667,139.93269230769235L480.608734375,130.8461538461539L484.6011041666667,85.41346153846155L484.89145833333333,130.8461538461539L485.83510937499994,85.41346153846155L486.9239375,130.8461538461539L487.5046458333333,112.67307692307696L486.41581770833335,103.58653846153851L486.706171875,112.67307692307696L487.43205729166664,94.50000000000006L488.15794270833334,130.8461538461539L488.23053125,94.50000000000006L488.30311979166663,112.67307692307696L488.88382812500004,76.3269230769231L490.3355989583333,85.41346153846155L492.0777239583333,158.1057692307693L492.58584375,103.58653846153851L492.80360937499995,121.75961538461547L493.52949479166665,94.50000000000006L494.1827916666667,121.75961538461547L494.40055729166664,139.93269230769235L493.9650260416667,94.50000000000006L494.32796875,112.67307692307696L496.94115625,85.41346153846155L497.59445312500003,103.58653846153851L497.7396302083333,112.67307692307696L498.02998437499997,85.41346153846155L498.465515625,121.75961538461547L498.68328125,94.50000000000006L499.1914010416666,121.75961538461547L499.77210937499996,112.67307692307696L499.989875,112.67307692307696L500.57058333333333,85.41346153846155L500.8609375,85.41346153846155L501.6594114583333,121.75961538461547L501.94976562500005,103.58653846153851L502.7482395833334,121.75961538461547L503.54671354166663,112.67307692307696L504.4177760416666,139.93269230769235L507.39390625000004,94.50000000000006L508.482734375,94.50000000000006L508.33755729166666,76.3269230769231L508.91826562500006,94.50000000000006L509.93450520833335,139.93269230769235L510.00709375,103.58653846153851L511.89439583333336,112.67307692307696L512.9106354166667,85.41346153846155L514.7253489583334,94.50000000000006L515.669,94.50000000000006L515.8867656250001,103.58653846153851L517.6288906249999,112.67307692307696L517.7740677083334,112.67307692307696L519.0806614583333,103.58653846153851L519.3710156249999,94.50000000000006L521.1857291666668,85.41346153846155L521.6938489583333,103.58653846153851L522.6374999999999,103.58653846153851L523.07303125,139.93269230769235L523.7989166666667,94.50000000000006L524.8877447916667,103.58653846153851L525.468453125,103.58653846153851L525.5410416666667,103.58653846153851L527.1379895833333,103.58653846153851L527.4283437500001,94.50000000000006L528.4445833333333,94.50000000000006L529.3156458333334,121.75961538461547L529.388234375,103.58653846153851L529.8963541666666,94.50000000000006L530.91259375,85.41346153846155L530.1867083333334,85.41346153846155L530.8400052083334,103.58653846153851L531.4933020833333,103.58653846153851L531.6384791666666,76.3269230769231L531.7110677083334,103.58653846153851L533.09025,103.58653846153851L533.3080156249999,103.58653846153851L533.9613125,94.50000000000006L536.6470885416667,67.2403846153847L537.8085052083333,112.67307692307696L537.4455624999999,103.58653846153851L538.7521562500001,130.8461538461539L539.4780416666666,112.67307692307696L539.5506302083332,85.41346153846155L539.9861614583333,76.3269230769231L540.4942812500001,158.1057692307693L540.7846354166667,121.75961538461547L540.8572239583333,112.67307692307696L540.9298125,112.67307692307696L542.5267604166667,149.01923076923083L542.5993489583334,139.93269230769235L542.889703125,130.8461538461539L543.6881770833334,103.58653846153851L543.9785312500001,103.58653846153851L544.9947708333334,94.50000000000006L545.6480677083333,158.1057692307693L545.8658333333334,121.75961538461547L546.373953125,58.15384615384619L547.0998385416667,103.58653846153851L547.1724270833333,103.58653846153851L547.3176041666667,121.75961538461547L547.680546875,112.67307692307696L548.4064322916668,94.50000000000006L549.7130260416667,94.50000000000006L550.1485572916667,112.67307692307696L550.2211458333334,103.58653846153851L550.8018541666667,85.41346153846155L552.1810364583333,112.67307692307696L552.253625,67.2403846153847L555.8104635416666,94.50000000000006L556.7541145833334,121.75961538461547L556.9718802083333,76.3269230769231L559.222125,112.67307692307696L559.2947135416666,76.3269230769231L559.3673020833334,67.2403846153847L560.0931875,121.75961538461547L560.4561302083333,121.75961538461547L561.2546041666667,85.41346153846155L561.6901354166667,103.58653846153851L562.1982552083333,103.58653846153851L563.5048489583334,103.58653846153851L563.8677916666667,85.41346153846155L564.0855572916666,103.58653846153851L564.230734375,94.50000000000006L565.2469739583333,130.8461538461539L565.537328125,94.50000000000006L566.3358020833333,85.41346153846155L566.5535677083333,94.50000000000006L566.8439218750001,112.67307692307696L567.4246302083333,103.58653846153851L568.150515625,103.58653846153851L569.021578125,94.50000000000006L570.6911145833334,103.58653846153851L571.0540572916666,76.3269230769231L572.2880625,85.41346153846155L574.3205416666667,112.67307692307696L574.3931302083333,76.3269230769231L574.6834843749999,149.01923076923083L576.7159635416667,121.75961538461547L579.8372708333333,112.67307692307696L580.4179791666667,94.50000000000006L580.9986875000001,94.50000000000006L581.0712760416667,94.50000000000006L582.3778697916666,76.3269230769231L583.17634375,112.67307692307696L584.04740625,130.8461538461539L584.265171875,94.50000000000006L584.700703125,94.50000000000006L585.2814114583334,94.50000000000006L588.4753072916667,85.41346153846155L588.9834270833334,76.3269230769231L590.2174322916667,85.41346153846155L590.7255520833334,94.50000000000006L592.3950885416667,94.50000000000006L592.6854427083333,85.41346153846155L593.7016822916667,85.41346153846155L594.9356875000001,103.58653846153851L595.37121875,85.41346153846155L596.3148697916666,103.58653846153851L596.6052239583333,112.67307692307696L597.2585208333334,103.58653846153851L598.4199375000001,85.41346153846155L599.2184114583333,76.3269230769231L599.8717083333333,94.50000000000006L600.4524166666666,76.3269230769231L601.9041874999999,85.41346153846155L602.0493645833334,112.67307692307696L602.2671302083334,121.75961538461547L602.4123072916667,158.1057692307693L602.8478385416668,76.3269230769231L602.557484375,67.2403846153847L603.1381927083333,94.50000000000006L603.3559583333333,94.50000000000006L603.7189010416668,130.8461538461539L604.2270208333333,103.58653846153851L604.3721979166667,94.50000000000006L608.0742135416666,112.67307692307696L608.8726875,94.50000000000006L609.4533958333333,76.3269230769231L610.6148125,76.3269230769231L610.9051666666667,112.67307692307696L609.8163385416666,112.67307692307696L609.9615156250001,94.50000000000006L610.9777552083334,130.8461538461539L611.268109375,103.58653846153851L611.92140625,85.41346153846155L611.9939947916666,85.41346153846155L612.3569375,94.50000000000006L612.6472916666667,58.15384615384619L612.7198802083334,112.67307692307696L613.8087083333334,103.58653846153851L616.058953125,130.8461538461539L616.930015625,103.58653846153851L617.4381354166667,103.58653846153851L617.801078125,130.8461538461539L617.6559010416667,112.67307692307696L618.3091979166667,130.8461538461539L619.3980260416666,94.50000000000006L620.1965,94.50000000000006L620.7046197916667,112.67307692307696L620.7772083333333,94.50000000000006L621.4305052083333,112.67307692307696L624.1888697916667,112.67307692307696L624.4066354166666,67.2403846153847L624.5518125,94.50000000000006L624.7695781250001,94.50000000000006L624.8421666666667,103.58653846153851L625.1325208333334,121.75961538461547L626.2939375,121.75961538461547L627.3101770833333,76.3269230769231L629.7055989583333,112.67307692307696L629.9959531249999,103.58653846153851L631.302546875,94.50000000000006L631.6654895833333,67.2403846153847L631.5929010416667,103.58653846153851L631.8106666666667,85.41346153846155L632.0284322916667,94.50000000000006L633.5527916666667,76.3269230769231L634.351265625,112.67307692307696L635.3675052083333,103.58653846153851L636.093390625,85.41346153846155L636.3111562500001,67.2403846153847L636.6015104166667,112.67307692307696L637.835515625,103.58653846153851L637.9806927083333,58.15384615384619L638.1984583333334,94.50000000000006L639.7228177083334,85.41346153846155L639.8679947916667,103.58653846153851L639.0695208333334,85.41346153846155L639.8679947916667,67.2403846153847L640.448703125,94.50000000000006L640.7390572916667,85.41346153846155L641.9730625,76.3269230769231L643.27965625,58.15384615384619L643.7151875,94.50000000000006L644.0781302083334,76.3269230769231L644.4410729166667,94.50000000000006L644.6588385416667,130.8461538461539L645.7476666666666,112.67307692307696L645.8202552083333,94.50000000000006L646.6187291666666,94.50000000000006L647.1994375,112.67307692307696L647.9253229166667,76.3269230769231L648.7237968750001,76.3269230769231L650.2481562500001,130.8461538461539L651.55475,76.3269230769231L653.8775833333334,139.93269230769235L653.950171875,103.58653846153851L654.385703125,85.41346153846155L656.998890625,94.50000000000006L657.1440677083333,76.3269230769231L657.8699531249999,112.67307692307696L658.3780729166667,103.58653846153851L660.3379635416667,76.3269230769231L660.70090625,85.41346153846155L661.4267916666666,103.58653846153851L662.5882083333333,85.41346153846155L662.7333854166667,76.3269230769231L662.8785625,94.50000000000006L663.2415052083333,67.2403846153847L665.5643385416666,130.8461538461539L665.92728125,103.58653846153851L666.7257552083333,67.2403846153847L666.79834375,76.3269230769231L667.0886979166667,76.3269230769231L669.0485885416666,94.50000000000006L669.2663541666667,103.58653846153851L670.718125,112.67307692307696L671.1536562499999,85.41346153846155L671.2262447916667,76.3269230769231L673.113546875,58.15384615384619L673.6216666666667,85.41346153846155L674.1297864583333,139.93269230769235L676.9607395833333,85.41346153846155L677.033328125,67.2403846153847L677.686625,94.50000000000006L678.1947447916666,67.2403846153847L678.4125104166667,85.41346153846155L678.9206302083334,112.67307692307696L679.1383958333333,85.41346153846155L680.517578125,103.58653846153851L680.73534375,76.3269230769231L681.5338177083333,76.3269230769231L682.3322916666666,67.2403846153847L683.0581770833334,103.58653846153851L683.2033541666667,112.67307692307696L683.2759427083333,85.41346153846155L683.4937083333333,121.75961538461547L684.0744166666667,112.67307692307696L684.4373593749999,103.58653846153851L684.5099479166668,76.3269230769231L684.8003020833333,67.2403846153847L686.1794843749999,94.50000000000006L686.9053697916667,94.50000000000006L687.4860781250001,94.50000000000006L688.357140625,103.58653846153851L690.099265625,94.50000000000006L690.7525625000001,94.50000000000006L690.8251510416667,103.58653846153851L691.2606822916666,121.75961538461547L691.405859375,94.50000000000006L692.05915625,94.50000000000006L694.5997552083334,112.67307692307696L696.6322343749999,94.50000000000006L696.85,85.41346153846155L697.067765625,85.41346153846155L697.7210625,112.67307692307696L698.592125,85.41346153846155L700.33425,112.67307692307696L701.0601354166666,121.75961538461547L705.0525052083333,76.3269230769231L704.3266197916666,85.41346153846155L704.6169739583333,67.2403846153847L704.8347395833333,94.50000000000006L705.6332135416667,67.2403846153847L706.9398072916666,85.41346153846155L707.3027500000001,85.41346153846155L709.5529947916666,76.3269230769231L709.9159374999999,67.2403846153847L709.9885260416667,94.50000000000006L710.133703125,94.50000000000006L711.004765625,67.2403846153847L711.1499427083334,112.67307692307696L712.0210052083333,85.41346153846155L711.5854739583333,94.50000000000006L712.5291249999999,94.50000000000006L712.8920677083333,85.41346153846155L712.96465625,103.58653846153851L714.0534843749999,58.15384615384619L714.489015625,85.41346153846155L715.2149010416667,85.41346153846155L716.9570260416666,112.67307692307696L718.19103125,85.41346153846155L718.7717395833333,67.2403846153847L719.7879791666667,112.67307692307696L720.8768072916666,76.3269230769231L721.3849270833334,94.50000000000006L721.6026927083334,112.67307692307696L722.1834010416666,76.3269230769231L723.3448177083334,94.50000000000006L723.635171875,94.50000000000006L723.9981145833334,76.3269230769231L724.1432916666666,121.75961538461547L724.28846875,94.50000000000006L724.506234375,85.41346153846155L727.0468333333333,112.67307692307696L726.3935364583333,85.41346153846155L726.90165625,76.3269230769231L727.554953125,85.41346153846155L729.0067239583333,67.2403846153847L731.0392031250001,85.41346153846155L731.1843802083333,85.41346153846155L731.25696875,85.41346153846155L731.4021458333333,103.58653846153851L731.8376770833333,76.3269230769231L732.12803125,85.41346153846155L732.4909739583334,112.67307692307696L732.9265052083333,85.41346153846155L733.2894479166666,94.50000000000006L733.87015625,94.50000000000006L734.2330989583334,85.41346153846155L735.2493385416666,121.75961538461547L736.0478125,94.50000000000006L736.7736979166666,85.41346153846155L737.0640520833333,94.50000000000006L737.1366406249999,76.3269230769231L739.1691197916667,103.58653846153851L739.8224166666668,112.67307692307696L740.4031249999999,67.2403846153847L741.491953125,76.3269230769231L741.5645416666667,94.50000000000006L741.2741874999999,112.67307692307696L743.5244322916667,85.41346153846155L744.1777291666666,103.58653846153851L745.1213802083333,85.41346153846155L745.3391458333333,76.3269230769231L745.411734375,103.58653846153851L745.7746770833334,85.41346153846155L746.4279739583334,94.50000000000006L747.0086822916667,103.58653846153851L747.5168020833333,94.50000000000006L747.589390625,85.41346153846155L748.460453125,94.50000000000006L748.8233958333334,112.67307692307696L749.4766927083334,94.50000000000006L749.8396354166666,94.50000000000006L750.2751666666667,85.41346153846155L750.5655208333334,103.58653846153851L753.251296875,76.3269230769231L753.8320052083333,76.3269230769231L753.90459375,103.58653846153851L753.9771822916667,112.67307692307696L754.4127135416667,58.15384615384619L755.5741302083333,103.58653846153851L756.0096614583333,76.3269230769231L756.08225,103.58653846153851L756.9533125,85.41346153846155L757.0259010416667,121.75961538461547L757.6791979166667,76.3269230769231L758.042140625,76.3269230769231L758.8406145833333,112.67307692307696L759.4939114583333,85.41346153846155L760.5101510416666,94.50000000000006L761.308625,94.50000000000006L763.268515625,85.41346153846155L762.3248645833334,67.2403846153847L762.9781614583334,85.41346153846155L764.792875,94.50000000000006L765.0832291666667,67.2403846153847L765.7365260416667,85.41346153846155L766.7527656249999,85.41346153846155L767.188296875,67.2403846153847L767.3334739583333,67.2403846153847L769.8014843750001,67.2403846153847L770.237015625,103.58653846153851L770.45478125,85.41346153846155L769.5111302083333,94.50000000000006L769.6563072916667,85.41346153846155L769.7288958333334,76.3269230769231L770.45478125,76.3269230769231L770.8177239583333,94.50000000000006L771.8339635416667,85.41346153846155L772.4872604166667,94.50000000000006L773.3583229166667,85.41346153846155L773.6486770833334,121.75961538461547L775.463390625,85.41346153846155L776.8425729166667,94.50000000000006L777.4958697916667,76.3269230769231L777.641046875,85.41346153846155L778.947640625,76.3269230769231L779.6009375,85.41346153846155L781.2704739583334,85.41346153846155L781.4156510416667,67.2403846153847L781.4882395833333,67.2403846153847L784.0288385416667,94.50000000000006L784.6095468750001,85.41346153846155L784.8273125000001,94.50000000000006L785.4806093750001,94.50000000000006L786.7146145833333,94.50000000000006L788.2389739583334,67.2403846153847L789.3278020833334,76.3269230769231L790.48921875,76.3269230769231L791.9409895833334,94.50000000000006L791.2876927083333,85.41346153846155L791.7958125,67.2403846153847L792.1587552083333,76.3269230769231L794.409,94.50000000000006L794.9897083333333,76.3269230769231L795.1348854166667,85.41346153846155L797.6028958333333,76.3269230769231L797.8206614583333,94.50000000000006L798.8369010416667,94.50000000000006L798.982078125,76.3269230769231L799.0546666666667,76.3269230769231L798.6917239583333,58.15384615384619L799.1272552083333,94.50000000000006L801.159734375,76.3269230769231L801.3775,76.3269230769231L801.4500885416667,76.3269230769231L801.8856197916666,67.2403846153847L802.030796875,94.50000000000006L803.2648020833334,76.3269230769231L803.8455104166666,85.41346153846155L804.4988072916666,103.58653846153851L805.5876354166667,76.3269230769231L806.7490520833334,94.50000000000006L806.8942291666667,112.67307692307696" style="fill: none;" fill="none"></path></g></g></g></g></g></g><g transform="translate(51, 378)" clip-path="url(#clip_1)"><clipPath id="clip_1"><rect width="871" height="22"></rect></clipPath><g><g><line x1="0" y1="0" x2="0" y2="5" style="visibility: inherit;" fill="rgb(0, 0, 0)" stroke="rgb(204, 204, 204)" stroke-width="1px"></line><line x1="72.58854166666666" y1="0" x2="72.58854166666666" y2="5" style="visibility: inherit;" fill="rgb(0, 0, 0)" stroke="rgb(204, 204, 204)" stroke-width="1px"></line><line x1="145.17708333333331" y1="0" x2="145.17708333333331" y2="5" style="visibility: inherit;" fill="rgb(0, 0, 0)" stroke="rgb(204, 204, 204)" stroke-width="1px"></line><line x1="217.765625" y1="0" x2="217.765625" y2="5" style="visibility: inherit;" fill="rgb(0, 0, 0)" stroke="rgb(204, 204, 204)" stroke-width="1px"></line><line x1="290.35416666666663" y1="0" x2="290.35416666666663" y2="5" style="visibility: inherit;" fill="rgb(0, 0, 0)" stroke="rgb(204, 204, 204)" stroke-width="1px"></line><line x1="362.94270833333337" y1="0" x2="362.94270833333337" y2="5" style="visibility: inherit;" fill="rgb(0, 0, 0)" stroke="rgb(204, 204, 204)" stroke-width="1px"></line><line x1="435.53125" y1="0" x2="435.53125" y2="5" style="visibility: inherit;" fill="rgb(0, 0, 0)" stroke="rgb(204, 204, 204)" stroke-width="1px"></line><line x1="508.1197916666667" y1="0" x2="508.1197916666667" y2="5" style="visibility: inherit;" fill="rgb(0, 0, 0)" stroke="rgb(204, 204, 204)" stroke-width="1px"></line><line x1="580.7083333333333" y1="0" x2="580.7083333333333" y2="5" style="visibility: inherit;" fill="rgb(0, 0, 0)" stroke="rgb(204, 204, 204)" stroke-width="1px"></line><line x1="653.296875" y1="0" x2="653.296875" y2="5" style="visibility: inherit;" fill="rgb(0, 0, 0)" stroke="rgb(204, 204, 204)" stroke-width="1px"></line><line x1="725.8854166666667" y1="0" x2="725.8854166666667" y2="5" style="visibility: inherit;" fill="rgb(0, 0, 0)" stroke="rgb(204, 204, 204)" stroke-width="1px"></line><line x1="798.4739583333333" y1="0" x2="798.4739583333333" y2="5" style="visibility: inherit;" fill="rgb(0, 0, 0)" stroke="rgb(204, 204, 204)" stroke-width="1px"></line><line x1="871.0625" y1="0" x2="871.0625" y2="5" style="visibility: inherit;" fill="rgb(0, 0, 0)" stroke="rgb(204, 204, 204)" stroke-width="1px"></line></g><g transform="translate(0, 8)"><text x="0" y="0" dx="0em" dy="0.95em" style="text-anchor: middle; visibility: hidden; font-family: &quot;Helvetica Neue&quot;, sans-serif; font-size: 12px; font-weight: 200;" fill="rgb(50, 49, 63)" stroke="none" stroke-width="1px">-1k</text><text x="72.58854166666666" y="0" dx="0em" dy="0.95em" style="text-anchor: middle; visibility: inherit; font-family: &quot;Helvetica Neue&quot;, sans-serif; font-size: 12px; font-weight: 200;" fill="rgb(50, 49, 63)" stroke="none" stroke-width="1px">0</text><text x="145.17708333333331" y="0" dx="0em" dy="0.95em" style="text-anchor: middle; visibility: inherit; font-family: &quot;Helvetica Neue&quot;, sans-serif; font-size: 12px; font-weight: 200;" fill="rgb(50, 49, 63)" stroke="none" stroke-width="1px">1k</text><text x="217.765625" y="0" dx="0em" dy="0.95em" style="text-anchor: middle; visibility: inherit; font-family: &quot;Helvetica Neue&quot;, sans-serif; font-size: 12px; font-weight: 200;" fill="rgb(50, 49, 63)" stroke="none" stroke-width="1px">2k</text><text x="290.35416666666663" y="0" dx="0em" dy="0.95em" style="text-anchor: middle; visibility: inherit; font-family: &quot;Helvetica Neue&quot;, sans-serif; font-size: 12px; font-weight: 200;" fill="rgb(50, 49, 63)" stroke="none" stroke-width="1px">3k</text><text x="362.94270833333337" y="0" dx="0em" dy="0.95em" style="text-anchor: middle; visibility: inherit; font-family: &quot;Helvetica Neue&quot;, sans-serif; font-size: 12px; font-weight: 200;" fill="rgb(50, 49, 63)" stroke="none" stroke-width="1px">4k</text><text x="435.53125" y="0" dx="0em" dy="0.95em" style="text-anchor: middle; visibility: inherit; font-family: &quot;Helvetica Neue&quot;, sans-serif; font-size: 12px; font-weight: 200;" fill="rgb(50, 49, 63)" stroke="none" stroke-width="1px">5k</text><text x="508.1197916666667" y="0" dx="0em" dy="0.95em" style="text-anchor: middle; visibility: inherit; font-family: &quot;Helvetica Neue&quot;, sans-serif; font-size: 12px; font-weight: 200;" fill="rgb(50, 49, 63)" stroke="none" stroke-width="1px">6k</text><text x="580.7083333333333" y="0" dx="0em" dy="0.95em" style="text-anchor: middle; visibility: inherit; font-family: &quot;Helvetica Neue&quot;, sans-serif; font-size: 12px; font-weight: 200;" fill="rgb(50, 49, 63)" stroke="none" stroke-width="1px">7k</text><text x="653.296875" y="0" dx="0em" dy="0.95em" style="text-anchor: middle; visibility: inherit; font-family: &quot;Helvetica Neue&quot;, sans-serif; font-size: 12px; font-weight: 200;" fill="rgb(50, 49, 63)" stroke="none" stroke-width="1px">8k</text><text x="725.8854166666667" y="0" dx="0em" dy="0.95em" style="text-anchor: middle; visibility: inherit; font-family: &quot;Helvetica Neue&quot;, sans-serif; font-size: 12px; font-weight: 200;" fill="rgb(50, 49, 63)" stroke="none" stroke-width="1px">9k</text><text x="798.4739583333333" y="0" dx="0em" dy="0.95em" style="text-anchor: middle; visibility: inherit; font-family: &quot;Helvetica Neue&quot;, sans-serif; font-size: 12px; font-weight: 200;" fill="rgb(50, 49, 63)" stroke="none" stroke-width="1px">10k</text><text x="871.0625" y="0" dx="0em" dy="0.95em" style="text-anchor: middle; visibility: hidden; font-family: &quot;Helvetica Neue&quot;, sans-serif; font-size: 12px; font-weight: 200;" fill="rgb(50, 49, 63)" stroke="none" stroke-width="1px">11k</text></g><line x1="0" y1="0" x2="871.0625" y2="0" fill="rgb(0, 0, 0)" stroke="rgb(204, 204, 204)" stroke-width="1px"></line></g></g></g></g></svg>